<?xml version="1.0" encoding="UTF-8"?>
<!DOCTYPE svg PUBLIC "-//W3C//DTD SVG 1.1//EN" "http://www.w3.org/Graphics/SVG/1.1/DTD/svg11.dtd">
<!-- Creator: CorelDRAW X7 -->
<svg xmlns="http://www.w3.org/2000/svg" xml:space="preserve" width="150mm" height="150mm" version="1.1" style="shape-rendering:geometricPrecision; text-rendering:geometricPrecision; image-rendering:optimizeQuality; fill-rule:evenodd; clip-rule:evenodd"
viewBox="0 0 153 153"
 xmlns:xlink="http://www.w3.org/1999/xlink">
 <defs>
  <style type="text/css">
   <![CDATA[
    .fil2 {fill:none}
    .fil1 {fill:#1F2336;fill-rule:nonzero}
    .fil0 {fill:#008F71;fill-rule:nonzero}
   ]]>
  </style>
 </defs>
 <g id="Слой_x0020_1">
  <metadata id="CorelCorpID_0Corel-Layer"/>
  <g id="_1825255318992">
   <g>
    <path class="fil0" d="M127 11l14 14c1,1 1,3 0,4l-16 16 16 16c1,1 1,3 0,4l-14 14c-1,1 -3,1 -4,0l-16 -16 -16 16c-1,1 -3,1 -4,0l-14 -14c-1,-1 -1,-3 0,-4l16 -16 -16 -16c-1,-1 -1,-3 0,-4l14 -14c1,-1 3,-1 4,0l16 16 16 -16c1,-1 3,-1 4,0zm7 16l-9 -9 -16 15c-1,2 -3,2 -4,0l-16 -15 -9 9 15 16c2,1 2,3 0,4l-15 16 9 9 16 -16c1,-1 3,-1 4,0l16 16 9 -9 -16 -16c-1,-1 -1,-3 0,-4l16 -16z"/>
    <path class="fil1" d="M69 16c1,0 3,2 2,3 0,2 -2,3 -3,3 -1,0 -3,0 -4,-1 -5,-1 -9,-2 -16,0 -2,0 -4,1 -5,1 -4,2 -6,5 -6,9 -1,5 -1,10 0,15 2,12 8,26 12,32 0,1 0,2 0,3 -1,2 -1,4 -1,7 -1,8 -1,19 0,29 2,10 5,18 9,19 1,0 1,0 1,1 2,0 3,-8 4,-16 2,-13 4,-28 14,-28 11,0 13,15 15,28 1,8 2,16 3,16 1,-1 1,-1 1,-1 5,-1 8,-9 10,-19 1,-10 1,-21 0,-29 0,-3 0,-6 -1,-7 0,-1 0,-2 0,-3l0 0c1,0 1,-1 2,-2 0,-1 1,-2 1,-3 1,-2 3,-2 4,-2 2,1 2,3 2,4 -1,2 -1,3 -2,4 0,0 0,1 -1,1 1,2 1,4 1,7 1,8 1,21 0,31 -2,12 -6,22 -14,24 0,0 -1,1 -2,1 -7,0 -9,-10 -10,-21 -2,-11 -4,-23 -9,-23 -4,0 -6,12 -8,23 -1,11 -3,21 -10,21 -1,0 -2,-1 -2,-1 -8,-2 -12,-12 -14,-24 -1,-10 -2,-23 0,-31 0,-3 0,-5 1,-7 -4,-7 -10,-20 -12,-33 -1,-6 -2,-12 0,-17 1,-6 4,-10 9,-13 2,-1 4,-2 7,-2 8,-2 13,-1 19,0 1,1 2,1 3,1z"/>
   </g>
   <rect class="fil2" width="153" height="153"/>
  </g>
 </g>
</svg>
