<svg xmlns="http://www.w3.org/2000/svg" version="1.1" width="340" height="550" class="svg-card">
		<g id="transform-wrapper" transform="scale(.11 .11)" traqnsform="translate()">
   
				
<path class="tooth-18 tooth-18-parent" d="m 41.96617,158.28623 c 4.957642,0.3802 9.428351,1.37009 12.439384,3.64608 4.298567,1.86448 7.041035,3.81871 6.814214,5.94445 1.375849,3.24006 0.304958,5.59378 -0.500905,8.0435 l -2.290119,4.0215 c -1.448553,2.34064 -4.442078,3.89867 -9.124602,4.60116 -5.51245,0.76681 -11.025416,1.68656 -16.527257,-0.94524 -6.263892,-1.96088 -6.561951,-4.74265 -7.163588,-7.48272 -1.848724,-2.81074 -3.086495,-6.19523 -2.353337,-11.43077 0.649676,-2.39317 1.475289,-5.43564 5.517882,-6.82619 4.04251,-1.39056 7.66734,-0.66913 13.188328,0.42823 z" style="fill: none; stroke: rgb(0, 0, 0); stroke-width: 1; stroke-linecap: butt; stroke-linejoin: round; stroke-miterlimit: 4; stroke-opacity: 1; stroke-dasharray: none;"></path>
	
		</g>
</svg>