<svg width="506" height="290" viewBox="0 0 506 290"><g id="svgGroup" stroke-linecap="round" fill-rule="evenodd" font-size="9pt" stroke="#000" stroke-width="0.25mm" fill="none" style="stroke:#000;stroke-width:0.25mm;fill:none"><path d="M 0 287 A 3 3 0 0 0 3 290 L 503 290 A 3 3 0 0 0 506 287 L 506 3 A 3 3 0 0 0 503 0 L 3 0 A 3 3 0 0 0 0 3 L 0 287 Z M 6 288 L 500 288 A 1 1 0 0 0 501 287 A 2 2 0 0 1 503 285 A 1 1 0 0 0 504 284 L 504 6 A 1 1 0 0 0 503 5 A 2 2 0 0 1 501 3 A 1 1 0 0 0 500 2 L 6 2 A 1 1 0 0 0 5 3 A 2 2 0 0 1 3 5 A 1 1 0 0 0 2 6 L 2 284 A 1 1 0 0 0 3 285 A 2 2 0 0 1 5 287 A 1 1 0 0 0 6 288 Z M 3 287 m -1 0 a 1 1 0 0 1 2 0 a 1 1 0 0 1 -2 0 z M 503 287 m -1 0 a 1 1 0 0 1 2 0 a 1 1 0 0 1 -2 0 z M 503 3 m -1 0 a 1 1 0 0 1 2 0 a 1 1 0 0 1 -2 0 z M 3 3 m -1 0 a 1 1 0 0 1 2 0 a 1 1 0 0 1 -2 0 z" vector-effect="non-scaling-stroke"/></g></svg>