<svg xmlns="http://www.w3.org/2000/svg" version="1.1" width="340" height="550" class="svg-card">
	<text x="70" y="330">48</text>
	<text x="75" y="375">47</text>
	<text x="85" y="420">46</text>
	<text x="93" y="460">45</text>
	<text x="108" y="483">44</text>
	<text x="120" y="503">43</text>
	<text x="140" y="515">42</text>
	<text x="160" y="522">41</text>

	<text x="273" y="330">38</text>
	<text x="270" y="375">37</text>
	<text x="260" y="420">36</text>
	<text x="252" y="460">35</text>
	<text x="240" y="479">34</text>
	<text x="228" y="502">33</text>
	<text x="208" y="515">32</text>
	<text x="186" y="522">31</text>

	<text x="73" y="270">18</text>
	<text x="78" y="225">17</text>
	<text x="87" y="180">16</text>
	<text x="95" y="140">15</text>
	<text x="107" y="110">14</text>
	<text x="116" y="85">13</text>
	<text x="133" y="72">12</text>
	<text x="158" y="65">11</text>

	<text x="271" y="270">28</text>
	<text x="268" y="225">27</text>
	<text x="258" y="180">26</text>
	<text x="252" y="140">25</text>
	<text x="239" y="108">24</text>
	<text x="231" y="85">23</text>
	<text x="213" y="72">22</text>
	<text x="191" y="65">21</text>

	<g id="transform-wrapper" transform="scale(.12 .12)">
		<g>
			<g class="tooth tooth-48" data-num="48">
				<path id="path3912" fill="white" stroke="#000000" stroke-width="20" d="
					M174.149,2778.045c-5.349-37.443-29.281-41.025-10.022-123.303c10.033-58.703,38.809-107.191,103.805-135.936
					c39.344-5.602,75.203-33.653,120.689,0.316c13.257,11.587,23.135,17.764,31.838,22.497c18.08,18.823,53.225,19.936,70.449,91.563
					c-0.015,27.296-6.671,37.861,5.782,96.567c3.947,22.622,15.435,36.808,2.381,78.455c-14.067,19.262-12.797,39.659-56.184,56.749
					c-11.906,10.998-106.514,21.377-137.122,20.331c-30.608-1.045-29.086,9.407-75.771-34.681
					C211.478,2827.231,194.662,2817.748,174.149,2778.045L174.149,2778.045z"></path>

				<path id="path3914_2_" fill="none" stroke="#000000" stroke-width="15" d="
				M365.95,2816.356c0-26.643-1.097-53.543,0.007-80.16c0.75-18.085,7.508-39.502-3.383-55.901
				c-5.811-18.79-14.809-37.59-20.091-56.177c-5.993-21.086,3.342-33.539,9.467-53.762"></path>
				<path id="path3916_2_" fill="none" stroke="#000000" stroke-width="15" d="M308.482,2598.268
				l25.844,6.965"></path>

				<path id="path3920_2_" fill="none" stroke="#000000" stroke-width="15" d="
				M410.01,2673.534c-13.696,6.167-25.55,16.664-45.71,7.639"></path>
				<path fill="none" stroke="#000000" stroke-width="15" d="M365.95,2754.356c12.653,16.48,32.43,24.368,44,42"></path>
			</g>

			<g class="tooth tooth-47 status-1" data-num="47">
				<path id="path3928" fill="none" stroke="#000000" stroke-width="20" d="
			M294.545,2890.43c-32.141,14.939-64.948,24.433-94.976,56.647c-24.865,19.581-43.365,54.837-47.741,124.876
			c-2.087,49.247-14.022,97.236,18.57,150.911c27.983,23.589,10.841,31.618,86.882,71.779
			c39.173,16.411,67.293,52.594,127.504,31.368c29.127-8.249,38.965-4.992,88.86-25.629c21.141-4.816,38.651-16.938,48.394-44.701
			c10.491-17.964,19.259-42.903,25.207-79.245c-2.043-31.396-6.774-44.312-11.049-60.374c-6.835-42.214-4.271-59.8,0.189-72.413
			c0.462-21.264-3.775-42.539-17.074-63.839c-6.984-23.018-11.583-44.785-52.403-69.965
			C429.739,2881.904,405.616,2860.89,294.545,2890.43L294.545,2890.43z"></path>

				<path id="path3932" fill="none" stroke="#000000" stroke-width="15" d="
			M413.347,2952.81c-15.72,10.718-28.045,27.411-34.625,54.22c2.828,20.967,7.684,37.902,12.789,54.344
			c2.62,13.824,10.226,25.548,11.399,39.842c1.54,18.761-3.599,37.959-3.583,57.025c0.034,41.052,4.574,82.161-26.473,114.292"></path>
				<path id="path3936" fill="none" stroke="#000000" stroke-width="15" d="
			M313.864,3084.446c39.143-3.257,73.528-3.757,85.322,8.844"></path>
				<path id="path3938" fill="none" stroke="#000000" stroke-width="15" d="
			M497.424,3108.203c-30.622-8.504-51.773-25.251-99.088-19.226"></path>
				<path id="path3944" fill="none" stroke="#000000" stroke-width="15" d="
			M354.762,2938.863c11.146,21.868,25.095,43.744,23.104,65.578"></path>
				<path fill="none" stroke="#000000" stroke-width="15" d="M399.95,3198.356c19.338,12.169,39.03,23.29,46,46"></path>
			</g>

			<g class="tooth tooth-46 status-1" data-num="46">
				<path id="path3946" fill="none" stroke="#000000" stroke-width="20" d="
			M500.314,3321.142c20.133-6.26,42.261,5.884,64.604,19.997L595,3375.7c21.194,20.171,30.081,40.309,28.29,60.419
			c-1.927,35.053,7.404,70.135,30.759,105.254c14.939,43.093,24.693,84.731-1.167,116.377c-15.792,28.729-34.986,56.088-73.474,75.67
			c-40.243,16.6-75.723,39.186-124.258,45.364c-31.724,2.454-57.487,12.899-108.593-10.63l-69.705-46.734
			c-11.736-8.592-22.915-13.401-41.206-66.486c-5.983-49.324-28.956-96.569-1.331-150.004l44.231-101.609
			c20.914-26.116,34.797-54.811,79.5-72.205c26.055-8.408,43.546-21.515,93.148-16.998L500.314,3321.142z"></path>

				<path id="path3952" fill="none" stroke="#000000" stroke-width="15" d="
			M495.002,3374.576c-10.255,25.895-16.554,50.288-41.594,81.788c10.187,33.711,24.757,45.798,39.507,57
			c3.676,9.518,9.629,4.862,6.752,55.19c1.441,19.285,8.702,42.405,22.708,56.58c14.432,14.605,34.01,15.155,53.575,23.222"></path>
				<path id="path3954" fill="none" stroke="#000000" stroke-width="15" d="
			M389.265,3589.817c36.254-17.661,72.521-41.063,108.706-32.474"></path>
				<path id="path3956" fill="none" stroke="#000000" stroke-width="15" d="
			M588.667,3489.478c-26.616,41.055-58.957,38.302-89.778,47.179"></path>
				<path id="path3960" fill="none" stroke="#000000" stroke-width="15" d="
			M347.482,3414.707c24.599,29.085,58.277,45.525,105.924,42.52"></path>
				<path fill="none" stroke="#000000" stroke-width="15" d="M509.95,3678.356c0-17.937-4.214-44.825,2-60"></path>

			</g>

			<g class="tooth tooth-45" data-num="45">
				<path id="path3962" fill="none" stroke="#000000" stroke-width="20" d="
			M653.462,3765.51c84.63,42.062,83.396,64.681,85.954,96.777c-6.407,38.441-4.696,52.742-4.498,71.54
			c1.145,39.517-23.47,49.903-38.978,70.588c-49.733,49.761-76.228,33.679-111.317,41.95c-32.269-4.97-51.931-9.906-70.651-14.84
			c-52.622-12.773-48.023-32.547-67.975-49.316c-25.579-34.325-27.827-78.186-14.318-128.486
			c11.078-29.924,33.561-52.303,57.091-73.988l57.835-29.159C591.004,3732.217,641.871,3757.418,653.462,3765.51L653.462,3765.51z"></path>

				<path id="path3966" fill="none" stroke="#000000" stroke-width="15" d="
			M614.183,3950.752c19.847-17.975,19.485-49.497,19.178-80.984c-12.194-52.799-34.312-78.039-69.653-66.562"></path>
			</g>

			<g class="tooth tooth-44" data-num="44">
				<path id="path3870" fill="none" stroke="#000000" stroke-width="20" d="
			M638.885,4064.61c-33.56,46.276-41.613,79.474-38.211,106.798c10.039,47.539,15.234,98.557,65.21,117.412
			c79.755,26.572,96.923,4.52,129.326-5.695c37.078-18.028,66.236-40.61,87.247-67.876c16.158-11.165,14.95-22.374,15.605-33.58
			c-2.496-20.817,1.982-34.87,3.583-51.715c2.44-32.671-11.662-55.475-19.613-81.948c-23.516-19.147-40.745-45.441-79.186-47.621
			l-66.375-1.898C695.587,3996.344,667.697,4031.812,638.885,4064.61z"></path>

				<path id="path3877" fill="none" stroke="#000000" stroke-width="15" d="
			M754.942,4188.191l73.506-87.739c15.445-18.666,27.261-23.183,28.412,13.868"></path>

				<path id="path3879" fill="none" stroke="#000000" stroke-width="15" d="
			M725.95,4150.356c27.445-34.883,46.026-68.57,84.371-92.861c-13.473,4.7-26.909,9.508-44.83,0.744
			c-21.243-10.412-31.365,1.564-43.987,8.506"></path>
			</g>

			<g class="tooth tooth-43" data-num="43">
				<path id="path3881" fill="none" stroke="#000000" stroke-width="20" d="
			M920.361,4225.693c57.686-8.105,108.175-8.372,118.011,35.653l29.085,86.283c20.909,65.765-1.045,52.453-4.502,73.265
			l-43.237,50.748c-16.522,16.727-34.326,32.551-73.363,33.43c-57.235-2.117-115.147-3.023-127.362-85.68l-4.92-96.564
			C825.941,4276.687,838.933,4231.201,920.361,4225.693L920.361,4225.693z"></path>

				<path id="path3885" fill="none" stroke="#000000" stroke-width="15" d="
			M1026.838,4386.316c-20.659,12.283-42.138,26.697-44.807-7.875c-3.747-36.035,11.829-52.646,18.309-78.4"></path>

				<path id="path3889" fill="none" stroke="#000000" stroke-width="15" d="
			M893.95,4338.356c24.584,26.801,34.652,10.312,45.136-20.373c6.175-26.423,17.12-33.55,27.696-42.169"></path>
			</g>

			<g class="tooth tooth-42" data-num="42">
				<path id="path3893" fill="none" stroke="#000000" stroke-width="15" d="
			M1185.95,4398.356c-14.662,14.509-11.27,64.641-4.334,82.172c10.47,26.46,30.437,29.537,43.564,2.369"></path>

				<path id="path3897" fill="none" stroke="#000000" stroke-width="20" d="
			M1227.76,4363.567c-16.383-45.751-56.389-46.275-83.558-24.356l-38.922,49.035l-45.805,43.846
			c-6.66,20.522-24.578,19.258-3.691,93.095c12.56,39.938,37.821,57.786,68.793,65.698c39.722,11.406,73.73,4.074,104.349-14.383
			c20.872-21.503,53.91-31.65,45.04-80.916c-8.854-22.156-9.274-27.336-28.266-69.902
			C1239.72,4405.07,1233.713,4394.908,1227.76,4363.567L1227.76,4363.567z"></path>
			</g>

			<g class="tooth tooth-41" data-num="41">
				<path id="path3899" fill="none" stroke="#000000" stroke-width="20" d="
			M1327.579,4432.795c-12.991,28.541-22.196,60.127-45.899,80.053c-10.634,10.655-19.789,24.29-7.968,80.151
			c12.269,23.273,33.274,36.89,66.281,37.243c26.622-5.005,49.54-12.139,91.402-8.382c20.155-4.87,38.526,1.661,63.012-30.87
			c8.086-15.363,20.682-25.147,0.198-75.861l-62.712-83.785c-17.014-12.672-18.875-32.184-58.53-34.637
			C1342.355,4397.652,1336.54,4416.33,1327.579,4432.795L1327.579,4432.795z"></path>
			</g>

			<g class="tooth tooth-38  status-1" data-num="38">
				<path id="path3912_1_" fill="none" stroke="#000000" stroke-width="20" d="
			M2840.014,2777.13c5.349-37.443,29.281-41.025,10.022-123.303c-10.033-58.703-38.809-107.191-103.805-135.936
			c-39.344-5.602-75.203-33.653-120.689,0.316c-13.257,11.587-23.135,17.764-31.838,22.497
			c-18.08,18.823-53.225,19.936-70.449,91.563c0.015,27.296,6.671,37.861-5.782,96.567c-3.947,22.622-15.435,36.808-2.381,78.455
			c14.067,19.262,12.797,39.659,56.184,56.749c11.906,10.998,106.514,21.377,137.122,20.331c30.608-1.045,29.086,9.407,75.771-34.681
			C2802.685,2826.316,2819.501,2816.833,2840.014,2777.13L2840.014,2777.13z"></path>

				<path id="path3914_1_" fill="none" stroke="#000000" stroke-width="15" d="
			M2648.213,2815.441c0-26.643,1.097-53.543-0.007-80.16c-0.75-18.085-7.509-39.502,3.383-55.901
			c5.811-18.79,14.809-37.59,20.091-56.177c5.993-21.086-3.342-33.539-9.467-53.762"></path>
				<path id="path3916_1_" fill="none" stroke="#000000" stroke-width="15" d="M2705.681,2597.353
			l-25.844,6.965"></path>

				<path id="path3920_1_" fill="none" stroke="#000000" stroke-width="15" d="
			M2604.154,2672.619c13.696,6.167,25.55,16.664,45.71,7.639"></path>
				<path fill="none" stroke="#000000" stroke-width="15" d="M2648.213,2753.441c-12.653,16.48-32.43,24.368-44,42"></path>

			</g>

			<g class="tooth tooth-37" data-num="37">
				<path id="path3928_1_" fill="none" stroke="#000000" stroke-width="20" d="
			M2719.618,2889.515c32.141,14.939,64.948,24.433,94.976,56.647c24.865,19.581,43.365,54.837,47.741,124.876
			c2.087,49.247,14.022,97.236-18.57,150.911c-27.983,23.589-10.841,31.618-86.882,71.779
			c-39.173,16.411-67.293,52.594-127.504,31.368c-29.127-8.249-38.965-4.992-88.86-25.629c-21.141-4.816-38.651-16.938-48.394-44.701
			c-10.491-17.964-19.259-42.903-25.207-79.245c2.043-31.396,6.774-44.312,11.049-60.374c6.835-42.214,4.271-59.8-0.189-72.413
			c-0.462-21.264,3.775-42.539,17.074-63.839c6.984-23.018,11.583-44.785,52.403-69.965
			C2584.424,2880.989,2608.547,2859.975,2719.618,2889.515L2719.618,2889.515z"></path>

				<path id="path3932_1_" fill="none" stroke="#000000" stroke-width="15" d="
			M2600.816,2951.895c15.72,10.718,28.045,27.411,34.625,54.22c-2.828,20.967-7.684,37.902-12.789,54.344
			c-2.62,13.824-10.226,25.548-11.399,39.842c-1.54,18.761,3.599,37.959,3.583,57.025c-0.034,41.052-4.574,82.161,26.473,114.292"></path>

				<path id="path3936_1_" fill="none" stroke="#000000" stroke-width="15" d="
			M2700.299,3083.531c-39.143-3.257-73.528-3.757-85.322,8.844"></path>

				<path id="path3938_1_" fill="none" stroke="#000000" stroke-width="15" d="
			M2516.74,3107.288c30.622-8.504,51.773-25.251,99.088-19.226"></path>

				<path id="path3944_1_" fill="none" stroke="#000000" stroke-width="15" d="
			M2659.401,2937.948c-11.146,21.868-25.095,43.744-23.104,65.578"></path>
				<path fill="none" stroke="#000000" stroke-width="15" d="M2614.213,3197.441c-19.338,12.169-39.03,23.29-46,46"></path>

			</g>

			<g class="tooth tooth-36" data-num="36">
				<path id="path3946_1_" fill="none" stroke="#000000" stroke-width="20" d="
			M2513.849,3320.227c-20.133-6.26-42.261,5.884-64.604,19.997l-30.082,34.562c-21.194,20.171-30.081,40.309-28.29,60.419
			c1.927,35.053-7.404,70.135-30.759,105.254c-14.939,43.093-24.693,84.731,1.167,116.377c15.792,28.729,34.986,56.088,73.474,75.67
			c40.243,16.6,75.723,39.186,124.258,45.364c31.724,2.454,57.487,12.899,108.593-10.63l69.705-46.734
			c11.736-8.592,22.915-13.401,41.206-66.486c5.983-49.324,28.956-96.569,1.331-150.004l-44.231-101.609
			c-20.914-26.116-34.797-54.811-79.5-72.205c-26.055-8.408-43.546-21.515-93.148-16.998L2513.849,3320.227z"></path>

				<path id="path3952_1_" fill="none" stroke="#000000" stroke-width="15" d="
			M2519.161,3373.661c10.255,25.895,16.554,50.288,41.594,81.788c-10.187,33.711-24.757,45.798-39.507,57
			c-3.676,9.518-9.629,4.862-6.752,55.19c-1.441,19.285-8.702,42.405-22.709,56.58c-14.432,14.605-34.01,15.155-53.574,23.222"></path>

				<path id="path3954_1_" fill="none" stroke="#000000" stroke-width="15" d="
			M2624.898,3588.902c-36.254-17.661-72.521-41.063-108.706-32.474"></path>

				<path id="path3956_1_" fill="none" stroke="#000000" stroke-width="15" d="
			M2425.496,3488.562c26.616,41.055,58.957,38.302,89.778,47.179"></path>

				<path id="path3960_1_" fill="none" stroke="#000000" stroke-width="15" d="
			M2666.681,3413.792c-24.599,29.085-58.277,45.525-105.924,42.52"></path>
				<path fill="none" stroke="#000000" stroke-width="15" d="M2504.213,3677.441c0-17.937,4.214-44.825-2-60"></path>

			</g>

			<g class="tooth tooth-35" data-num="35">
				<path id="path3962_1_" fill="none" stroke="#000000" stroke-width="20" d="
			M2360.701,3764.595c-84.63,42.062-83.396,64.681-85.954,96.777c6.407,38.441,4.696,52.742,4.498,71.54
			c-1.145,39.517,23.47,49.903,38.978,70.588c49.733,49.761,76.228,33.679,111.317,41.95c32.269-4.97,51.931-9.906,70.651-14.84
			c52.622-12.773,48.023-32.547,67.975-49.316c25.579-34.325,27.827-78.186,14.318-128.486
			c-11.078-29.924-33.561-52.303-57.091-73.988l-57.835-29.159C2423.159,3731.302,2372.292,3756.503,2360.701,3764.595
			L2360.701,3764.595z"></path>
				<path id="path3966_1_" fill="none" stroke="#000000" stroke-width="15" d="
			M2399.98,3949.837c-19.847-17.975-19.485-49.497-19.178-80.984c12.194-52.799,34.312-78.039,69.653-66.562"></path>
			</g>

			<g class="tooth tooth-34" data-num="34">
				<path id="path3870_1_" fill="none" stroke="#000000" stroke-width="20" d="
			M2375.278,4063.695c33.56,46.276,41.613,79.474,38.211,106.798c-10.039,47.539-15.234,98.557-65.21,117.412
			c-79.755,26.572-96.923,4.52-129.326-5.695c-37.078-18.028-66.236-40.61-87.247-67.876c-16.158-11.165-14.95-22.374-15.605-33.58
			c2.496-20.817-1.982-34.87-3.583-51.715c-2.44-32.671,11.662-55.475,19.613-81.948c23.516-19.147,40.745-45.441,79.186-47.621
			l66.375-1.898C2318.576,3995.429,2346.466,4030.897,2375.278,4063.695z"></path>
				<path id="path3877_1_" fill="none" stroke="#000000" stroke-width="15" d="
			M2259.221,4187.276l-73.506-87.739c-15.445-18.666-27.261-23.183-28.412,13.868"></path>
				<path id="path3879_1_" fill="none" stroke="#000000" stroke-width="15" d="
			M2288.213,4149.441c-27.445-34.883-46.026-68.57-84.371-92.861c13.473,4.7,26.909,9.508,44.83,0.744
			c21.243-10.412,31.365,1.564,43.987,8.506"></path>
			</g>

			<g class="tooth tooth-33" data-num="33">
				<path id="path3881_1_" fill="none" stroke="#000000" stroke-width="20" d="
			M2093.802,4224.778c-57.686-8.105-108.175-8.372-118.011,35.653l-29.085,86.283c-20.909,65.765,1.045,52.453,4.502,73.265
			l43.237,50.748c16.522,16.727,34.326,32.551,73.363,33.43c57.235-2.117,115.147-3.023,127.362-85.68l4.92-96.564
			C2188.222,4275.771,2175.23,4230.286,2093.802,4224.778L2093.802,4224.778z"></path>

				<path id="path3885_1_" fill="none" stroke="#000000" stroke-width="15" d="
			M1987.325,4385.401c20.659,12.283,42.138,26.697,44.807-7.875c3.747-36.035-11.829-52.646-18.309-78.4"></path>

				<path id="path3889_1_" fill="none" stroke="#000000" stroke-width="15" d="
			M2120.213,4337.441c-24.585,26.801-34.652,10.312-45.136-20.373c-6.175-26.423-17.12-33.55-27.696-42.169"></path>
			</g>

			<g class="tooth tooth-32" data-num="32">
				<path id="path3893_1_" fill="none" stroke="#000000" stroke-width="15" d="
			M1828.213,4397.441c14.661,14.509,11.27,64.641,4.334,82.172c-10.471,26.46-30.437,29.537-43.564,2.369"></path>

				<path id="path3897_1_" fill="none" stroke="#000000" stroke-width="20" d="
			M1786.403,4362.652c16.383-45.751,56.389-46.275,83.558-24.356l38.922,49.035l45.805,43.846
			c6.66,20.522,24.578,19.258,3.691,93.095c-12.56,39.938-37.821,57.786-68.793,65.698c-39.722,11.406-73.73,4.074-104.349-14.383
			c-20.872-21.503-53.91-31.65-45.04-80.916c8.854-22.156,9.274-27.336,28.266-69.902
			C1774.443,4404.155,1780.45,4393.993,1786.403,4362.652L1786.403,4362.652z"></path>
			</g>

			<g class="tooth tooth-31" data-num="31">
				<path id="path3899_1_" fill="none" stroke="#000000" stroke-width="20" d="
			M1686.584,4431.88c12.991,28.541,22.196,60.127,45.899,80.053c10.634,10.655,19.789,24.29,7.968,80.151
			c-12.269,23.273-33.274,36.89-66.281,37.243c-26.622-5.005-49.54-12.139-91.402-8.382c-20.155-4.87-38.526,1.661-63.012-30.87
			c-8.086-15.363-20.682-25.147-0.198-75.861l62.712-83.785c17.014-12.672,18.875-32.184,58.53-34.637
			C1671.808,4396.737,1677.623,4415.415,1686.584,4431.88L1686.584,4431.88z"></path>
			</g>
		</g>

		<g>
			<g class="tooth tooth-18 status-4  status-1" data-num="18">
				<path id="path2994" "="" fill="none" stroke="#000000" stroke-width="20" d="
			M324.427,2003.436c57.484,5.253,109.322,18.931,144.235,50.377c49.841,25.761,81.641,52.762,79.011,82.133
			c15.953,44.768,3.536,77.288-5.808,111.135l-26.555,55.564c-16.796,32.34-51.506,53.867-105.8,63.573
			c-63.917,10.595-127.84,23.303-191.633-13.06c-72.631-27.094-76.087-65.529-83.063-103.387
			c-21.436-38.836-35.787-85.599-27.286-157.937c7.533-33.066,17.106-75.103,63.979-94.316
			C218.382,1978.306,260.411,1988.273,324.427,2003.436L324.427,2003.436z"></path>

				<path id="path3774" fill="none" stroke="#000000" stroke-width="15" d="
			M372.558,2268.703c2.036-1.35-33.876-24.229-59.065-33.957c-12.881-4.975-20.583-20.451-23.855-33.866
			c-6.734-27.608,20.003-62.635,11.489-84.478c-8.515-21.842-26.413-22.824-42.176-29.688c-10.553-4.595-16.817-0.763-33.785-7.131"></path>
				<path id="path3776" fill="none" stroke="#000000" stroke-width="15" d="
			M369.743,2091.146c-14.173,0-67.798,3.697-70.018,22.436"></path>

				<path id="path3778" fill="none" stroke="#000000" stroke-width="15" d="
			M216.727,2208.158c18.68,0,64.859,10.176,72.921-11.504"></path>
			</g>

			<g class="tooth tooth-17" data-num="17">
				<path id="path5171" fill="none" stroke="#000000" stroke-width="20" d="
			M170.964,1801.977c-20.159-27.624-17.522-67.834-3.927-114.096c51.879-118.83,145.082-144.44,290.279-52.761
			c45.544,18.384,81.649,53.735,105.401,89.009c23.364,34.697,45.057,51.4,33.508,112.764
			c-26.666,103.367-72.725,184.452-203.259,168.482c-51.865-6.309-97.667,7.272-163.266-44.089
			C204.308,1919.255,155.376,1922.055,170.964,1801.977L170.964,1801.977z"></path>

				<path id="path5175" fill="none" stroke="#000000" stroke-width="15" d="
			M440.234,1704.09c-21.49,11.678-38.438,8.3-57.988,28.655c-18.035,18.777-31.666,43.558-41.826,67.365
			c-6.017,14.101-13.634,44.699-13.103,59.699c0.9,25.415,19.304,42.286,24.423,66.321"></path>

				<path id="path5179" fill="none" stroke="#000000" stroke-width="15" d="
			M253.025,1659.938c28.016-0.619,51.795,18.245,72.442,34.848c18.166,14.608,28.642,39.646,44.276,51.326"></path>

				<path id="path5181" fill="none" stroke="#000000" stroke-width="15" d="
			M217.479,1788.014c36.532,4.78,90.926,25.549,125.329,8.779"></path>
			</g>

			<g class="tooth tooth-16 status-1" data-num="16">
				<path id="path5187" fill="none" stroke="#000000" stroke-width="20" d="
			M306.277,1224.864c99.024-85.947,172.028-36.305,245.036,13.317c19.716,24.465,39.003,48.929,66.006,73.412
			c82.688,79.468,67.135,133.398,19.25,178.925c-29.846,33.11-58.43,65.595-73.479,91.356
			c-17.249,17.761-33.108,31.386-46.578,37.907c-63.743,28.622-88.08-11.298-123.862-31.311
			c-128.558-67.759-174.596-162.145-141.515-282.062C254.778,1260.178,276.522,1237.344,306.277,1224.864L306.277,1224.864z"></path>

				<path id="path5191" fill="none" stroke="#000000" stroke-width="15" d="
			M465.752,1278.065c-17.085,26.345-13.331,49.989-15.128,78.728c-1.52,24.305-10.14,46.233-14.167,70.446
			c-7.615,45.791,6.9,77.07,50.297,96.852"></path>

				<path id="path5193" fill="none" stroke="#000000" stroke-width="15" d="
			M339.774,1341.854c12.074,13.086,21.09,28.199,54.859,26.904c19.255-2.464,38.507-3.707,57.724,8.602"></path>
				<path id="path5195" fill="none" stroke="#000000" stroke-width="15" d="
			M552.42,1353.678c-36.9,6.344-91.442,3.81-101.471,23.678"></path>
				<path id="path5197" fill="none" stroke="#000000" stroke-width="15" d="
			M360.491,1498.246c37.577,17.006,53.496-0.844,73.272-12.484"></path>
			</g>

			<g class="tooth tooth-15  status-1" data-num="15">
				<path id="path3063" fill="none" stroke="#000000" stroke-width="20" d="
			M504.238,928.198c-97.758,13.946-144.123,64.371-114.527,168.715c31.172,38.293,59.512,79.404,112.425,96.069
			c18.749-0.389,35.213,1.496,46.457,8.572c16.232,4.44,34.831,4.41,54.926,1.553c37.843-20.099,88.727-3.378,110.043-70.135
			c17.597-53.414,14.594-100.45-27.814-135.285C601.931,927.595,555.863,933.489,504.238,928.198L504.238,928.198z"></path>

				<path id="path3067" fill="none" stroke="#000000" stroke-width="15" d="
			M600.815,1159.438c-25.242-8.741-37.116-21.478-41.862-47.242c-5.801-31.485,20.393-54.188,14.81-83.155"></path>
				<path id="path3069" fill="none" stroke="#000000" stroke-width="15" d="
			M627.967,1010.213c-19.725,2.391-39.444,3.011-59.188,12.521"></path>
				<path id="path3071" fill="none" stroke="#000000" stroke-width="15" d="
			M536.492,981.804c21.524,18.478,28.192,33.2,35.086,47.979"></path>
				<path id="path3073" fill="none" stroke="#000000" stroke-width="15" d="
			M505.052,1154.962c9.076-9.258,25.766-23.056,53.635-43.522"></path>
			</g>

			<g class="tooth tooth-14  status-1" data-num="14">
				<path id="path3876" fill="none" stroke="#000000" stroke-width="20" d="
			M583.244,654.971c-81.595,28.414-86.959,67.62-87.351,107.53c-4.151,175.542,144.862,172.57,173.722,159.075
			c45.403,5.623,76.937,0.399,101.751-10.078c46.333-3.555,68.65-31.251,76.056-73.939c6.782-22.914,9.095-48.078-2.376-80.179
			c-8.386-17.929-2.684-35.117-54.166-55.314c-54.286-5.983-71.471-19.752-93.875-34.729
			C664.777,632.364,624.688,639.994,583.244,654.971z"></path>

				<path id="path3880" fill="none" stroke="#000000" stroke-width="15" d="
			M594.744,872.242c49.839-7.065,89.963-26.772,101.083-84.218c5.879-33.262-13.377-52.248-39.479-67.345"></path>

				<path id="path3882" fill="none" stroke="#000000" stroke-width="15" d="
			M773.27,756.37c-65.133,6.532-86.084,23.246-77.701,43.762c-0.176,54.124,16.989,41.28,29.156,58.697"></path>
			</g>

			<g class="tooth tooth-13  status-1" data-num="13">
				<path id="path3892" fill="none" stroke="#000000" stroke-width="20" d="
			M729.774,663.112c-54.045-18.03-79.354-51.018-85.099-94.188c-6.677-42.21,0.696-83.38,26.186-123.208
			c22.288-62.025,44.406-58.591,66.543-62.757c19.748,2.491,37.695,1.358,55.175-0.717c52.834-2.341,72.516,21.619,85.248,37.292
			c44.582,59.698,39.66,94.483,50.503,137.201c5.577,47.169,3.117,87.5-20.977,109.429c-73.307,54.828-85.768,27.962-116.446,25.557
			C733.777,667.659,748.471,671.984,729.774,663.112z"></path>
				<path id="path3896" fill="none" stroke="#000000" stroke-width="15" d="
			M843.074,456.564c32.326,125.751,46.341,155.429-38.134,77.486"></path>
				<path id="path3898" fill="none" stroke="#000000" stroke-width="15" d="
			M787.757,567.919c71.171,86.132,23.963,73.394-52.681,36.069"></path>
			</g>

			<g class="tooth tooth-12" data-num="12">
				<path id="path3900" fill="none" stroke="#000000" stroke-width="20" d="
			M897.945,308.379c133.384-87.562,106.057-62.003,163.145-81.47c19.899-7.112,36.417-8.175,44.814,5.29l30.953,31.116
			c21.035,26.435,19.635,32.048,22.306,41.438c9.908,81.743-1.543,80.717-3.751,115.508c-15.253,29.612-33.674,56.04-64.838,69.658
			c-19.232,13.567-45.866,12.235-74.158,7.564l-46.522-11.329c-18.24,2.743-33.956-9.422-49.947-19.958
			c-33.749-23.69-42.472-57.316-54.076-89.797c-2.334-21.009,3.644-39.62,17.389-55.989L897.945,308.379z"></path>
				<path id="path3904" fill="none" stroke="#000000" stroke-width="15" d="
			M1084.955,331.283c6.099,31.903,11.781,64.635,29.116,74.214"></path>
				<path id="path3906" fill="none" stroke="#000000" stroke-width="15" d="
			M1054.091,453.935c2.522-27.17-37.091-38.665-69.69-52.769"></path>
			</g>

			<g class="tooth tooth-11  status-1" data-num="11">
				<path id="path3908" fill="none" stroke="#000000" stroke-width="20" d="
			M1158.431,254.75c0.651,6.008,35.732,67.866,44.577,95.808c11.959,30.166,31.002,57.437,81.709,71.766
			c41.403-5.084,83.396-6.172,118.249-55.725l85.686-129.949l15.626-41.338c11.282-29.849-13.152-57.295-36.026-69.06l-62.026-16.542
			c-36.227-2.321-60.271-12.939-131.057,8.278l-66.417,14.481c-24.162,10.655-56.427,6.484-57.055,60.196
			C1152.967,213.194,1144.926,232.148,1158.431,254.75L1158.431,254.75z"></path>

				<path id="path3910" fill="none" stroke="#000000" stroke-width="15" d="
			M1224.828,188.956c31.835-46.873,112.233-50.232,159.016-27.003"></path>
			</g>

			<g class="tooth tooth-28 status-4" data-num="28">
				<path id="path2994_1_" "="" fill="none" stroke="#000000" stroke-width="20" d="
			M2689.736,2003.436c-57.484,5.253-109.322,18.931-144.234,50.377c-49.842,25.761-81.641,52.762-79.012,82.133
			c-15.953,44.768-3.535,77.288,5.809,111.135l26.555,55.564c16.795,32.34,51.506,53.867,105.799,63.573
			c63.918,10.595,127.84,23.303,191.633-13.06c72.631-27.094,76.088-65.529,83.064-103.387
			c21.436-38.836,35.787-85.599,27.285-157.937c-7.533-33.066-17.105-75.103-63.979-94.316
			C2795.781,1978.306,2753.751,1988.273,2689.736,2003.436L2689.736,2003.436z"></path>

				<path id="path3774_1_" fill="none" stroke="#000000" stroke-width="15" d="
			M2641.605,2268.703c-2.037-1.35,33.875-24.229,59.064-33.957c12.881-4.975,20.584-20.451,23.855-33.866
			c6.734-27.608-20.002-62.635-11.488-84.478c8.514-21.842,26.412-22.824,42.176-29.688c10.553-4.595,16.816-0.763,33.785-7.131"></path>

				<path id="path3776_1_" fill="none" stroke="#000000" stroke-width="15" d="
			M2644.419,2091.146c14.174,0,67.799,3.697,70.018,22.436"></path>

				<path id="path3778_1_" fill="none" stroke="#000000" stroke-width="15" d="
			M2797.435,2208.158c-18.68,0-64.859,10.176-72.92-11.504"></path>
			</g>

			<g class="tooth tooth-27  status-1" data-num="27">
				<path id="path5171_1_" fill="none" stroke="#000000" stroke-width="20" d="
			M2843.198,1801.977c20.16-27.624,17.523-67.834,3.928-114.096c-51.879-118.83-145.082-144.44-290.279-52.761
			c-45.545,18.384-81.65,53.735-105.402,89.009c-23.363,34.697-45.057,51.4-33.508,112.764
			c26.666,103.367,72.725,184.452,203.26,168.482c51.865-6.309,97.666,7.272,163.266-44.089
			C2809.855,1919.255,2858.786,1922.055,2843.198,1801.977L2843.198,1801.977z"></path>

				<path id="path5175_1_" fill="none" stroke="#000000" stroke-width="15" d="
			M2573.929,1704.09c21.489,11.678,38.438,8.3,57.987,28.655c18.034,18.777,31.666,43.558,41.825,67.365
			c6.018,14.101,13.635,44.699,13.104,59.699c-0.9,25.415-19.305,42.286-24.424,66.321"></path>

				<path id="path5179_1_" fill="none" stroke="#000000" stroke-width="15" d="
			M2761.138,1659.938c-28.017-0.619-51.795,18.245-72.442,34.848c-18.166,14.608-28.642,39.646-44.276,51.326"></path>
			</g>

			<g class="tooth tooth-26 status-1" data-num="26">
				<path id="path5181_1_" fill="none" stroke="#000000" stroke-width="15" d="
			M2796.683,1788.014c-36.531,4.78-90.926,25.549-125.328,8.779"></path>

				<path id="path5187_1_" fill="none" stroke="#000000" stroke-width="20" d="
			M2707.886,1224.864c-99.025-85.947-172.029-36.305-245.037,13.317c-19.715,24.465-39.002,48.929-66.006,73.412
			c-82.688,79.468-67.135,133.398-19.25,178.925c29.846,33.11,58.43,65.595,73.48,91.356c17.248,17.761,33.107,31.386,46.578,37.907
			c63.742,28.622,88.08-11.298,123.861-31.311c128.559-67.759,174.596-162.145,141.516-282.062
			C2759.384,1260.178,2737.64,1237.344,2707.886,1224.864L2707.886,1224.864z"></path>

				<path id="path5191_1_" fill="none" stroke="#000000" stroke-width="15" d="
			M2548.411,1278.065c17.084,26.345,13.33,49.989,15.127,78.728c1.52,24.305,10.141,46.233,14.168,70.446
			c7.615,45.791-6.9,77.07-50.297,96.852"></path>

				<path id="path5193_1_" fill="none" stroke="#000000" stroke-width="15" d="
			M2674.388,1341.854c-12.074,13.086-21.09,28.199-54.859,26.904c-19.254-2.464-38.506-3.707-57.723,8.602"></path>

				<path id="path5195_1_" fill="none" stroke="#000000" stroke-width="15" d="
			M2461.743,1353.678c36.9,6.344,91.441,3.81,101.471,23.678"></path>

				<path id="path5197_1_" fill="none" stroke="#000000" stroke-width="15" d="
			M2653.671,1498.246c-37.576,17.006-53.496-0.844-73.271-12.484"></path>
			</g>

			<g class="tooth tooth-25  status-1" data-num="25">
				<path id="path3063_1_" fill="none" stroke="#000000" stroke-width="20" d="
			M2509.925,928.198c97.758,13.946,144.123,64.371,114.527,168.715c-31.172,38.293-59.512,79.404-112.426,96.069
			c-18.748-0.389-35.213,1.496-46.457,8.572c-16.232,4.44-34.83,4.41-54.926,1.553c-37.842-20.099-88.727-3.378-110.043-70.135
			c-17.596-53.414-14.594-100.45,27.814-135.285C2412.232,927.595,2458.3,933.489,2509.925,928.198L2509.925,928.198z"></path>

				<path id="path3067_1_" fill="none" stroke="#000000" stroke-width="15" d="
			M2413.347,1159.438c25.242-8.741,37.116-21.478,41.863-47.242c5.801-31.485-20.394-54.188-14.811-83.155"></path>

				<path id="path3069_1_" fill="none" stroke="#000000" stroke-width="15" d="
			M2386.197,1010.213c19.725,2.391,39.443,3.011,59.188,12.521"></path>

				<path id="path3071_1_" fill="none" stroke="#000000" stroke-width="15" d="
			M2477.671,981.804c-21.525,18.478-28.193,33.2-35.086,47.979"></path>

				<path id="path3073_1_" fill="none" stroke="#000000" stroke-width="15" d="
			M2509.111,1154.962c-9.076-9.258-25.766-23.056-53.635-43.522"></path>
			</g>

			<g class="tooth tooth-24  status-1" data-num="24">
				<path id="path3876_1_" fill="none" stroke="#000000" stroke-width="20" d="
			M2430.919,654.971c81.594,28.414,86.959,67.62,87.35,107.53c4.152,175.542-144.861,172.57-173.721,159.075
			c-45.404,5.623-76.938,0.399-101.752-10.078c-46.332-3.555-68.65-31.251-76.055-73.939c-6.783-22.914-9.096-48.078,2.375-80.179
			c8.387-17.929,2.684-35.117,54.166-55.314c54.287-5.983,71.471-19.752,93.875-34.729
			C2349.386,632.364,2389.474,639.994,2430.919,654.971z"></path>

				<path id="path3880_1_" fill="none" stroke="#000000" stroke-width="15" d="
			M2419.419,872.242c-49.84-7.065-89.963-26.772-101.084-84.218c-5.879-33.262,13.377-52.248,39.48-67.345"></path>

				<path id="path3882_1_" fill="none" stroke="#000000" stroke-width="15" d="
			M2240.892,756.37c65.133,6.532,86.084,23.246,77.701,43.762c0.176,54.124-16.988,41.28-29.156,58.697"></path>
			</g>

			<g class="tooth tooth-23 status-4    status-1" data-num="23">
				<path id="path3892_1_" fill="none" stroke="#000000" stroke-width="20" d="
			M2284.388,663.112c54.045-18.03,79.355-51.018,85.1-94.188c6.676-42.21-0.697-83.38-26.186-123.208
			c-22.289-62.025-44.406-58.591-66.543-62.757c-19.748,2.491-37.695,1.358-55.176-0.717c-52.834-2.341-72.516,21.619-85.248,37.292
			c-44.582,59.698-39.66,94.483-50.502,137.201c-5.578,47.169-3.117,87.5,20.977,109.429c73.307,54.828,85.768,27.962,116.445,25.557
			C2280.386,667.659,2265.691,671.984,2284.388,663.112z"></path>

				<path id="path3896_1_" fill="none" stroke="#000000" stroke-width="15" d="
			M2171.089,456.564c-32.326,125.751-46.342,155.429,38.133,77.486"></path>

				<path id="path3898_1_" fill="none" stroke="#000000" stroke-width="15" d="
			M2226.406,567.919c-71.17,86.132-23.963,73.394,52.682,36.069"></path>
			</g>

			<g class="tooth tooth-22 status-1" data-num="22">
				<path id="path3900_1_" fill="none" stroke="#000000" stroke-width="20" d="
			M2116.218,308.379c-133.385-87.562-106.057-62.003-163.145-81.47c-19.9-7.112-36.418-8.175-44.814,5.29l-30.953,31.116
			c-21.035,26.435-19.635,32.048-22.307,41.438c-9.908,81.743,1.543,80.717,3.752,115.508c15.252,29.612,33.674,56.04,64.838,69.658
			c19.232,13.567,45.865,12.235,74.158,7.564l46.521-11.329c18.24,2.743,33.957-9.422,49.947-19.958
			c33.75-23.69,42.473-57.316,54.076-89.797c2.334-21.009-3.643-39.62-17.389-55.989L2116.218,308.379z"></path>

				<path id="path3904_1_" fill="none" stroke="#000000" stroke-width="15" d="
			M1929.208,331.283c-6.1,31.903-11.781,64.635-29.117,74.214"></path>

				<path id="path3906_1_" fill="none" stroke="#000000" stroke-width="15" d="
			M1960.072,453.935c-2.521-27.17,37.092-38.665,69.691-52.769"></path>
			</g>

			<g class="tooth tooth-21   status-1" data-num="21">
				<path id="path3908_1_" fill="none" stroke="#000000" stroke-width="20" d="
			M1855.732,254.75c-0.652,6.008-35.732,67.866-44.578,95.808c-11.959,30.166-31.002,57.437-81.709,71.766
			c-41.402-5.084-83.396-6.172-118.248-55.725l-85.686-129.949l-15.626-41.338c-11.282-29.849,13.151-57.295,36.026-69.06
			l62.025-16.542c36.227-2.321,60.271-12.939,131.057,8.278l66.418,14.481c24.162,10.655,56.426,6.484,57.055,60.196
			C1861.197,213.194,1869.238,232.148,1855.732,254.75L1855.732,254.75z"></path>

				<path id="path3910_1_" fill="none" stroke="#000000" stroke-width="15" d="
			M1789.335,188.956c-31.836-46.873-112.233-50.232-159.016-27.003"></path>
			</g>
		</g>
	</g>
</svg>