<svg xmlns="http://www.w3.org/2000/svg" version="1.1" width="340" height="550" class="svg-card">
		<g id="transform-wrapper" transform="scale(.11 .11)" traqnsform="translate()">
    <g class="tooth" data-pos="48">
				
        <path fill="white" stroke="#000000" stroke-width="3" d="
					M174.149,2778.045c-5.349-37.443-29.281-41.025-10.022-123.303c10.033-58.703,38.809-107.191,103.805-135.936
					c39.344-5.602,75.203-33.653,120.689,0.316c13.257,11.587,23.135,17.764,31.838,22.497c18.08,18.823,53.225,19.936,70.449,91.563
					c-0.015,27.296-6.671,37.861,5.782,96.567c3.947,22.622,15.435,36.808,2.381,78.455c-14.067,19.262-12.797,39.659-56.184,56.749
					c-11.906,10.998-106.514,21.377-137.122,20.331c-30.608-1.045-29.086,9.407-75.771-34.681
					C211.478,2827.231,194.662,2817.748,174.149,2778.045L174.149,2778.045z"></path>

				<path id="path3914_2_" fill="none" stroke="#000000" stroke-width="15" d="
				M365.95,2816.356c0-26.643-1.097-53.543,0.007-80.16c0.75-18.085,7.508-39.502-3.383-55.901
				c-5.811-18.79-14.809-37.59-20.091-56.177c-5.993-21.086,3.342-33.539,9.467-53.762"></path>
				<path id="path3916_2_" fill="none" stroke="#000000" stroke-width="15" d="M308.482,2598.268
				l25.844,6.965"></path>

				<path id="path3920_2_" fill="none" stroke="#000000" stroke-width="15" d="
				M410.01,2673.534c-13.696,6.167-25.55,16.664-45.71,7.639"></path>
				<path fill="none" stroke="#000000" stroke-width="15" d="M365.95,2754.356c12.653,16.48,32.43,24.368,44,42"></path>
			</g>
		</g>
</svg>