<?xml version="1.0" encoding="utf-8"?>
<!-- Svg Vector Icons : http://www.onlinewebfonts.com/icon -->
<!DOCTYPE svg PUBLIC "-//W3C//DTD SVG 1.1//EN" "http://www.w3.org/Graphics/SVG/1.1/DTD/svg11.dtd">
<svg version="1.1" xmlns="http://www.w3.org/2000/svg" xmlns:xlink="http://www.w3.org/1999/xlink" x="0px" y="0px" viewBox="0 0 1000 1000" enable-background="new 0 0 1000 1000" xml:space="preserve">
<metadata> Svg Vector Icons : http://www.onlinewebfonts.com/icon </metadata>
<g><g transform="translate(0.000000,511.000000) scale(0.100000,-0.100000)"><path d="M2774.4,4992.8c-635.4-89.3-1191.6-357.3-1613.9-781.6C661.1,3711.9,362.7,3005.4,245,2039.1c-46.7-379.6-46.7-1252.5,0-1705.2c142.1-1435.3,586.7-2647.2,1339.8-3654.1c229.4-306.5,724.7-803.9,986.6-990.7c249.7-176.6,594.8-349.2,810-401.9c134-34.5,215.2-40.6,385.7-34.5c190.8,6.1,231.4,14.2,353.2,71c251.7,119.8,444.6,355.3,501.4,617.1c28.4,131.9,18.3,379.6-28.4,667.9c-69,414.1-32.5,1130.7,79.2,1597.6c48.7,205,182.7,533.9,215.2,533.9c46.7,0,172.5-345.1,239.5-653.7c111.6-515.6,146.2-1313.4,75.1-1658.6c-26.4-121.8-34.5-233.5-28.4-375.6c6.1-178.6,16.2-223.3,71-341c125.8-265.9,353.2-438.5,643.5-489.2c471-81.2,1088.1,243.6,1768.2,927.7C8639.2-2859.4,9370-1485,9644.1-112.7c190.8,958.2,194.9,2091,10.2,2842.1c-158.4,645.6-422.3,1128.7-848.6,1553c-487.2,487.2-952.1,698.3-1585.5,724.7c-343.1,14.2-609-20.3-1256.6-158.3c-816.1-172.5-998.8-176.6-1605.8-28.4c-527.8,127.9-816.1,174.6-1147,182.7C3044.4,5007,2847.5,5003,2774.4,4992.8z M3769.1,4255.9c127.9-28.4,375.6-83.2,548.1-123.8c690.2-158.3,848.6-148.2,2131.6,123.8c223.3,48.7,300.4,54.8,639.5,54.8c371.5,2,391.8,0,548.1-54.8c207.1-73.1,324.8-142.1,531.9-308.6c535.9-430.4,834.3-1075.9,921.6-1999.6c44.7-471,0-1323.6-93.4-1827C8744.8-1209,8036.3-2536.6,7086.2-3452.2c-278.1-268-493.3-430.4-734.9-552.2c-156.3-81.2-207.1-97.4-298.4-97.4c-186.8,0-237.5,89.3-194.9,335c67,377.6,83.3,820.2,42.6,1258.6c-79.2,862.8-286.3,1512.4-578.6,1802.7c-257.8,259.8-619.2,245.6-891.2-32.5c-458.8-471-676-1788.5-485.2-2939.5c30.5-188.8,30.5-199-6.1-274.1c-103.5-209.1-442.5-154.3-891.2,144.1c-769.4,511.6-1467.7,1540.8-1825,2689.8C1010.3-431.5,912.9,193.8,892.5,1013.9c-20.3,852.6,65,1459.6,290.3,2009.7C1436.6,3651,1946.2,4099.6,2589.7,4262c233.4,58.9,231.4,58.9,600.9,50.8C3464.6,4306.7,3584.4,4296.5,3769.1,4255.9z"/><path d="M3119.5,3571.8c-60.9-60.9-52.8-148.2,18.3-209.1c111.6-93.4,552.2-231.4,986.6-310.6c253.8-46.7,1195.7-54.8,1471.8-12.2c582.6,89.3,1218,255.8,1295.2,341c54.8,62.9,56.8,138,4.1,190.8c-56.8,56.8-115.7,50.8-389.8-28.4c-450.7-134-846.5-205-1301.2-235.5c-629.3-42.6-1382.5,62.9-1814.9,253.8C3253.5,3622.6,3174.3,3626.6,3119.5,3571.8z"/>
</g></g>
</svg>