<?xml version="1.0" encoding="utf-8"?>
<!-- Svg Vector Icons : http://www.onlinewebfonts.com/icon -->
<!DOCTYPE svg PUBLIC "-//W3C//DTD SVG 1.1//EN" "http://www.w3.org/Graphics/SVG/1.1/DTD/svg11.dtd">
<svg version="1.1" xmlns="http://www.w3.org/2000/svg" xmlns:xlink="http://www.w3.org/1999/xlink" x="0px" y="0px" viewBox="0 0 1000 1000" enable-background="new 0 0 1000 1000" xml:space="preserve">
<metadata> Svg Vector Icons : http://www.onlinewebfonts.com/icon </metadata>
<g><g transform="translate(0.000000,511.000000) scale(0.100000,-0.100000)"><path d="M4580.4,4977.5c-95.2-66.9-93.2-72.9,439.7-1215.9c277.6-597.8,506.6-1094.3,506.6-1102.4c0-10.1-255.3-429.6-567.4-936.2c-312.1-506.6-571.5-938.2-575.5-960.5c-4.1-22.3-68.9-478.2-143.9-1013.2c-75-535-170.2-1193.6-210.7-1465.1c-42.6-271.5-68.9-496.5-62.8-500.5c8.1-4.1,174.3-20.3,370.8-34.5c279.7-18.3,431.6-18.3,717.4,0c490.4,34.5,451.9,16.2,419.5,192.5c-16.2,81.1-137.8,723.4-273.6,1430.7L4957.3,655.1l559.3,960.5c464.1,798.4,557.3,972.7,557.3,1037.5c0,87.1,34.5,24.3-759.9,1380C4720.2,5044.3,4704,5064.6,4580.4,4977.5z"/><path d="M3925.9-3493.1c0-1076-4.1-1045.6,139.8-1169.3c131.7-111.5,216.8-127.7,691-127.7c415.4,0,415.4,0,533,56.7c135.8,66.9,206.7,150,235.1,277.6c12.2,54.7,22.3,451.9,22.3,1011.2v918l-186.4-16.2c-231-22.3-1063.9-24.3-1276.7-4l-158.1,16.2V-3493.1z"/></g></g>
</svg>