<?xml version="1.0" encoding="utf-8"?>
<!-- Svg Vector Icons : http://www.onlinewebfonts.com/icon -->
<!DOCTYPE svg PUBLIC "-//W3C//DTD SVG 1.1//EN" "http://www.w3.org/Graphics/SVG/1.1/DTD/svg11.dtd">
<svg version="1.1" xmlns="http://www.w3.org/2000/svg" xmlns:xlink="http://www.w3.org/1999/xlink" x="0px" y="0px" viewBox="0 0 1000 1000" enable-background="new 0 0 1000 1000" xml:space="preserve">
<metadata> Svg Vector Icons : http://www.onlinewebfonts.com/icon </metadata>
<g><g transform="translate(0.000000,511.000000) scale(0.100000,-0.100000)"><path d="M2714.3,3827.8c-992.4-60.1-1748.3-284.7-2085.1-617.5c-170.4-168.4-220.5-280.7-214.5-473.2c2-82.2,8-665.6,14-1297.2l12-1146.8l-70.2-96.2C280.3,70.6,212.2-69.7,156-240.1c-44.1-134.3-46.1-174.4-54.1-878.1c-10-986.4,14-1156.8,214.5-1461.6c198.5-304.8,473.2-481.2,838-537.3c98.2-16,196.5-52.1,348.8-130.3c982.4-507.2,2466-479.2,3215.8,58.1c76.2,54.1,120.3,72.2,180.4,72.2c310.8,0,741.8,264.6,892.2,547.3l50.1,94.2h1860.5c1525.8,0,1872.6,4,1924.7,28.1c88.2,36.1,162.4,126.3,216.5,266.7c40.1,104.2,46.1,160.4,54.1,559.4c12.1,595.4-22.1,791.9-164.4,946.3c-98.3,108.3-12,104.3-1942.7,104.3H5998.3l-14,126.3c-22.1,188.5-104.3,409-214.5,571.4l-100.2,148.4l10,1144.8c4,631.5,14,1198.9,22.1,1261.1c76.2,643.6-940.3,1112.7-2492.1,1146.8C3003,3831.8,2780.4,3831.8,2714.3,3827.8z M3416,3358.6c703.7-46.1,1223-170.4,1513.7-364.9c332.8-222.5,248.6-477.2-226.5-675.6c-697.7-288.7-2020.9-338.8-2939.2-110.3c-657.6,164.4-938.3,447.1-687.7,697.7c264.6,268.7,954.3,437.1,1908.7,469.1C3045.1,3376.7,3239.5,3368.7,3416,3358.6z M980,1818.9c96.2-78.2,409-204.5,655.6-262.6c120.3-30.1,94.2,48.1,238.6-689.7c52.1-260.6,98.2-473.2,100.2-469.2c4,4,54.1,236.6,110.3,517.3c56.1,280.7,106.3,511.3,108.3,515.3c4,4,154.4-10,336.8-28.1c328.8-36.1,330.8-36.1,340.8-86.2c6-30.1,44.1-310.8,86.2-627.5c42.1-318.8,82.2-571.4,90.2-561.4c6,8,46.1,266.7,88.2,575.4c40.1,308.8,78.2,585.4,84.2,617.5c10,52.1,16,54.1,134.3,54.1c66.2,0,212.5,14,322.8,30.1c110.3,16,210.5,30.1,222.5,30.1c14,0,60.1-194.5,116.3-485.2c52.1-268.7,102.3-503.2,110.3-525.3c8-22.1,54.1,182.5,120.3,531.3c58.1,312.8,116.3,579.4,130.3,591.4c12,12,90.2,46.1,172.4,78.2c164.4,62.2,425,188.5,545.3,262.6c42.1,26.1,80.2,48.1,86.2,48.1c6,0,10-441.1,10-980.4V-25.6l-78.2-68.2c-124.3-104.3-387-256.6-589.4-336.8c-777.9-312.8-1852.5-344.8-2640.4-82.2c-332.8,112.3-597.5,268.7-864.1,509.2L879.8,120.7V1033c0,864.1,2,908.2,34.1,862.1C931.9,1867,962,1832.9,980,1818.9z"/></g></g>
</svg>