<?xml version="1.0" encoding="utf-8"?>
<!-- Svg Vector Icons : http://www.onlinewebfonts.com/icon -->
<!DOCTYPE svg PUBLIC "-//W3C//DTD SVG 1.1//EN" "http://www.w3.org/Graphics/SVG/1.1/DTD/svg11.dtd">
<svg version="1.1" xmlns="http://www.w3.org/2000/svg" xmlns:xlink="http://www.w3.org/1999/xlink" x="0px" y="0px" viewBox="0 0 1000 1000" enable-background="new 0 0 1000 1000" xml:space="preserve">
<metadata> Svg Vector Icons : http://www.onlinewebfonts.com/icon </metadata>
<g><g transform="translate(0.000000,511.000000) scale(0.100000,-0.100000)"><path d="M3253.7,4143.1c-262.5-78.4-382-378.1-244.9-611.2c141-242.9,472.1-274.2,656.2-62.7c146.9,166.5,146.9,378.1,2,544.6C3559.3,4135.3,3396.7,4186.2,3253.7,4143.1z M3484.9,3912c162.6-129.3,82.3-374.1-121.4-376.1c-152.8,0-254.6,143-197.8,280.1c15.7,37.2,49,82.3,74.4,99.9C3300.7,3957.1,3432,3955.1,3484.9,3912z"/><path d="M2068.6,3363.5c-141-50.9-250.7-131.2-319.3-237c-219.4-327.1-111.7-740.4,239-926.5c70.5-37.2,113.6-45,270.3-45c217.4,0,317.3,37.2,448.6,168.5c119.5,119.5,166.5,235.1,174.3,423.1c7.8,139.1,2,174.3-41.1,266.4c-105.8,229.2-297.7,364.3-538.7,380C2207.7,3396.8,2141.1,3389,2068.6,3363.5z M2407.5,3054c248.8-119.5,227.2-479.9-35.3-585.7c-145-56.8-329.1,13.7-393.7,152.8C1845.3,2899.3,2131.3,3185.3,2407.5,3054z"/><path d="M3563.2,2446.8c-168.5-37.2-376.1-119.5-540.6-215.5c-176.3-99.9-458.3-389.8-558.3-570l-78.4-143h-156.7h-158.7l-127.3,125.4c-201.8,195.9-419.2,284-703.2,286c-270.3,0-505.4-96-695.4-284C237.1,1340.1,156.8,893.5,339,501.7l58.8-123.4l-68.6-76.4C186.2,141.3,98.1-105.5,100-352.3c3.9-481.9,346.7-885.4,824.7-971.6c123.4-21.5,135.2-27.4,170.4-94c60.7-113.6,268.4-319.3,397.6-393.7c113.6-66.6,119.5-72.5,119.5-146.9c0-43.1,13.7-133.2,29.4-201.8c103.8-434.9,466.2-748.3,908.9-779.6c158.7-11.8,360.4,23.5,476,82.2l60.7,31.4l197.8-193.9c303.6-299.7,474-415.3,748.3-507.3c383.9-129.3,724.8,19.6,822.7,358.5c33.3,113.6,31.3,190-9.8,456.4c-60.7,383.9,21.6,1049.9,154.7,1261.5l35.3,56.8l29.4-56.8c146.9-286,229.2-979.4,162.6-1379c-50.9-293.8-13.7-462.3,127.3-603.3c195.9-197.9,489.7-209.6,812.9-33.3l121.4,64.6l19.6-45c11.8-23.5,74.4-103.8,143-174.3c221.4-239,550.4-354.5,865.8-305.6c276.2,41.1,550.4,219.4,701.3,452.5l60.7,96l168.5-11.7c509.3-35.3,959.8,293.8,1063.6,775.7c35.3,166.5,13.7,438.8-45,583.7l-50.9,125.4l47,96c80.3,158.7,107.7,272.3,115.6,474l5.9,193.9l74.4,49C9737.4-908.7,9898-609,9900-274c0,195.9-27.4,315.4-113.6,481.9C9619.9,533,9281,734.8,8910.8,734.8c-266.4-2-452.5-66.6-650.3-227.2c-92.1-74.4-109.7-84.2-143-62.7c-41.1,25.5-49,62.7-70.5,299.7c-31.3,321.2-180.2,762-344.7,1002.9c-246.8,366.3-595.5,622.9-952,703.2c-244.9,54.8-615.1,29.4-1083.2-70.5c-342.8-72.5-401.6-80.3-577.9-72.5c-115.6,5.9-278.2,31.3-399.6,60.7C4241,2482.1,3853.1,2507.5,3563.2,2446.8z M4507.4,1980.6c577.9-133.2,681.7-133.2,1310.5,0c742.4,154.7,1018.6,99.9,1379-282.1c178.3-188,303.6-419.2,370.2-679.7c43.1-174.3,76.4-395.7,62.7-411.4c-5.9-5.9-60.7-9.8-123.4-9.8c-509.3,0-954-485.8-934.4-1024.5l3.9-152.8l-109.7-84.2c-380-299.7-577.9-836.4-478-1304.6c39.2-178.3,98-329.1,184.1-462.3l74.4-115.6l-33.3-117.5c-19.6-64.6-35.3-158.7-35.3-211.6c-2-92.1-3.9-94-123.4-172.4c-66.6-43.1-168.4-92.1-225.3-107.7c-97.9-27.4-109.7-27.4-156.7,2c-49,33.3-50.9,35.3-33.3,184.1c31.4,270.3,21.6,871.7-19.6,1098.9c-66.6,382-166.5,640.5-307.5,793.3c-94,99.9-182.2,135.1-313.4,123.4c-313.4-31.3-534.7-478-583.7-1189c-15.7-225.3-9.8-385.9,29.4-795.3c11.8-125.4,9.8-141-31.3-176.3c-135.2-121.5-542.6,78.3-889.3,436.8c-80.3,84.2-101.9,96-127.3,76.4c-33.3-27.4-29.4-17.6,64.6,121.4c127.3,188.1,184.1,485.8,141,736.5l-13.7,78.3l103.8,56.8c221.3,123.4,427,395.7,483.8,638.6c25.5,113.6,25.5,356.5,0,470.1C4117.6-246.6,3896.2,39.4,3667,153l-109.7,54.8l-11.7,131.2c-29.4,372.2-264.4,750.2-597.4,963.7c-76.4,49-139.1,97.9-139.1,107.7c-2,39.2,197.8,284,297.7,364.3c133.2,105.8,380,223.3,552.4,260.5C3866.8,2082.5,4145,2062.9,4507.4,1980.6z M1475.1,1584.9c49-15.7,129.3-58.8,180.2-96c92.1-66.6,231.1-248.8,231.1-299.7c0-21.5,13.7-23.5,54.8-13.7c193.9,50.9,489.7,37.2,656.2-33.3c139.1-58.8,331-195.9,411.3-295.8c131.2-162.6,229.2-385.9,229.2-526.9c0-50.9-5.9-54.8-84.2-54.8c-107.7,0-284-47-399.6-105.8l-92.1-45.1l-119.5,56.8c-438.8,203.7-934.4,117.5-1273.2-227.2c-225.3-227.2-323.2-460.3-327.1-779.6c0-113.6-9.8-172.4-23.5-172.4c-41.1,2-192,78.4-266.4,137.1C554.5-795,468.3-656,427.2-511C341-215.2,493.8,127.6,775.8,274.5l101.9,54.8L758.2,448.8C599.5,607.5,548.6,738.7,558.4,960.1C579.9,1436,1018.7,1735.8,1475.1,1584.9z M9187,372.4c215.5-97.9,383.9-327.1,409.4-558.3c35.3-319.3-184.1-646.4-495.6-736.5c-86.2-25.5-103.8-37.2-92.1-62.7c49-115.6,68.6-241,60.7-383.9c-19.6-295.8-197.9-550.4-479.9-683.6c-121.5-56.8-146.9-62.7-327.1-62.7c-272.3,2-383.9,47-570,233.1c-190,190-231.2,295.8-233.1,583.7v211.6l-99.9,31.3c-54.9,17.6-143,62.7-195.9,101.9C6955.9-795,6869.7-607,6885.4-344.5c19.6,307.5,217.4,542.6,525,621c289.9,74.4,605.3-58.8,758.1-319.3l50.9-86.2l31.3,96c74.4,217.4,272.3,395.7,505.4,454.4C8867.7,448.8,9071.4,425.3,9187,372.4z M2303.7-68.3c74.4-23.5,178.3-76.4,248.8-129.3l121.4-88.1l82.3,76.4c127.3,117.5,278.2,166.5,481.9,156.7c133.2-7.8,188-19.6,270.3-62.7c505.4-258.6,517.1-961.8,19.6-1226.2c-103.8-56.8-148.9-68.6-284-74.4l-162.6-9.8l62.7-68.6c203.7-235.1,221.3-583.7,37.2-846.2c-372.2-532.8-1212.5-293.8-1249.7,358.5c-5.9,90.1,2,174.3,19.6,233.1l29.4,92.1l-78.3,11.8c-133.2,23.5-338.9,139.1-438.8,250.7c-289.9,321.3-291.9,783.5-2,1102.8c94,103.8,270.3,211.6,397.6,240.9C1990.3-19.3,2168.5-27.2,2303.7-68.3z M6742.4-955.7c49-82.3,221.3-244.8,321.2-305.6c58.8-37.2,72.5-54.8,72.5-107.7c0-94,68.6-346.7,125.4-456.4c125.4-246.8,383.9-464.2,660.1-556.3c303.6-99.9,671.9-50.9,942.2,123.4c133.2,86.2,141,84.2,160.6-60.7c25.5-192-58.8-425-205.7-572c-213.5-213.5-593.5-256.6-848.2-96c-50.9,33.3-96,58.8-99.9,58.8c-5.9,0-9.8-35.3-9.8-78.3c0-207.6-164.5-442.7-387.8-552.4c-115.6-58.8-148.9-64.6-297.7-64.6c-148.9,0-182.2,5.9-297.7,64.6c-160.6,78.3-291.8,217.4-348.7,372.2c-35.3,90.1-41.1,145-35.3,280.1c5.9,143,15.7,186.1,68.6,291.9l64.6,121.5l-96,105.8c-354.5,387.8-340.8,1012.7,31.3,1392.7C6617-938,6671.9-891,6681.7-891C6693.4-891,6720.8-920.4,6742.4-955.7z"/><path d="M583.9-1790.1c-346.7-84.2-493.6-505.4-278.2-789.4c240.9-315.4,742.4-229.2,867.8,148.9C1294.9-2068.3,954.1-1700,583.9-1790.1z M828.7-2056.5c72.5-37.2,123.4-133.2,123.4-229.2c0-190-223.3-311.5-378-207.6c-131.2,88.1-164.5,237-84.2,362.4C554.5-2031.1,713.1-1997.8,828.7-2056.5z"/></g></g>
</svg>