<?xml version="1.0" encoding="utf-8"?>
<!-- Svg Vector Icons : http://www.onlinewebfonts.com/icon -->
<!DOCTYPE svg PUBLIC "-//W3C//DTD SVG 1.1//EN" "http://www.w3.org/Graphics/SVG/1.1/DTD/svg11.dtd">
<svg version="1.1" xmlns="http://www.w3.org/2000/svg" xmlns:xlink="http://www.w3.org/1999/xlink" x="0px" y="0px" viewBox="0 0 1000 1000" enable-background="new 0 0 1000 1000" xml:space="preserve">
<metadata> Svg Vector Icons : http://www.onlinewebfonts.com/icon </metadata>
<g><g transform="translate(0.000000,511.000000) scale(0.100000,-0.100000)"><path d="M1787.8,2130.8c-410-37.3-714-156.9-916.1-359c-180.5-182.4-260.9-368.8-292.3-680.7l-11.8-129.5l-164.8,25.5c-188.3,31.4-255,15.7-284.4-60.8c-29.4-74.5-25.5-100,25.5-155c37.3-43.2,74.6-56.9,253.1-82.4l209.9-33.3l9.8-70.6c5.9-39.2,51-525.7,102-1080.8c72.6-796.4,100-1031.8,131.4-1116.2c47.1-129.5,176.5-264.8,282.5-296.2c53-15.7,1135.8-19.6,3901.6-15.7l3827.1,5.9l96.1,58.8c76.5,47.1,109.9,86.3,160.8,186.4l64.7,127.5l104,1102.4c58.8,606.1,111.8,1110.3,115.7,1120.1c5.9,7.9,102,37.3,211.9,62.8c109.9,25.5,215.8,60.8,237.4,78.5c56.9,47.1,64.7,139.3,15.7,202c-49,62.8-109.8,66.7-274.6,23.5c-172.6-45.1-168.7-47.1-184.4,107.9c-33.3,376.6-253,682.6-600.3,837.6c-372.7,164.8-1106.3,204-1583,84.3c-317.8-80.4-582.6-260.9-717.9-492.4l-62.8-107.9l-68.7,115.7c-188.3,319.8-543.4,494.3-1114.2,543.4c-792.5,68.7-1435.9-149.1-1653.6-557.1c-25.5-49-51-90.2-56.9-90.2c-5.9,0-29.4,39.2-54.9,86.3c-129.5,243.2-449.2,447.3-818,519.8C2442.9,2138.6,2042.8,2156.3,1787.8,2130.8z M2580.2,1867.9c459-80.4,710.1-290.3,786.6-661.1c29.4-139.3,23.5-435.5-9.8-455.1c-15.7-9.8-874.9,25.5-937.7,39.2c-37.3,7.8-45.1,21.6-45.1,86.3c0,53-13.7,92.2-39.2,117.7c-35.3,35.3-64.7,39.2-323.7,39.2s-288.4-3.9-323.7-39.2c-21.6-21.6-39.2-64.7-39.2-94.2V844l-111.8,9.8c-62.8,3.9-245.2,23.5-408,41.2l-294.2,31.4v156.9c2,357,192.2,600.3,564.9,725.8c80.4,27.5,194.2,56.9,253.1,66.7C1830.9,1905.2,2390,1901.3,2580.2,1867.9z M5418.7,1877.7c417.8-60.8,696.4-241.3,808.2-529.6c41.2-104,62.8-359,43.1-517.9l-13.7-109.9h-461h-459v56.9c0,102-51,119.7-353.1,119.7c-302.1,0-353.1-17.7-353.1-119.7v-56.9h-347.2c-192.2,0-394.3,5.9-451.2,11.8l-102,13.7L3716,891.1c-41.2,455.1,174.6,794.5,588.5,927.8C4530.1,1891.5,5112.7,1922.9,5418.7,1877.7z M8498.4,1842.4c386.4-104,600.2-311.9,661.1-639.5c31.4-172.6,27.5-243.2-11.8-255c-51-13.7-523.8-86.3-663-100c-64.7-5.9-141.2-17.7-170.7-21.6c-51-9.8-54.9-5.9-54.9,58.8c0,45.1-13.7,84.4-39.2,109.8c-35.3,35.3-64.7,39.2-323.7,39.2c-337.4,0-362.9-11.8-362.9-172.6v-96.1L7294,753.7c-129.5-7.9-333.5-13.7-449.2-13.7c-211.9,0-213.8,0-225.6,51c-7.9,27.5-9.8,143.2-3.9,258.9c7.8,172.6,17.6,229.5,60.8,321.7c123.6,274.6,309.9,402.1,700.3,488.4C7615.7,1913,8276.8,1903.2,8498.4,1842.4z M9112.4,549.7c-5.9-53-51-211.9-100-357c-251.1-757.2-631.7-1255.4-1022-1335.9c-355-74.5-751.3,264.8-1055.3,906.3c-78.5,168.7-245.2,610-245.2,655.2c0,7.8,260.9,25.5,559.1,37.3l276.6,9.8l21.6-58.8c31.4-82.4,90.2-98.1,370.7-98.1c233.4,0,247.2,2,292.3,49c29.4,29.4,49,70.6,49,105.9c0,54.9,2,56.9,123.6,70.6c170.7,17.7,666.9,88.3,690.5,98.1C9120.3,649.8,9126.2,636,9112.4,549.7z M1324.8,573.3c151-15.7,286.4-29.4,300.1-29.4c13.7,0,23.5-27.5,23.5-66.7c0-37.3,17.7-86.3,37.3-111.8c35.3-45.1,51-47.1,306-53c300.1-7.9,349.2,7.8,372.7,113.8c11.8,54.9,19.6,58.8,94.2,58.8c151,0,825.8-41.2,835.6-51c3.9-3.9-27.5-121.6-74.5-258.9c-237.4-723.8-635.6-1239.7-1016.1-1318.2c-129.5-27.5-304,11.8-441.4,100c-255,164.8-541.4,580.6-721.9,1053.4c-58.8,149.1-143.2,429.6-166.7,551.2l-13.7,64.7l94.2-11.8C1007,606.6,1173.8,589,1324.8,573.3z M4626.2,334c3.9-60.8,19.6-94.2,56.9-123.6c45.1-35.3,78.5-39.2,308-39.2c306,0,327.6,9.8,343.3,149.1l11.8,96.1l417.8,5.9c378.6,3.9,415.9,2,415.9-27.5c0-56.9-137.3-441.4-225.6-629.7c-166.7-355-411.9-678.7-615.9-808.2c-135.3-88.3-309.9-127.5-439.4-100c-302.1,62.8-608.1,386.4-855.3,904.3c-88.3,184.4-237.4,588.5-237.4,643.4c0,15.7,111.8,21.6,408,17.7l406.1-5.9L4626.2,334z"/></g></g>
</svg>