<?xml version="1.0" encoding="utf-8"?>
<!-- Svg Vector Icons : http://www.onlinewebfonts.com/icon -->
<!DOCTYPE svg PUBLIC "-//W3C//DTD SVG 1.1//EN" "http://www.w3.org/Graphics/SVG/1.1/DTD/svg11.dtd">
<svg version="1.1" xmlns="http://www.w3.org/2000/svg" xmlns:xlink="http://www.w3.org/1999/xlink" x="0px" y="0px" viewBox="0 0 1000 1000" enable-background="new 0 0 1000 1000" xml:space="preserve">
<metadata> Svg Vector Icons : http://www.onlinewebfonts.com/icon </metadata>
<g><g transform="translate(0.000000,511.000000) scale(0.100000,-0.100000)"><path d="M7290.5,4237.2c-31.5-98.3-66.9-186.8-78.7-194.7c-9.8-9.8-94.4-41.3-186.8-70.8c-167.1-55-167.1-55-108.1-80.6c33.4-13.8,114-41.3,180.9-61l123.9-35.4l60.9-180.9c33.4-100.3,62.9-182.9,66.9-182.9s31.5,72.8,59,163.2c29.5,88.5,62.9,171.1,72.8,180.9c9.8,11.8,98.3,47.2,196.6,80.6l180.9,59l-175,55c-98.3,29.5-184.8,62.9-196.6,72.8c-9.8,11.8-47.2,100.3-78.6,196.6l-61,178.9L7290.5,4237.2z"/><path d="M8849.7,3710.3l-114-350l-353.9-116c-194.7-64.9-348-121.9-340.2-129.8c9.8-7.9,167.1-62.9,350-121.9l334.3-106.2l118-348c64.9-190.7,121.9-346.1,127.8-346.1s62.9,155.3,127.8,346.1l118,348l334.3,106.2c184.8,59,340.2,114,348,121.9c7.9,7.9-143.5,64.9-340.2,129.8l-353.9,118l-112.1,348c-61,192.7-116,350-121.9,350S8910.7,3903,8849.7,3710.3z"/><path d="M3544.8,2685.9c-833.7-177-1394.1-800.3-1573-1748c-104.2-564.3-104.2-1244.6,2-1911.2c161.2-1012.6,603.6-1938.7,1223-2564c648.9-654.7,1313.4-821.9,1673.3-422.7c149.4,167.1,186.8,338.2,137.6,639c-41.3,253.7-47.2,743.2-9.8,979.2c35.4,222.2,94.4,434.6,153.4,548.6c47.2,94.4,51.1,98.3,76.7,62.9c43.2-59,137.6-373.6,175-580c51.1-296.9,61-794.4,19.7-1040.1c-51.1-308.7-11.8-497.5,143.5-656.7c353.9-367.7,918.2-200.5,1586.7,468C7856.8-2835.3,8368-1869.9,8566.6-875c121.9,617.4,133.7,1356.7,31.5,1869.9c-171.1,841.5-670.5,1457-1356.7,1673.3c-131.7,39.3-184.8,45.2-481.7,45.2c-196.6,0-383.4-11.8-452.2-25.6c-979.2-212.4-989-212.4-1541.5-80.6C4244.8,2731.1,3873.2,2754.7,3544.8,2685.9z M4410,2194.3c102.2-21.6,285.1-62.9,403.1-90.4c432.6-102.2,654.8-90.4,1386.2,68.8c379.5,82.6,721.6,92.4,935.9,25.6c353.9-112.1,713.7-477.8,873-892.7C8149.8,937.9,8195,597.7,8179.3,39.3c-17.7-570.2-82.6-947.7-251.7-1443.2c-92.4-269.4-322.5-745.2-479.8-994.9c-355.9-562.3-843.5-1063.7-1215.1-1250.5c-145.5-74.7-277.2-86.5-322.5-27.5c-31.4,41.3-31.4,35.4,13.8,481.7c33.4,350-17.7,896.6-120,1287.9c-88.5,342.1-283.1,646.9-446.3,700c-393.2,129.8-696.1-249.7-831.7-1044.1c-35.4-200.6-35.4-843.5,0-1093.2c33.4-243.8,23.6-296.9-66.9-334.3c-289-120-969.3,401.1-1376.4,1055.9c-471.9,760.9-700,1612.3-703.9,2632.8c-2,760.9,108.1,1230.9,379.5,1633.9c200.6,293,582,528.9,959.5,587.9C3879.1,2257.2,4193.7,2239.6,4410,2194.3z"/><path d="M3946,1691c-17.7-27.5-27.5-62.9-19.7-78.6c17.7-47.2,127.8-104.2,316.6-165.2c257.6-82.6,489.6-119.9,827.8-133.7c452.2-17.7,851.4,35.4,1331.1,175c224.2,64.9,263.5,94.4,241.8,184.8c-19.7,74.7-90.4,78.7-322.4,11.8c-456.2-131.7-766.8-171.1-1240.7-155.3c-379.5,11.8-530.9,37.4-841.6,143.5c-108.1,37.4-212.3,66.9-230,66.9C3993.1,1740.1,3963.6,1718.5,3946,1691z"/><path d="M1032,45.2c-11.8-29.5-41.3-114-62.9-188.8l-41.3-135.7l-175-55c-98.3-31.5-177-62.9-177-68.8s80.6-37.3,177-68.8l177-57l49.2-157.3c27.5-88.5,55-173,61-188.8c7.9-17.7,39.3,49.2,74.7,157.3l61,186.8l173,59c94.4,31.5,171.1,62.9,171.1,68.8s-76.7,37.3-171.1,68.8l-173,59l-61,186.8C1055.6,86.5,1051.7,94.4,1032,45.2z"/><path d="M937.6-2001.6l-118-355.9l-359.8-118l-359.8-118l359.8-119.9l359.8-119.9l119.9-361.8l119.9-359.8l118,359.8l116,359.8l363.8,121.9l363.8,121.9l-363.8,116l-361.8,116l-112.1,350c-61,192.7-116,353.9-119.9,357.9C1059.5-1647.7,1002.5-1805,937.6-2001.6z"/></g></g>
</svg>