<?xml version="1.0" encoding="utf-8"?>
<!-- Svg Vector Icons : http://www.onlinewebfonts.com/icon -->
<!DOCTYPE svg PUBLIC "-//W3C//DTD SVG 1.1//EN" "http://www.w3.org/Graphics/SVG/1.1/DTD/svg11.dtd">
<svg version="1.1" xmlns="http://www.w3.org/2000/svg" xmlns:xlink="http://www.w3.org/1999/xlink" x="0px" y="0px" viewBox="0 0 1000 1000" enable-background="new 0 0 1000 1000" xml:space="preserve">
<metadata> Svg Vector Icons : http://www.onlinewebfonts.com/icon </metadata>
<g><g transform="translate(0.000000,511.000000) scale(0.100000,-0.100000)"><path d="M2854.9,5001c-485.3-52.6-986.8-242.7-1371-515.7c-216.4-153.7-499.5-444.9-641-659.2c-333.7-503.5-525.8-1112.2-606.7-1917C203.8,1589.6,207.9,736.2,246.3,352C402-1273.8,970.2-2669.1,1898.4-3696.4c465.1-517.7,1031.3-903.9,1490.3-1019.2c220.4-54.6,521.7-46.5,689.6,18.2c222.4,87,420.6,285.1,509.6,509.6c58.6,145.6,60.7,440.8,8.1,784.6c-50.6,335.7-38.4,1031.3,26.3,1373.1c64.7,339.7,194.1,721.9,260.9,762.4c22.2,14.2,129.4-216.4,184-398.4c50.6-165.8,113.2-501.5,145.6-772.5c38.4-321.5,32.4-914-10.1-1140.5c-54.6-281.1-38.4-539.9,44.5-717.9c76.9-165.8,236.6-329.6,388.3-400.4c420.6-198.2,881.7-80.9,1492.4,376.1c240.7,182,687.5,614.7,910,885.7C8970-2307.2,9564.5-950.3,9730.3,428.8c68.8,572.3,74.8,1360.9,10.1,1836.1c-121.3,910-503.5,1672.3-1081.9,2159.7c-299.3,252.8-523.8,382.2-819,475.2c-515.7,163.8-944.4,147.6-1941.3-66.7c-742.1-159.7-924.1-161.8-1555-12.1c-216.4,50.6-493.4,109.2-616.8,131.4C3510.1,4992.9,3024.8,5019.2,2854.9,5001z M3754.8,4256.8c256.8-54.6,465.1-105.2,473.2-117.3c2-4,103.1-117.3,222.4-254.8c121.3-135.5,216.4-252.8,210.3-256.8c-6.1-6.1-145.6-30.3-311.4-56.6l-301.3-46.5l4.1-74.8c4-52.6-4.1-74.8-22.2-74.8c-62.7,0-438.8,109.2-600.6,173.9c-97.1,38.4-194.1,68.8-218.4,68.8c-117.3,0-167.8-184-70.8-260.9c109.2-87,665.3-260.9,940.3-297.3c60.7-8.1,123.4-20.2,139.5-28.3c40.4-22.3,457-667.3,448.9-695.6c-4-12.1-97.1-238.6-208.3-505.5c-111.2-264.9-198.2-491.4-194.1-505.5c10.1-26.3,655.2-962.6,685.5-992.9c24.3-26.3-2,34.4-224.5,525.8c-99.1,222.4-173.9,412.5-165.8,424.7c8.1,10.1,167.8,226.5,353.9,479.3l337.7,461.1l368-184c420.6-210.3,420.6-224.5,2,204.2c-242.7,248.7-277,293.2-390.3,509.6l-123.4,236.6l64.7,10.1c36.4,4,175.9,18.2,309.4,32.4c440.8,40.4,1310.4,248.7,1409.5,335.7c78.8,72.8,20.2,250.7-84.9,250.7c-22.2,0-143.6-30.3-268.9-68.8c-279.1-84.9-647.1-165.8-908-202.2c-109.2-14.2-198.2-24.3-198.2-20.2c0,2,74.8,66.7,167.8,141.6c91,74.8,311.4,281.1,491.4,457l323.5,319.5l151.7,30.3c80.9,18.2,277,36.4,432.7,44.5c568.2,24.3,916-111.2,1326.5-519.7c457-453,697.7-1053.6,768.4-1921.1c38.4-471.2-2-1199.1-93-1729c-226.5-1306.3-960.5-2681.4-1929.2-3613.6c-511.6-493.4-986.8-740.1-1158.7-604.6c-76.8,60.7-86.9,147.6-42.5,347.8c56.6,264.9,50.5,1170.8-12.1,1575.3c-111.2,723.9-287.1,1193.1-541.9,1439.8c-131.5,127.4-258.8,182-424.7,182c-434.8-2-782.6-507.6-936.3-1360.9c-95-525.8-103.1-1239.6-22.2-1722.9c44.5-266.9,34.4-349.8-50.6-416.6c-76.8-60.7-167.8-70.8-313.4-34.4c-649.1,163.8-1451.9,978.7-1959.5,1991.8c-453,903.9-679.5,1864.4-719.9,3049.4c-34.4,982.8,123.4,1801.7,446.9,2347.7c301.3,505.5,802.8,851.3,1403.4,964.6C2978.2,4339.7,3439.3,4323.5,3754.8,4256.8z"/></g></g>
</svg>