<?xml version="1.0" encoding="utf-8"?>
<!-- Svg Vector Icons : http://www.onlinewebfonts.com/icon -->
<!DOCTYPE svg PUBLIC "-//W3C//DTD SVG 1.1//EN" "http://www.w3.org/Graphics/SVG/1.1/DTD/svg11.dtd">
<svg version="1.1" xmlns="http://www.w3.org/2000/svg" xmlns:xlink="http://www.w3.org/1999/xlink" x="0px" y="0px" viewBox="0 0 1000 1000" enable-background="new 0 0 1000 1000" xml:space="preserve">
<metadata> Svg Vector Icons : http://www.onlinewebfonts.com/icon </metadata>
<g><g transform="translate(0.000000,511.000000) scale(0.100000,-0.100000)"><path d="M4507.5,4998.6c-626.3-84.7-1225-356.5-1638.6-744.5c-133.9-124.1-297.4-344.7-390-523.9c-92.6-177.2-102.4-301.3-39.4-439.2l37.4-84.7L1381.9,1038C344-1018.2,288.9-1134.4,298.7-1211.2c21.7-163.5,195-242.2,336.8-155.6c49.2,29.5,246.2,405.7,1138.4,2170.4C2738.9,2718,2857.1,2940.5,2896.5,2938.5c25.6-2,130-23.6,232.4-51.2c411.6-112.3,921.7-169.4,1605.1-187.1c884.3-19.7,1737.1,70.9,2235.4,240.3c80.7,27.6,151.7,43.3,157.6,35.5c7.9-9.8,500.3-980.8,1095-2160.5c904-1792.2,1091.1-2150.7,1140.4-2182.2c143.8-86.6,317.1-7.9,338.8,155.6c9.9,76.8-33.5,169.4-781.9,1654.4c-435.3,864.6-937.5,1855.3-1112.8,2201.9l-321,630.2l9.9,153.6c9.8,141.8,7.9,159.5-51.2,279.7c-246.2,496.3-783.9,927.6-1427.9,1142.3c-360.4,120.1-549.5,149.7-986.7,157.6C4812.8,5012.4,4578.4,5008.5,4507.5,4998.6z M5393.8,4535.8c531.8-80.8,980.8-287.5,1313.7-606.6c143.8-137.9,293.4-323,275.7-340.7c-3.9-3.9-110.3,19.7-238.3,51.2c-478.6,120.2-1045.8,177.3-1786.3,177.3c-726.7,0-1335.3-59.1-1800.1-177.3c-118.2-29.5-220.6-51.2-224.5-47.3c-17.7,15.8,143.8,226.5,260,336.8c311.2,297.4,754.3,508.1,1248.7,594.8C4704.5,4571.2,5131.9,4577.2,5393.8,4535.8z"/><path d="M4300.7,2310.3c-27.6-25.6-49.2-55.1-49.2-67c0-9.8-39.4-228.5-88.6-486.5c-98.5-523.9-104.4-579-53.2-624.3c47.3-43.3,147.7-43.3,187.1,2c45.3,51.2,238.3,1095,210.7,1146.3C4460.3,2367.4,4369.7,2381.2,4300.7,2310.3z"/><path d="M5482.4,2335.9c-90.6-51.2-90.6-51.2,29.5-675.5c104.4-551.5,108.3-561.3,230.4-561.3c47.3,0,72.9,13.8,96.5,49.2c31.5,49.2,29.5,74.8-59.1,547.5c-110.3,588.9-118.2,620.4-183.2,646C5537.6,2363.5,5531.7,2363.5,5482.4,2335.9z"/><path d="M3162.4,1989.3c-37.4-41.4-466.8-1250.6-466.8-1315.6c0-49.2,84.7-126,137.9-126c82.7,0,118.2,70.9,334.8,693.3c118.2,342.7,216.7,646,216.7,671.6C3384.9,2010.9,3231.3,2066.1,3162.4,1989.3z"/><path d="M6589.3,2001.1c-68.9-55.1-55.1-114.2,171.3-754.3c183.2-518,230.4-636.1,273.8-667.7c67-49.2,149.7-25.6,187.1,51.2c21.7,47.3,3.9,108.3-195,679.5c-120.1,344.7-230.4,646-246.2,671.6C6748.8,2030.6,6644.4,2040.5,6589.3,2001.1z"/><path d="M3828.1,277.7c-342.7-47.3-677.5-228.5-890.2-482.5c-287.5-338.7-419.5-807.5-419.5-1475.1c0-713,133.9-1321.5,413.6-1865.1c289.5-571.2,726.7-1024.1,1130.5-1175.8c242.3-90.6,474.6-59.1,616.5,82.7C4801-4516,4836.4-4384,4801-4171.3c-35.4,210.7-31.5,649.9,7.9,844.9c17.7,86.7,55.2,204.8,82.7,265.9c59.1,128,63,124.1,130-70.9c88.6-254.1,130-842.9,76.8-1077.3c-41.4-181.2,13.8-362.4,145.7-476.6c260-230.4,697.2-74.8,1167.9,413.6c539.6,563.3,911.9,1317.6,1034,2101.4c41.4,263.9,33.5,972.9-9.9,1181.7c-84.7,388-218.6,653.9-447.1,886.3C6823.7,65,6668.1,167.5,6477,234.4c-108.3,39.4-167.4,45.3-384.1,45.3c-218.6,0-307.3-11.8-604.6-72.9c-191-39.4-397.9-72.9-458.9-72.9c-63,0-228.5,25.6-372.2,59.1C4237.7,287.6,4044.7,307.3,3828.1,277.7z M4546.9-143.7c368.3-88.6,602.7-88.6,1004.4,0c514,114.2,768.1,102.4,996.6-47.3c305.3-200.9,496.3-529.8,559.3-972.9c35.4-234.4,13.8-858.7-37.4-1106.9c-100.4-496.3-293.4-943.4-583-1357c-313.2-445.1-736.6-807.5-943.4-807.5c-100.4,0-118.2,45.3-88.6,226.5c33.5,210.7,11.8,716.9-41.4,961.1c-74.8,350.6-200.9,581-354.5,644c-90.6,37.4-226.5,13.8-311.2-53.2c-92.6-72.9-208.8-299.4-260-504.2c-74.8-301.3-88.6-841-27.6-1087.2c19.7-78.8-5.9-139.8-70.9-167.4c-128-53.2-415.6,100.4-669.6,356.5c-330.9,332.9-592.8,817.3-730.7,1353c-94.5,366.3-122.1,642.1-110.3,1116.7c7.9,360.4,15.8,437.2,59.1,602.7c128,484.5,393.9,774,821.3,894.1C3928.5-45.2,4223.9-64.9,4546.9-143.7z"/><path d="M4015.2-474.6c-31.5-59.1,31.5-112.3,198.9-167.4c455-151.7,1073.4-139.9,1626.8,27.6c153.6,47.3,197,94.5,135.9,153.6c-29.5,29.5-41.3,29.5-153.6-2C5525.8-547.5,5334.7-579,5057-588.8c-338.7-13.8-543.6,11.8-791.7,94.6C4060.4-427.3,4042.7-425.4,4015.2-474.6z"/></g></g>
</svg>