<?xml version="1.0" encoding="utf-8"?>
<!-- Svg Vector Icons : http://www.onlinewebfonts.com/icon -->
<!DOCTYPE svg PUBLIC "-//W3C//DTD SVG 1.1//EN" "http://www.w3.org/Graphics/SVG/1.1/DTD/svg11.dtd">
<svg version="1.1" xmlns="http://www.w3.org/2000/svg" xmlns:xlink="http://www.w3.org/1999/xlink" x="0px" y="0px" viewBox="0 0 1000 1000" enable-background="new 0 0 1000 1000" xml:space="preserve">
<metadata> Svg Vector Icons : http://www.onlinewebfonts.com/icon </metadata>
<g><g transform="translate(0.000000,511.000000) scale(0.100000,-0.100000)"><path d="M2753.5,4989.5c-304.7-42.1-613.4-138.3-904.1-282.7c-545.3-272.6-946.2-685.6-1222.9-1265c-294.7-613.4-417-1263-417-2229.3c2-1283,216.5-2349.5,681.6-3365.9C1394.3-3253.9,2196.1-4174.1,2992-4561c292.7-144.3,469.1-190.4,713.7-190.4c316.7,0,561.3,102.2,725.7,304.7c194.5,240.6,252.6,523.2,184.4,884.1c-106.3,553.3-64.2,1397.3,92.2,1910.5c50.1,166.4,152.4,388.9,178.4,388.9c52.1,0,180.4-366.9,250.6-711.7c76.2-382.9,96.2-613.5,96.2-1052.5c0-310.7-8-447.1-32.1-557.3c-120.3-529.3,78.2-982.3,505.2-1146.7c505.2-194.5,1160.7,96.2,1918.5,852c567.3,565.3,1012.4,1192.8,1393.3,1964.6c487.2,986.3,697.7,1810.3,761.8,2967c54.1,998.3-102.2,1904.5-435,2515.9c-292.7,535.3-815.9,1048.5-1279,1250.9c-400.9,176.4-858,230.6-1381.2,162.4c-216.5-28.1-340.8-52.1-996.4-190.4c-350.8-74.2-675.6-96.2-896.1-62.2c-86.2,14-326.8,66.2-537.3,114.3c-208.5,48.1-461.1,102.2-561.3,118.3C3475.2,5001.6,2943.9,5017.6,2753.5,4989.5z M3683.7,4271.8c104.2-22.1,214.5-44.1,242.6-52.1l52.1-14l-78.2-152.3c-68.2-132.3-78.2-168.4-72.2-248.6c8-80.2,26.1-112.3,104.2-194.5c94.2-102.2,122.3-192.5,64.2-214.5c-38.1-14-370.9,74.2-591.4,160.4c-182.4,70.2-220.5,72.2-286.7,16c-42.1-36.1-48.1-142.3-10-190.5c36.1-50.1,326.8-166.4,583.4-234.6c890.1-234.6,1856.4-198.5,2908.9,112.3c132.3,40.1,260.6,88.2,282.6,110.3c56.2,52.1,106.3,40.1,338.8-74.2c372.9-182.4,535.3-210.5,641.5-110.3c32.1,32.1,164.4,132.3,290.7,222.5s248.6,182.4,272.6,202.5c40.1,38.1,42.1,38.1,82.2-6c24.1-26.1,92.2-126.3,154.4-222.5c388.9-623.5,523.2-1545.6,400.9-2758.5c-128.3-1257-641.5-2483.8-1477.5-3526.3c-663.6-827.9-1467.5-1379.2-1688-1156.7c-42.1,40.1-50.1,68.2-50.1,164.4c0,64.2,10,148.3,20,186.4c46.1,156.4,66.2,653.5,42.1,1018.4c-72.2,1116.6-336.8,1866.4-741.8,2105c-80.2,48.1-114.3,54.1-262.6,54.1c-142.3,0-186.4-8-266.6-50.1c-417-212.5-689.6-910.1-755.8-1928.5c-22.1-360.8-2-809.9,50.1-1102.6c50.1-286.7,30.1-386.9-90.2-437c-262.6-108.3-777.8,148.4-1269,635.5c-403,398.9-697.7,815.9-976.3,1379.2c-384.9,773.8-591.4,1531.6-683.6,2495.9c-32.1,328.8-32.1,1152.7,0,1443.4c88.2,813.9,330.8,1423.4,723.7,1822.3c298.7,300.7,723.7,513.2,1172.8,583.4C2988,4336,3463.1,4315.9,3683.7,4271.8z"/><path d="M7895.6,2170.9c-188.4-68.2-342.8-292.7-342.8-495.2c0-435,497.1-701.7,840-451.1c421,304.7,240.6,946.2-274.6,972.3C8027.9,2201,7953.7,2192.9,7895.6,2170.9z"/><path d="M7813.4,324.5C7659,248.3,7631,43.9,7761.3-74.4c160.4-148.3,413-38.1,413,178.4c0,90.2-68.2,192.4-150.4,228.5C7933.7,368.6,7899.6,368.6,7813.4,324.5z"/></g></g>
</svg>