<?xml version="1.0" encoding="utf-8"?>
<!-- Svg Vector Icons : http://www.onlinewebfonts.com/icon -->
<!DOCTYPE svg PUBLIC "-//W3C//DTD SVG 1.1//EN" "http://www.w3.org/Graphics/SVG/1.1/DTD/svg11.dtd">
<svg version="1.1" xmlns="http://www.w3.org/2000/svg" xmlns:xlink="http://www.w3.org/1999/xlink" x="0px" y="0px" viewBox="0 0 1000 1000" enable-background="new 0 0 1000 1000" xml:space="preserve">
<metadata> Svg Vector Icons : http://www.onlinewebfonts.com/icon </metadata>
<g><g transform="translate(0.000000,511.000000) scale(0.100000,-0.100000)"><path d="M4544.7,4993c-474.9-39.3-773.2-198.2-906.7-482.8c-64.8-133.5-86.3-365-51-508.3c76.5-300.3,310.1-561.3,659.4-739.9c104-51,319.9-121.7,335.6-107.9c5.9,5.9,86.4,374.8,86.4,398.4c0,2-33.4,9.8-72.6,17.7c-100.1,15.7-312,117.8-408.2,196.3c-111.9,92.2-188.4,243.3-200.2,392.5c-11.8,151.1,31.4,233.5,153.1,312c149.2,90.3,339.5,117.8,861.5,117.8c522,0,712.4-27.5,861.5-117.8c121.7-76.5,164.9-162.9,153.1-310.1c-17.7-257.1-190.4-447.5-502.4-559.3l-123.6-45.1l11.8-80.5c7.9-45.1,21.6-135.4,33.4-202.1l21.6-119.7l100.1,29.4c219.8,64.8,461.2,217.8,624.1,392.5c184.5,202.1,266.9,425.9,247.3,684.9c-25.5,339.5-261,586.8-651.6,684.9C5531.8,5006.7,4972.5,5028.3,4544.7,4993z"/><path d="M4990.2,3609.4c-45.1-104-131.5-537.7-213.9-1067.6c-37.3-243.4-68.7-453.3-68.7-467.1c0-15.7-49.1-23.6-160.9-25.5c-90.3,0-178.6-7.9-196.3-13.7c-29.4-11.8,35.3-84.4,323.8-372.9l357.2-357.2l333.6,369l331.7,367l-190.4,5.9l-188.4,5.9l-11.8,62.8c-3.9,35.3-31.4,239.4-60.8,455.3c-80.4,628-159,1051.9-204.1,1097.1C5029.4,3680.1,5009.8,3658.5,4990.2,3609.4z"/><path d="M3547.7,1678.3c-410.2-49.1-812.5-241.4-1089.2-522C2087.6,777.5,1891.3,249.6,1842.3-506c-60.8-973.4,149.2-2013.6,563.3-2780.9c425.9-790.9,1071.5-1377.7,1619.1-1471.9c329.7-56.9,630,113.8,716.3,410.2c31.4,111.8,27.5,266.9-11.8,512.2c-64.8,388.6,35.3,1167.7,172.7,1336.5l35.3,45.1l31.4-60.8c56.9-107.9,129.5-390.5,162.9-628c31.4-229.6,29.4-527.9-3.9-1012.7c-13.7-194.3,9.8-284.6,109.9-423.9c117.8-160.9,353.3-241.4,578.9-198.2c455.3,90.3,1059.8,622.1,1544.5,1364c494.6,753.6,751.6,1538.6,798.8,2441.4c54.9,1034.2-157,1725.1-679,2219.6c-272.8,259.1-537.7,388.6-873.3,431.8c-306.1,37.3-312,35.3-453.3-104c-213.9-215.9-441.6-349.3-734-437.6c-237.5-70.7-569.1-76.5-800.7-9.8c-263,74.6-408.2,162.9-622.1,378.8C3785.2,1717.5,3810.7,1707.7,3547.7,1678.3z M3616.4,1120.9c49.1-164.8,176.6-402.3,296.3-547.5c198.2-239.4,474.9-408.2,781.1-474.9c186.4-41.2,526-31.4,710.4,17.7c160.9,45.1,384.6,151.1,527.9,255.1c245.3,174.7,508.3,508.3,592.7,753.6c43.2,117.7,53,119.7,225.7,62.8c278.7-94.2,543.6-331.7,720.2-647.6c84.4-149.2,172.7-425.9,212-657.4c45.2-264.9,43.2-851.7-2-1197.1c-104-792.9-443.5-1579.8-963.6-2227.5c-392.5-490.6-906.7-865.5-1079.4-788.9c-76.5,35.3-88.3,96.2-53,302.2c21.6,137.4,27.5,268.9,19.6,526c-19.6,659.4-160.9,1177.5-382.7,1405.2c-223.7,231.6-543.6,139.3-728.1-206.1C4317-2641.2,4218.9-3314.4,4273.8-3807c49.1-425.9,49.1-427.8,2-471c-90.3-80.5-302.2-35.3-533.8,113.8c-500.4,319.9-959.7,979.3-1210.9,1732.9c-170.7,516.1-243.4,989.1-243.4,1607.3c0,600.5,72.6,977.3,257.1,1332.6c172.7,337.6,502.4,600.5,857.6,686.9C3585,1238.7,3583,1238.7,3616.4,1120.9z"/></g></g>
</svg>