<?xml version="1.0" encoding="utf-8"?>
<!-- Svg Vector Icons : http://www.onlinewebfonts.com/icon -->
<!DOCTYPE svg PUBLIC "-//W3C//DTD SVG 1.1//EN" "http://www.w3.org/Graphics/SVG/1.1/DTD/svg11.dtd">
<svg version="1.1" xmlns="http://www.w3.org/2000/svg" xmlns:xlink="http://www.w3.org/1999/xlink" x="0px" y="0px" viewBox="0 0 1000 1000" enable-background="new 0 0 1000 1000" xml:space="preserve">
<metadata> Svg Vector Icons : http://www.onlinewebfonts.com/icon </metadata>
<g><g transform="translate(0.000000,511.000000) scale(0.100000,-0.100000)"><path d="M3264.5,4994.5C2219.3,4862.3,1502.4,4125.4,1296.1,2968c-86.1-484.6-100.1-931.1-50.1-1638c74.1-1051.3,190.2-1882.3,262.3-1882.3c16,0,28-14,28-30c0-52.1,160.2-148.2,348.4-208.2c336.4-108.1,835-188.2,1573.9-256.3c498.6-46.1,2467-52.1,2963.6-10c1073.3,90.1,1734.1,220.3,1962.4,386.5c76.1,54.1,82.1,66.1,78.1,144.2c-4,46.1,18,188.2,48,314.4c116.1,514.6,244.3,1567.9,268.3,2212.7c42,1217.5-292.4,2100.6-999.2,2633.2c-284.4,214.3-530.6,316.4-877.1,360.4c-296.4,38-568.7,10-1181.4-126.1c-338.4-74.1-396.5-82.1-660.8-82.1c-268.3,0-314.4,6-590.7,72.1C3929.4,4992.5,3568.9,5032.5,3264.5,4994.5z M4009.5,4415.8c100.1-22,306.4-68.1,460.6-104.1c256.3-60.1,308.4-66.1,590.7-66.1c260.3,2,350.4,10,560.7,56.1c686.8,150.2,744.9,158.2,1021.2,160.2c312.4,2,456.6-32,680.8-162.2c172.2-100.1,466.6-398.5,572.7-576.7c342.4-584.7,420.5-1313.6,278.3-2553.1C8096.4,487,7986.3-195.9,7946.2-237.9c-8-8-82.1,0-164.2,16C6388.3,74.4,3619,72.4,2209.3-223.9C2079.1-252,1969-272,1967-268c-12,12-90.1,572.7-120.1,857.1c-136.2,1357.7-114.1,2094.6,82.1,2681.3c218.3,654.8,654.8,1053.3,1285.6,1173.4C3410.7,4481.8,3763.2,4467.8,4009.5,4415.8z"/><path d="M3522.9,3881.1c-34-24-44.1-48.1-40-94.1c8-80.1,90.1-130.2,356.4-212.3c724.9-230.3,1571.9-206.3,2477,70.1c176.2,52.1,220.3,92.1,198.2,180.2c-24,92.1-84.1,98.1-314.4,30c-488.6-146.2-1025.3-216.3-1459.8-194.2c-396.5,20-772.9,96.1-1019.2,204.3C3594.9,3921.1,3580.9,3923.1,3522.9,3881.1z"/><path d="M6001.9-1603.6c-72.1-14-244.3-58.1-384.5-98.1c-498.6-136.2-792.9-138.2-1209.5-4c-298.4,96.1-470.6,118.1-704.9,92.1c-104.1-14-224.3-36-268.3-52.1c-240.3-84.1-446.5-348.4-584.7-752.9c-116.1-340.4-208.3-829-262.3-1385.7c-42.1-450.5-40.1-626.8,10-708.8c52.1-86.1,120.1-112.1,390.5-152.2c1109.4-166.2,2535.1-166.2,3964.8,0c318.4,36.1,392.5,64.1,452.5,162.2c42.1,68.1,42.1,84.1,32,532.6c-26,1051.3-222.3,1782.2-574.7,2138.6C6630.7-1599.6,6368.3-1529.5,6001.9-1603.6z M6474.4-2194.3c156.2-152.2,304.4-576.7,376.5-1083.3c38-262.3,74.1-823,54.1-843c-14-14-478.6-64.1-963.2-100.1c-506.6-38-1812.2-32-2242.7,10c-416.5,42.1-576.7,64.1-592.7,80.1c-16,16,44.1,594.7,92.1,877.1c100.1,590.7,258.3,1005.2,410.5,1077.3c40,20,126.1,30,250.3,30c164.2,0,216.3-10,380.5-66.1c282.3-98.1,420.5-122.2,712.9-122.2c308.4,0,514.6,32.1,899.1,140.2c224.3,64.1,308.4,78.1,414.5,74.1C6390.4-2124.2,6408.4-2132.2,6474.4-2194.3z"/></g></g>
</svg>