<?xml version="1.0" encoding="utf-8"?>
<!-- Svg Vector Icons : http://www.onlinewebfonts.com/icon -->
<!DOCTYPE svg PUBLIC "-//W3C//DTD SVG 1.1//EN" "http://www.w3.org/Graphics/SVG/1.1/DTD/svg11.dtd">
<svg version="1.1" xmlns="http://www.w3.org/2000/svg" xmlns:xlink="http://www.w3.org/1999/xlink" x="0px" y="0px" viewBox="0 0 1000 1000" enable-background="new 0 0 1000 1000" xml:space="preserve">
<metadata> Svg Vector Icons : http://www.onlinewebfonts.com/icon </metadata>
<g><g transform="translate(0.000000,511.000000) scale(0.100000,-0.100000)"><path d="M4698.7,4991.7c-244.1-31.2-519.5-113.3-732.3-216.8c-171.8-85.9-230.4-126.9-361.3-257.8c-273.4-275.4-394.5-572.2-414-1027.2c-9.8-218.7,15.6-597.6,46.9-675.7c7.8-23.4,175.8-27.3,1058.4-27.3c576.1,0,1421.7,5.8,1878.6,13.7l833.9,11.7l21.5,109.4c48.8,244.1,66.4,562.4,42.9,779.2c-84,746-513.6,1156.1-1349.4,1283C5518.8,5015.2,4927.2,5019.1,4698.7,4991.7z"/><path d="M8112.2,3677.5c-119.1-39.1-207-99.6-306.6-209c-109.4-121.1-158.2-255.8-156.2-439.4c0-263.6,171.9-505.8,421.8-597.6l117.2-41l-11.7-148.4c-23.4-273.4-33.2-314.4-70.3-314.4c-17.6,0-46.9-15.6-64.4-35.1c-44.9-48.8-93.7-175.8-74.2-187.5c15.6-9.8,337.8-48.8,408.1-50.8c11.7,0,23.4,21.5,23.4,48.8c0,70.3-58.6,205-87.9,205c-15.6,0-31.2,7.8-39,17.6c-17.6,31.3,27.3,437.4,50.8,453.1c11.7,7.8,62.5,19.5,113.3,25.4c212.8,29.3,423.8,220.7,494.1,447.2c126.9,419.9-160.1,826-597.6,847.5C8250.9,3702.9,8161,3693.1,8112.2,3677.5z M8483.2,3517.3c257.8-87.9,396.4-412.1,287.1-669.8c-76.2-173.8-283.2-314.4-468.7-314.4c-119.1,0-257.8,60.5-351.5,154.3C7565.4,3072.1,7963.8,3695,8483.2,3517.3z"/><path d="M8164.9,3204.9c-144.5-125-265.6-236.3-269.5-251.9c-7.8-35.1,72.3-189.4,93.7-181.6c35.1,11.7,644.4,525.3,644.4,542.9c0,25.4-140.6,117.2-175.8,115.2C8442.2,3429.5,8309.5,3327.9,8164.9,3204.9z"/><path d="M8393.4,2939.3c-289-242.1-328.1-287.1-238.2-289c11.7,0,144.5,101.5,292.9,226.5c216.8,179.6,271.4,236.3,267.5,269.5c-3.9,21.5-9.8,43-11.7,44.9C8702,3193.2,8563.3,3079.9,8393.4,2939.3z"/><path d="M1906.1,3392.4c-128.9-19.5-267.5-44.9-306.6-58.6c-95.7-27.3-193.3-144.5-230.4-277.3l-31.2-103.5l-183.6-25.4c-179.7-25.4-238.3-46.9-209-76.2c7.8-7.8,103.5-1.9,214.8,11.7c146.5,17.6,199.2,19.5,205,2c27.4-80.1,142.6-189.4,238.3-228.5l107.4-43l21.5-142.6c11.7-78.1,33.2-218.7,46.9-312.5l23.4-169.9l99.6,9.8c142.6,13.7,333.9,46.9,359.3,62.5c17.6,11.7-15.6,320.3-62.5,576.1c-7.8,46.9-2,58.6,46.9,74.2c37.1,13.7,64.4,41,78.1,80.1c31.2,89.8,25.4,298.8-9.8,429.6c-31.2,105.5-117.2,234.3-158.2,228.5C2148.3,3427.5,2035,3411.9,1906.1,3392.4z"/><path d="M3101.3,2539c-85.9-60.5-199.2-224.6-242.2-349.6c-44.9-130.8-25.4-330,41-445.2c97.6-166,271.4-265.6,462.8-265.6h93.7l21.5-82C3673.4,623.3,4187-5.6,4776.8-193c205-64.4,476.5-82,667.9-41c292.9,62.5,517.5,183.6,753.8,404.2c300.7,281.2,525.3,652.2,658.1,1089.7c48.8,162.1,74.2,218.7,97.6,218.7c164,0,398.4,187.5,458.9,369.1c93.7,285.1-31.2,589.8-291,706.9c-76.1,35.2-175.7,37.1-2013.3,37.1H3175.5L3101.3,2539z M7085,2275.3c119.1-132.8,113.3-320.3-13.7-435.5c-33.2-31.2-80.1-41-210.9-48.8l-166-9.8l-33.2-142.6c-19.5-78.1-37.1-144.5-41-148.4c-3.9-5.9-240.2-39.1-525.3-78.1c-722.5-97.6-1062.3-97.6-1806.4,3.9l-525.3,72.3l-25.4,68.3c-13.7,37.1-33.2,105.4-44.9,152.3l-21.5,82h-201.1c-175.8,0-209,5.9-253.9,41c-113.3,89.8-140.6,251.9-68.3,402.3l41,84h1927.4H7046L7085,2275.3z M4157.7,1172c43-9.8,43-15.6,43-300.7c0-160.1-3.9-291-9.8-291c-33.2,0-291,455-332,583.9l-13.7,46.9l132.8-13.7C4052.3,1189.6,4132.3,1177.9,4157.7,1172z M6524.6,1183.7c0-72.3-269.5-554.6-332-593.7c-13.7-7.8-19.5,82-15.6,277.3l5.8,289l136.7,21.5C6503.1,1209.1,6524.6,1209.1,6524.6,1183.7z M5817.6,221C5628.2,64.7,5200.5-11.4,4917.4,62.8c-107.4,27.3-373,150.4-390.6,179.7c-5.9,9.8,292.9,15.6,662,15.6C5852.8,258.1,5862.6,258.1,5817.6,221z"/><path d="M4327.6,2085.9c-21.5-9.8-64.4-44.9-97.6-80.1c-48.8-50.8-58.6-78.1-58.6-156.2c0-228.5,248-347.6,419.9-203.1c119.1,101.5,121.1,273.4,2,386.7C4530.7,2091.8,4399.9,2117.2,4327.6,2085.9z"/><path d="M5827.4,2074.2c-130.8-56.6-181.6-244.1-103.5-373c27.4-41,70.3-76.2,130.9-97.6c80.1-31.3,97.6-31.3,167.9-5.9c107.4,37.1,169.9,128.9,169.9,251.9C6192.6,2041,6009,2154.3,5827.4,2074.2z"/><path d="M2218.6,1925.8c-31.2-9.8-132.8-27.3-224.6-37.1c-89.8-11.7-167.9-23.4-169.9-27.3c-3.9-2,25.4-242.1,62.5-531.2c37.1-289,68.3-531.2,68.3-540.9c0-7.8,43,68.3,95.7,169.9c115.2,220.7,199.2,345.7,267.5,400.3l48.8,39.1l-33.2,273.4c-19.5,152.3-39.1,275.4-44.9,273.4C2283,1945.3,2251.8,1935.5,2218.6,1925.8z"/><path d="M7918.9,1480.5c-9.8-95.7-7.8-128.9,11.7-134.7c74.2-25.4,179.7-158.2,283.2-359.3c62.5-121.1,117.2-210.9,119.1-201.1c9.8,33.2,66.4,638.6,66.4,705v62.5l-130.9,13.7c-74.2,5.8-177.7,17.6-234.3,27.3l-101.5,15.6L7918.9,1480.5z"/><path d="M2279.1,984.5c-56.6-56.6-130.8-177.7-230.4-374.9l-146.5-289l-23.4,232.4c-13.7,126.9-31.3,246.1-39.1,261.7c-25.4,46.9-140.6,117.2-193.3,117.2c-91.8,0-154.3-87.9-226.5-312.5c-126.9-390.6-152.3-505.8-162.1-765.5l-11.7-248l68.3-142.5c56.6-121.1,312.5-517.5,521.4-806.5l56.6-78.1l-60.5-787c-31.2-431.6-52.7-790.9-46.9-796.8c5.9-7.8,324.2-2,705,13.7l695.2,25.4l-11.7,68.3c-5.9,39.1-70.3,435.5-142.6,880.7l-130.8,810.4l64.5,371c115.2,660,113.3,654.2,78.1,757.7c-39.1,117.2-173.8,320.3-314.4,474.5c-103.5,115.2-105.5,121.1-89.8,195.3c9.8,41,19.5,140.6,19.5,218.7c0,136.7-3.9,148.4-60.5,201.1c-48.8,44.9-78.1,56.6-146.5,56.6C2374.8,1068.5,2353.3,1058.7,2279.1,984.5z"/><path d="M7717.7,1017.7c-76.1-64.4-91.8-150.4-62.5-343.7l23.4-152.3L7532.2,344c-144.5-177.7-253.9-355.4-287.1-470.6c-11.7-46.9,0-154.3,48.8-423.8c128.9-703,132.8-556.6-25.4-1523.2c-76.2-464.8-138.6-857.3-138.6-869c0-17.6,181.6-31.2,693.3-48.8c382.7-15.6,699.1-23.4,703-17.6c3.9,3.9-17.6,365.2-50.8,804.6l-58.6,794.8l126.9,173.8c183.5,250,357.4,517.5,437.4,673.7c85.9,169.9,101.6,355.4,54.7,628.8c-35.1,207-185.5,701.1-234.3,777.2c-70.3,105.4-177.7,111.3-285.1,13.7c-56.7-50.8-60.5-64.4-82-281.2c-13.7-126.9-27.3-230.4-35.1-230.4c-5.9,0-56.7,95.7-113.3,212.9c-126.9,263.6-236.3,431.6-312.4,476.5C7887.6,1084.1,7788,1078.3,7717.7,1017.7z"/><path d="M3579.7-505.5c-113.3-29.3-179.7-60.5-179.7-82c7.8-240.2,185.5-2691,207-2835.5c43-294.9,43-681.6,0-835.8c-41-154.3-107.4-300.7-183.6-414c-33.2-46.9-58.6-87.9-56.6-89.8c2-2,820.2-7.8,1816.1-15.6l1814.2-11.7l-60.5,76.2c-91.8,115.2-193.3,345.6-228.5,519.4c-37.1,179.7-29.3,501.9,21.5,898.3c41,326.1,207,2710.5,189.4,2726.1c-7.8,7.8-56.6,29.3-111.3,48.8c-78.1,29.3-171.8,37.1-488.2,43l-392.5,5.9l-357.4-519.4c-197.2-285.1-365.2-517.5-374.9-513.6c-7.8,3.9-191.4,236.3-408.1,519.4L4394-474.2l-355.4-2C3796.5-476.2,3650-486,3579.7-505.5z"/><path d="M2443.1-3305.8c-359.3-19.5-656.2-37.1-658.1-37.1c-3.9-1.9-5.8-97.6-5.8-214.8c0-755.7,304.6-1193.2,830-1193.2c236.3,0,433.5,99.6,540.9,273.4c29.3,48.8,72.3,162.1,95.7,253.9c37.1,144.5,41,199.2,31.3,439.4c-5.9,150.4-23.4,326.1-37.1,390.6c-23.4,111.3-29.3,117.2-84,119.1C3124.7-3272.6,2802.5-3286.3,2443.1-3305.8z"/><path d="M7100.6-3290.2c-46.9-132.8-66.4-681.5-31.2-867.1c50.8-267.5,175.8-455,357.4-537c84-39.1,134.7-46.9,279.2-46.9c150.4,1.9,193.3,9.8,296.8,56.6c328.1,150.4,533.1,613.2,533.1,1204.9v130.8l-121.1,11.7c-105.4,9.8-1210.8,70.3-1281,70.3C7120.2-3266.8,7104.5-3278.5,7100.6-3290.2z"/></g></g>
</svg>