<?xml version="1.0" encoding="utf-8"?>
<!-- Svg Vector Icons : http://www.onlinewebfonts.com/icon -->
<!DOCTYPE svg PUBLIC "-//W3C//DTD SVG 1.1//EN" "http://www.w3.org/Graphics/SVG/1.1/DTD/svg11.dtd">
<svg version="1.1" xmlns="http://www.w3.org/2000/svg" xmlns:xlink="http://www.w3.org/1999/xlink" x="0px" y="0px" viewBox="0 0 1000 1000" enable-background="new 0 0 1000 1000" xml:space="preserve">
<metadata> Svg Vector Icons : http://www.onlinewebfonts.com/icon </metadata>
<g><g transform="translate(0.000000,511.000000) scale(0.100000,-0.100000)"><path d="M3875.9,3766.7c-214.8-13.7-497.9-48.8-679.5-85.9C1534.7,3339.1,445.1,2085.5,154.1,181.6c-50.8-332-70.3-990-39.1-1255.6c140.6-1157.9,802.6-1894.1,2009.3-2243.7c648.3-185.5,1560.2-269.5,2462.3-226.5c749.8,37.1,1224.3,113.3,1720.3,275.3C7373.2-2921.2,7980.5-2249.5,8150.4-1238c125,755.7-15.6,1849.2-341.7,2642c-66.4,158.2-62.5,158.2,183.5,76.2c232.4-78.1,414-185.5,562.4-333.9c257.8-257.8,322.2-497.9,369.1-1398.1c39.1-714.7,99.6-1019.3,251.9-1253.6c125-193.3,316.3-298.8,542.8-298.8c123,0,181.6,44.9,181.6,136.7c0,84-54.7,128.9-177.7,144.5c-359.3,48.8-449.1,287-515.5,1368.8c-43,699.1-80.1,908-205,1171.6c-197.2,412-652.2,712.7-1249.7,822.1l-169.9,31.2l-76.1,128.9c-328.1,562.4-867,1060.3-1482.1,1366.9C5428.3,3663.2,4618,3813.6,3875.9,3766.7z M4783.9,3223.9c876.7-130.8,1570-515.5,2079.6-1152.1l93.7-117.2l-2798.2-5.9c-1538.7-1.9-2802.1,0-2808,5.9c-23.4,23.4,251.9,335.9,451.1,511.6c496,439.4,1163.8,712.7,1919.5,785C3979.4,3276.6,4530.1,3261,4783.9,3223.9z M7291.2,1398.1c169.9-361.3,302.7-835.7,374.9-1337.6c48.8-333.9,48.8-1029.1,2-1267.3c-224.6-1115-1029.1-1661.8-2688.9-1831.6c-365.2-37.1-1400.1-31.2-1776.9,11.7C1681.1-2858.7,882.5-2319.8,638.4-1290.7c-37.1,160.1-43,234.3-43,687.4c0,392.5,7.8,558.5,35.1,732.3c74.2,472.6,207,927.5,374.9,1284.9l85.9,179.7h3054h3054L7291.2,1398.1z"/><path d="M3856.4,1025.2c-507.7-70.3-954.9-279.2-1265.3-593.6c-704.9-710.8-611.2-1749.6,208.9-2358.8c853.3-630.7,2169.4-548.7,2901.7,183.6c294.9,296.8,445.2,624.9,462.8,1023.2c19.5,423.7-119.1,783-429.6,1116.9c-277.3,296.8-697.1,519.4-1134.5,601.4C4399.3,1036.9,4032.2,1050.5,3856.4,1025.2z"/></g></g>
</svg>