<?xml version="1.0" encoding="utf-8"?>
<!-- Svg Vector Icons : http://www.onlinewebfonts.com/icon -->
<!DOCTYPE svg PUBLIC "-//W3C//DTD SVG 1.1//EN" "http://www.w3.org/Graphics/SVG/1.1/DTD/svg11.dtd">
<svg version="1.1" xmlns="http://www.w3.org/2000/svg" xmlns:xlink="http://www.w3.org/1999/xlink" x="0px" y="0px" viewBox="0 0 1000 1000" enable-background="new 0 0 1000 1000" xml:space="preserve">
<metadata> Svg Vector Icons : http://www.onlinewebfonts.com/icon </metadata>
<g><g transform="translate(0.000000,511.000000) scale(0.100000,-0.100000)"><path d="M2599.6,3046.5c-304.5-39.5-539.8-98.9-994.5-249.1c-575.4-187.8-690-195.7-834.4-63.3C662,2831,575,2860.7,404.9,2860.7c-128.5,0-154.2-5.9-207.6-51.4c-83-69.2-108.7-174-92.9-403.3c9.9-164.1,85-512.1,144.3-670.3c13.8-33.6,5.9-98.9-27.7-227.4c-100.8-381.6-59.3-634.7,118.6-725.6c83-43.5,278.8-61.3,419.2-37.6c53.4,9.9,59.3,4,69.2-59.3c25.7-144.3,124.6-263,264.9-316.4c174-65.2,605-61.3,739.5,7.9l57.3,29.7l43.5-108.7c75.1-179.9,243.2-274.8,533.8-302.5c334.1-29.7,658.4,23.7,775.1,128.5c31.6,27.7,41.5,23.7,106.8-49.4c138.4-152.2,278.8-207.6,591.2-237.3c255.1-25.7,583.3,0,755.3,57.3C4770.6-79.4,4853.6-32,4909,15.5l91,81.1l91-81.1c55.4-47.5,138.4-94.9,213.5-120.6c166.1-55.4,484.4-81.1,743.4-59.3c308.4,25.7,464.6,85,599.1,235.3c67.2,75.1,67.2,75.1,114.7,39.5c25.7-21.7,104.8-55.4,176-77.1c185.9-59.3,607-59.3,796.8,0c160.2,49.4,270.9,142.4,324.3,266.9c39.5,98.9,39.5,98.9,118.6,67.2c100.8-37.6,355.9-55.4,520-37.6c272.8,31.6,427.1,150.3,464.6,361.8c11.9,59.3,21.7,73.2,47.5,63.3c79.1-31.6,257-33.6,361.8-2c124.6,35.6,195.7,102.8,235.3,223.4c29.6,92.9,11.9,342.1-39.6,541.7l-39.5,150.3l55.4,176c160.1,510.1,156.2,919.4-11.9,994.5c-69.2,31.6-312.4,25.7-395.4-7.9c-37.6-15.8-104.8-61.3-146.3-96.9c-144.3-130.5-265-122.6-806.7,55.4C7718.6,3022.8,7333,3090,6809.1,3072.2c-363.8-13.8-672.3-69.2-1000.5-181.9c-195.8-67.2-612.9-259-739.5-340.1l-57.3-37.6L4713.3,2663c-314.4,160.2-482.4,225.4-783,306.5C3540.8,3074.2,3020.8,3103.9,2599.6,3046.5z M4254.5,1905.7c233.3-98.9,533.8-688.1,620.8-1219.9c51.4-318.3,7.9-462.7-172-561.5c-118.6-63.3-276.8-91-543.7-91c-632.7,0-808.7,168.1-711.8,682.1c116.7,624.8,456.7,1210,707.8,1216C4175.5,1931.4,4219,1919.5,4254.5,1905.7z M5923.3,1909.6c284.7-106.8,634.7-864,644.6-1393.9c4-185.8,0-203.6-49.4-278.8c-94.9-142.3-296.6-203.6-678.2-203.6c-593.2,0-779,148.3-725.6,583.3c65.3,520,373.7,1160.6,620.8,1281.2C5812.6,1935.4,5848.2,1939.3,5923.3,1909.6z M673.8,1713.9c71.2-144.3,116.7-330.2,128.5-525.9c9.9-146.3,7.9-164.1-31.6-203.6c-33.6-33.6-65.3-41.5-179.9-41.5c-185.9,0-217.5,29.7-217.5,205.6c0,193.8,100.8,557.6,183.9,660.4C588.8,1850.3,616.5,1826.6,673.8,1713.9z M9476.3,1729.7c73.1-148.3,132.5-397.4,136.4-561.5c5.9-197.7-21.7-225.4-215.5-225.4c-132.5,0-146.3,4-185.9,55.4c-39.5,47.5-41.5,69.2-31.6,181.9c23.7,264.9,154.2,652.5,219.5,652.5C9413,1832.5,9448.6,1785.1,9476.3,1729.7z M1587.3,1654.6c185.9-205.6,355.9-794.8,282.7-972.8c-43.5-104.8-124.6-140.4-348-150.3c-365.8-17.8-496.3,53.4-496.3,268.9c0,312.4,213.5,838.3,373.7,923.4C1464.7,1757.4,1508.2,1741.6,1587.3,1654.6z M8669.6,1648.7c181.9-215.5,346-775.1,278.8-962.9c-37.6-106.8-124.6-144.3-348-154.2c-245.2-11.9-379.6,17.8-448.8,100.8c-49.4,59.3-51.4,71.2-41.5,231.3c21.8,399.4,288.7,917.4,448.8,875.9C8580.6,1733.7,8630.1,1692.2,8669.6,1648.7z M2823.1,1541.9c158.2-164.1,306.5-500.2,367.8-828.4c41.5-217.5,27.7-322.3-51.4-401.4c-91-92.9-174-110.7-492.3-110.7c-266.9,0-294.6,4-385.6,49.4c-138.4,69.2-174,142.4-160.2,336.1c21.7,318.3,197.7,757.3,377.6,945.1c87,89,110.7,102.8,177.9,102.8C2722.2,1634.8,2745.9,1621,2823.1,1541.9z M7499.1,1549.8c191.8-191.8,365.8-634.7,383.6-966.9l9.9-193.8l-77.1-77.1c-67.2-65.3-96.9-79.1-217.5-100.8c-310.4-55.4-664.4-2-769.1,116.7c-162.1,183.9,120.6,1091.4,393.5,1267.4C7325.1,1660.5,7400.3,1646.7,7499.1,1549.8z"/><path d="M482.1,124.2C258.6,25.4,163.7-279.1,181.5-846.6c9.9-353.9,43.5-506.2,162.1-739.5c96.9-195.8,241.2-342.1,512.1-520c500.2-332.2,960.9-494.3,1706.3-609c1186.3-179.9,3477.9-187.8,4741.3-17.8c822.5,110.7,1312.9,278.8,1838.8,624.8c365.8,243.2,520,440.9,626.8,810.6c39.5,134.4,45.5,199.7,45.5,520c0,282.7-7.9,399.4-35.6,516.1c-59.3,255-181.9,391.5-367.8,409.3l-96.9,7.9l-43.5-85c-94.9-185.9-98.9-189.8-282.7-199.7c-211.6-9.9-282.7-49.4-350-185.8l-49.4-100.8l-79.1,27.7c-118.6,41.5-375.7,53.4-537.8,27.7c-177.9-31.7-308.4-108.8-355.9-213.6c-19.8-41.5-35.6-77.1-37.6-81.1c0-2-53.4,21.7-118.6,55.4c-134.5,69.2-286.7,98.9-512.1,98.9c-318.3,0-565.5-79.1-652.5-209.6l-41.5-61.3l-89,45.5c-128.5,65.2-328.2,94.9-591.2,81.1c-259-11.9-413.2-57.3-516-154.2l-61.3-57.3l-77.1,67.2c-100.8,90.9-239.2,132.5-504.2,144.3c-255.1,13.8-448.8-15.8-585.2-83c-53.4-25.7-94.9-41.5-94.9-31.6c0,39.5-156.2,164.1-255.1,201.7c-227.4,85-729.6,71.2-919.4-25.7c-57.3-29.7-81.1-33.6-87-15.8c-19.8,59.3-130.5,156.2-225.4,199.7c-92.9,39.5-134.4,45.5-361.8,45.5c-189.8-2-278.8-9.9-344-33.6c-47.5-19.8-89-33.6-91-33.6c-4,0-11.9,27.7-19.8,59.3C1397.5-204,1241.3-119,1010-128.8c-166.1-5.9-179.9,4-272.9,185.9c-45.5,89-53.4,94.9-122.6,94.9C575,149.9,515.7,138.1,482.1,124.2z M1203.7-342.4c57.3-31.6,69.2-142.4,31.6-328.2c-39.5-203.7-98.9-367.8-158.2-437l-45.5-51.4l-39.5,57.4c-59.3,85-136.4,314.4-162.1,484.4c-31.6,199.7-2,276.8,116.7,300.5C1013.9-302.8,1156.3-316.7,1203.7-342.4z M9175.8-344.3c53.4-29.7,63.3-144.3,27.7-326.2c-51.4-268.9-158.2-504.2-211.5-470.6c-71.2,43.5-195.8,431-201.7,620.8c-5.9,176,59.3,225.4,263,203.7C9102.6-322.6,9158-334.5,9175.8-344.3z M2137-559.9c39.5-11.9,90.9-37.6,116.7-57.3c181.9-146.3-132.5-1030.1-367.8-1030.1c-174,0-446.9,571.4-421.1,883.8c9.9,120.6,35.6,154.2,146.3,193.8C1702-536.1,2032.2-532.2,2137-559.9z M8442.2-561.8c156.2-53.4,189.8-134.4,148.3-369.7c-65.2-363.8-263-715.8-403.3-715.8c-29.7,0-77.1,19.8-106.8,45.5c-140.4,114.7-312.4,539.8-318.3,786.9c-4,116.6,2,138.4,43.5,183.9c27.7,29.7,77.1,59.3,108.7,69.2C8003.3-536.1,8365.1-536.1,8442.2-561.8z M3408.3-735.8c185.9-59.3,225.4-193.8,148.3-506.2c-69.2-288.7-189.8-537.8-330.2-676.2c-140.4-142.3-237.3-132.5-389.5,35.6c-215.5,241.2-393.5,820.5-310.4,1020.2c35.6,85,156.2,146.3,324.3,164.1C3038.6-678.5,3285.7-696.3,3408.3-735.8z M7287.6-729.9c69.2-19.8,118.6-47.5,154.2-91c51.4-61.3,53.4-71.2,43.5-223.4c-23.7-373.7-268.9-875.9-466.6-958.9c-89-35.6-158.2-9.9-261,98.9c-174,177.9-353.9,638.6-353.9,899.6c0,203.7,90.9,276.8,375.7,306.5C6943.5-680.5,7157.1-694.3,7287.6-729.9z M4693.5-874.2c71.2-21.8,110.7-51.4,144.3-100.8c43.5-61.3,45.5-83,35.6-209.6c-27.7-344-251.1-822.5-438.9-939.2c-100.8-61.3-179.9-39.6-288.7,77.1c-47.5,51.4-112.7,134.5-140.4,185.9c-122.6,207.6-247.1,646.6-221.4,785c17.8,96.9,49.4,138.4,136.4,183.9C4068.7-814.9,4485.9-805,4693.5-874.2z M5996.5-860.4c43.5-9.9,108.8-49.4,144.3-85c59.3-59.3,65.2-75.1,65.2-191.8c0-351.9-266.9-919.4-472.5-1004.4c-87-35.6-158.2-9.9-259,94.9c-172,179.9-332.2,575.4-350,864c-9.9,150.3-7.9,162.1,41.5,221.5c59.3,71.2,146.3,104.8,318.3,126.5C5622.8-818.9,5885.7-830.7,5996.5-860.4z"/></g></g>
</svg>