<?xml version="1.0" encoding="utf-8"?>
<!-- Svg Vector Icons : http://www.onlinewebfonts.com/icon -->
<!DOCTYPE svg PUBLIC "-//W3C//DTD SVG 1.1//EN" "http://www.w3.org/Graphics/SVG/1.1/DTD/svg11.dtd">
<svg version="1.1" xmlns="http://www.w3.org/2000/svg" xmlns:xlink="http://www.w3.org/1999/xlink" x="0px" y="0px" viewBox="0 0 1000 1000" enable-background="new 0 0 1000 1000" xml:space="preserve">
<metadata> Svg Vector Icons : http://www.onlinewebfonts.com/icon </metadata>
<g><g transform="translate(0.000000,511.000000) scale(0.100000,-0.100000)"><path d="M4586.2,4991.7c-186.3-15.7-411.9-58.8-502.1-94.1l-54.9-21.6v-853.1v-853.1H5000h970.8v831.6v831.6l-92.2,39.2C5592.3,4993.7,5109.8,5038.8,4586.2,4991.7z"/><path d="M4186.1,2779.4c0-131.4-5.9-156.9-33.3-166.7c-19.6-3.9-278.5-54.9-574.6-109.8c-296.2-56.9-553.1-111.8-568.8-123.6c-15.7-13.7-137.3-123.6-268.7-247.1l-241.2-223.6v-692.3V526l186.3-158.9l186.3-160.8V-1145v-1349.3l-205.9-174.6l-205.9-172.6v-651.1v-651.1l368.7-290.3c358.9-282.4,368.7-288.3,484.4-302c64.7-7.9,472.7-25.5,906.1-39.2c643.3-19.6,937.5-19.6,1578.8,0c435.4,13.7,843.3,31.4,908,39.2c115.7,13.7,123.6,17.6,476.6,302l356.9,290.3v651.1v651.1L7343.7-2667l-196.1,172.6V-1145V204.3l176.5,162.8l176.5,160.8v690.4v692.3l-258.9,245.1l-260.8,243.2l-539.3,102c-296.2,56.9-559,107.9-582.5,113.8c-41.2,9.8-45.1,21.6-45.1,164.7v154.9H5000h-813.9V2779.4z M6735.7-1194.1v-1265H5009.8H3283.9v1265v1265h1725.9h1725.9V-1194.1z"/></g></g>
</svg>