<?xml version="1.0" encoding="utf-8"?>
<!-- Svg Vector Icons : http://www.onlinewebfonts.com/icon -->
<!DOCTYPE svg PUBLIC "-//W3C//DTD SVG 1.1//EN" "http://www.w3.org/Graphics/SVG/1.1/DTD/svg11.dtd">
<svg version="1.1" xmlns="http://www.w3.org/2000/svg" xmlns:xlink="http://www.w3.org/1999/xlink" x="0px" y="0px" viewBox="0 0 1000 1000" enable-background="new 0 0 1000 1000" xml:space="preserve">
<metadata> Svg Vector Icons : http://www.onlinewebfonts.com/icon </metadata>
<g><g transform="translate(0.000000,511.000000) scale(0.100000,-0.100000)"><path d="M5159.8,4990.4c-670.2-78.2-1236.1-575.9-1408.7-1240.1c-22.1-82.3-40.1-170.6-40.1-196.6v-46.2h-913c-886.9,0-915-2-953.2-40.1c-56.2-56.2-56.2-216.7,2-289l40.1-52.2l905-4l903-6l48.2-188.6c162.5-648.1,652.2-1107.7,1338.4-1254.2l54.2-12V206.6v-1454.8l46.1-8c323.1-66.2,1147.8-88.3,1649.5-44.2c210.7,18.1,405.3,38.1,437.4,44.2l54.2,12.1V198.5v1442.8h132.4c282.9,0,461.5,184.6,596,614c118.4,377.2,170.6,886.9,134.4,1348.5c-60.2,818.7-278.9,1316.4-606,1386.6C7461.4,5016.5,5380.5,5016.5,5159.8,4990.4z"/><path d="M5135.7-3018.1c0-1246.1,4-1336.4,38.1-1410.7c52.2-114.4,212.7-256.8,355.2-313c116.4-46.2,132.4-48.2,700.3-48.2c567.9,0,583.9,2,702.3,48.2c78.3,32.1,154.5,84.3,222.7,152.5C7329-4414.8,7323-4470.9,7323-2978v1294.3l-96.3-14c-307-40.1-590-56.2-1027.4-56.2c-435.4,0-927.1,26.1-1027.4,56.2C5137.7-1687.7,5135.7-1760,5135.7-3018.1z"/></g></g>
</svg>