<?xml version="1.0" encoding="utf-8"?>
<!-- Svg Vector Icons : http://www.onlinewebfonts.com/icon -->
<!DOCTYPE svg PUBLIC "-//W3C//DTD SVG 1.1//EN" "http://www.w3.org/Graphics/SVG/1.1/DTD/svg11.dtd">
<svg version="1.1" xmlns="http://www.w3.org/2000/svg" xmlns:xlink="http://www.w3.org/1999/xlink" x="0px" y="0px" viewBox="0 0 1000 1000" enable-background="new 0 0 1000 1000" xml:space="preserve">
<metadata> Svg Vector Icons : http://www.onlinewebfonts.com/icon </metadata>
<g><g transform="translate(0.000000,511.000000) scale(0.100000,-0.100000)"><path d="M3815.7,4984c-480.4-87-860-496.3-972.7-1047.9c-35.6-168-39.5-247.1-31.6-543.7c7.9-304.5,15.8-375.7,71.2-591.2c37.6-150.3,69.2-342,83-494.3c23.7-294.6,55.4-448.8,138.4-644.5c144.3-350,478.4-688,761.2-773c140.4-41.5,2131.3-41.5,2273.6,2c205.6,61.3,500.2,314.4,650.5,563.5c154.2,253.1,215.5,464.6,247.1,856.1c9.9,140.4,41.5,336.1,67.2,436.9c81,310.4,96.9,456.7,85,804.7c-15.8,523.9-140.4,860-417.2,1134.9c-296.6,290.6-668.3,383.6-1142.8,282.7c-292.6-63.3-840.3-63.3-1233.7,0C4078.6,5019.6,4021.3,5021.6,3815.7,4984z M6198.1,4325.7c336.1-172,452.8-761.2,286.7-1427.5c-37.6-146.3-71.2-348-83-494.3c-9.9-134.4-27.7-286.7-39.5-336.1c-43.5-197.7-174-407.3-318.3-512.1l-83-61.3H5000h-962.8l-79.1,57.3c-90.9,65.3-207.6,217.5-263,342.1c-53.4,122.6-73.2,227.4-98.9,512.1c-11.9,144.3-47.4,353.9-81.1,494.3c-85,340-100.8,688-39.5,925.3c61.3,243.2,172,409.3,328.2,490.3c89,47.4,308.4,53.4,561.5,15.8c520-77.1,972.7-73.2,1346.4,9.9C5917.3,4386.9,6087.4,4381,6198.1,4325.7z"/><path d="M3825.6,424.9c-100.8-79.1-110.7-124.6-110.7-506.1c0-310.4,4-359.8,37.6-413.2C3829.5-623,3815.7-621,4988.1-621c1170.4,0,1162.5,0,1237.7,122.6c35.6,59.3,39.5,98.9,39.5,417.2c0,391.5-13.8,452.8-116.7,514.1c-53.4,29.6-156.2,33.6-1164.5,33.6C3892.8,466.4,3877,466.4,3825.6,424.9z"/><path d="M4134-917.6c-89-55.4-142.4-150.3-142.4-257c0-90.9,128.5-945,144.3-960.9c4-5.9,425.1,193.8,935.2,442.9l927.2,450.8l-2,92.9c0,110.7-47.5,185.9-148.3,235.3c-61.3,31.6-144.3,35.6-858.1,35.6C4234.8-878,4195.3-880,4134-917.6z"/><path d="M5067.2-2105.8c-466.6-229.4-854.1-421.1-862-429c-9.9-11.9,59.3-531.8,73.2-553.6c2-2,353.9,168.1,782.9,377.6l779,381.6l47.5,312.4c25.7,170,43.5,314.3,37.6,318.3C5921.3-1692.6,5535.8-1876.5,5067.2-2105.8z"/><path d="M5045.4-3124c-612.9-300.5-697.9-348-697.9-387.5c2-65.2,71.2-488.3,83-500.2c5.9-5.9,286.7,124.6,622.8,288.6l612.9,298.6l45.5,290.6c23.7,158.2,47.5,304.5,53.4,324.2c4,17.8,2,33.6-7.9,31.7C5749.3-2778,5427-2934.2,5045.4-3124z"/><path d="M5041.5-4132.3c-298.5-146.3-545.7-268.9-549.6-272.9c-5.9-3.9,0-59.3,11.9-122.6c17.8-91,37.6-132.5,91-185.9l69.2-69.2l302.5-5.9c259-4,310.4,0,367.8,29.7c120.6,63.3,138.4,106.8,201.7,508.1c31.6,205.6,55.4,375.7,53.4,377.6C5585.2-3869.4,5340-3988,5041.5-4132.3z"/></g></g>
</svg>