<?xml version="1.0" encoding="utf-8"?>
<!-- Svg Vector Icons : http://www.onlinewebfonts.com/icon -->
<!DOCTYPE svg PUBLIC "-//W3C//DTD SVG 1.1//EN" "http://www.w3.org/Graphics/SVG/1.1/DTD/svg11.dtd">
<svg version="1.1" xmlns="http://www.w3.org/2000/svg" xmlns:xlink="http://www.w3.org/1999/xlink" x="0px" y="0px" viewBox="0 0 1000 1000" enable-background="new 0 0 1000 1000" xml:space="preserve">
<metadata> Svg Vector Icons : http://www.onlinewebfonts.com/icon </metadata>
<g><g transform="translate(0.000000,511.000000) scale(0.100000,-0.100000)"><path d="M4604.8,4986.3c-489.7-93.9-905.5-311.8-1243.3-651.6c-747.6-751.6-889.5-1890.9-349.8-2806.4c349.8-593.7,995.4-1023.4,1663-1107.4l115.9-14l6-815.5l4-813.5h-99.9c-81.9,0-109.9-10-167.9-60c-107.9-95.9-283.8-471.7-339.8-733.6l-14-62l175.9-18c225.9-20,1133.3-20,1311.2,0c88,12,133.9,26,133.9,44c0,60-105.9,383.8-171.9,521.7c-38,82-103.9,183.9-145.9,227.9c-70,74-84,80-177.9,80h-103.9v809.5c0,631.6,6,811.5,26,817.5c12,4,93.9,18,179.9,30c431.8,68,899.5,309.8,1229.3,639.6C7693,2132,7485.1,3891,6211.8,4676.5c-197.9,121.9-403.8,207.9-649.6,271.8C5322.4,5010.3,4838.6,5030.3,4604.8,4986.3z M5450.3,4424.7c281.9-78,591.7-257.9,797.5-461.7c681.6-681.6,705.6-1757,54-2450.6c-245.9-261.8-503.7-419.8-853.5-519.7c-133.9-38-201.9-46-457.7-44c-265.8,2-319.8,8-475.7,54c-333.8,101.9-573.7,251.9-815.5,509.7c-167.9,177.9-271.9,343.8-357.8,567.7c-385.8,999.4,229.9,2126.8,1289.3,2362.6C4812.6,4482.6,5276.4,4472.6,5450.3,4424.7z"/><path d="M4474.8,3221.4l-915.5-917.5l30-84c74-209.9,285.8-531.7,385.8-591.7c24-12,273.8,225.9,1077.4,1029.4c575.7,575.7,1047.4,1053.4,1047.4,1061.4c0,34-287.8,245.9-429.8,317.8C5386.3,4174.8,5518.2,4264.8,4474.8,3221.4z"/><path d="M5332.3,2357.9l-995.4-995.4l66-26c38-14,107.9-36,157.9-52l89.9-28l901.5,901.5l903.5,903.5l-52,147.9c-28,80-56,145.9-62,145.9C6333.8,3355.3,5882,2907.6,5332.3,2357.9z"/><path d="M4141-3392.8c0-585.7,8-1025.4,20-1067.4c30-105.9,127.9-209.9,255.8-273.8l113.9-56h469.7h469.7l102,54c119.9,62,219.9,175.9,247.8,275.8c12,42,20,481.7,20,1067.4v995.4l-54-10c-32-6-219.9-22-421.7-36c-349.8-22-901.5-6-1147.3,34l-76,14V-3392.8z"/></g></g>
</svg>