<?xml version="1.0" encoding="utf-8"?>
<!-- Svg Vector Icons : http://www.onlinewebfonts.com/icon -->
<!DOCTYPE svg PUBLIC "-//W3C//DTD SVG 1.1//EN" "http://www.w3.org/Graphics/SVG/1.1/DTD/svg11.dtd">
<svg version="1.1" xmlns="http://www.w3.org/2000/svg" xmlns:xlink="http://www.w3.org/1999/xlink" x="0px" y="0px" viewBox="0 0 1000 1000" enable-background="new 0 0 1000 1000" xml:space="preserve">
<metadata> Svg Vector Icons : http://www.onlinewebfonts.com/icon </metadata>
<g><g transform="translate(0.000000,511.000000) scale(0.100000,-0.100000)"><path d="M3491.1,3176.6l-1514.7-908.1l-5.8-1808.3l-3.9-1806.4l-70-44.7l-68.1-44.7l-299.4,177c-165.3,95.3-303.3,175-309.2,175c-3.9,0-13.6-23.3-21.4-52.5c-5.8-31.1-25.3-68.1-40.8-85.6c-23.3-27.2,5.8-48.6,264.4-194.4l289.7-163.3l1.9-348.1c0-340.3,0-346.1,38.9-336.4c23.3,5.8,66.1,3.9,97.2-5.8l58.3-17.5v357.8v357.8l89.4,60.3c48.6,35,101.1,56.4,118.6,50.5c15.6-5.8,672.8-398.6,1458.3-869.2C4688.9-2999,5011.7-3183.7,5038.9-3172c19.5,9.7,705.8,420,1524.5,912l1489.4,894.4V403.8v1769.4l68.1,44.7c37,23.3,72,42.8,77.8,42.8s138-73.9,293.6-165.3s289.7-165.3,299.5-165.3c11.7,0,19.4,15.6,19.4,35c0,19.4,13.6,54.4,31.1,79.7c17.5,25.3,25.3,50.6,15.6,60.3c-9.7,9.7-136.1,85.6-280,171.1L8315.3,2428l-5.8,418.1l-3.9,416.1l256.7,151.7c141.9,81.7,270.3,157.5,285.8,167.2c21.4,13.6,21.4,25.3-5.8,62.2c-17.5,25.3-31.1,66.1-31.1,91.4c0,25.3-7.8,42.8-15.6,38.9c-9.7-1.9-167.2-93.3-350-200.3l-334.4-194.4l-3.9-501.7l-5.8-501.7l-58.3-36.9l-58.3-35l-1438.9,863.3c-791.4,476.4-1462.2,876.9-1489.4,892.5C5007.8,4084.6,4957.2,4057.4,3491.1,3176.6z M6370.8,2892.7l1330-797.2l1.9-1645v-1645l-1351.4-810.8L5000-2816.2l-1351.4,810.8l-1351.4,810.8v1645l1.9,1645L3635,2896.6c735,441.4,1351.4,801.1,1370.8,797.2C5023.3,3691.9,5637.8,3332.1,6370.8,2892.7z"/><path d="M3969.4,2251c-427.8-97.2-744.7-418.1-873.1-880.8c-128.3-468.6-93.3-1199.7,85.6-1744.2c128.3-390.8,313.1-711.7,567.8-982c390.8-416.1,808.9-527,1024.7-272.2c27.2,33.1,56.4,85.5,64.2,112.8c15.6,58.3,15.6,73.9-3.9,462.8c-11.7,219.7-7.8,305.3,17.5,433.6c33.1,157.5,83.6,293.6,110.8,293.6c23.3,0,93.3-231.4,116.7-388.9c15.6-95.3,17.5-262.5,9.7-476.4c-11.7-318.9-9.7-332.5,33.1-408.3c83.6-147.8,231.4-208.1,410.3-167.2c167.2,37,334.4,149.7,567.8,381.1c410.3,408.3,696.1,937.2,826.4,1530.3c56.4,260.6,72,816.7,29.2,1061.7c-77.8,451.1-311.1,801.1-637.8,966.4c-252.8,126.4-478.3,136.1-919.7,38.9c-293.6-64.2-431.7-64.2-709.7,0C4414.7,2276.3,4144.4,2289.9,3969.4,2251z M4620.8,1938c344.2-77.8,439.4-79.7,797.2-5.8c190.6,36.9,371.4,62.2,468.6,62.2c140,1.9,173.1-5.8,285.8-60.3c231.4-114.7,410.3-357.8,491.9-674.7c54.5-204.2,48.6-762.2-7.8-1034.4c-101.1-474.5-309.2-900.3-620.3-1273.6c-215.8-258.6-460.8-443.3-591.1-443.3c-93.3,0-103.1,29.2-73.9,215.8c46.7,297.5-23.3,814.7-142,1048.1c-99.2,194.4-239.2,260.5-386.9,184.7c-211.9-110.8-344.2-633.9-289.7-1153c23.3-231.4,21.4-245-11.7-272.2c-75.8-56.4-252.8,11.7-449.2,169.2c-245,200.3-491.9,577.5-624.2,956.7c-200.3,569.7-225.6,1339.7-58.3,1767.5c93.3,239.2,254.7,412.2,470.6,505.6C4086.1,2017.7,4257.2,2019.6,4620.8,1938z"/><path d="M4266.9,1724.1c-15.6-44.7,27.2-77.8,159.4-120.5c334.4-110.8,756.4-105,1182.2,17.5c114.7,35,130.3,44.7,130.3,85.6c0,60.3-11.7,60.3-247-1.9c-344.2-89.4-766.1-85.6-1051.9,13.6C4309.7,1763,4282.5,1764.9,4266.9,1724.1z"/><path d="M8941.4,3870.7c-17.5-13.6-37-48.6-42.8-77.8c-9.7-40.8-1.9-64.2,37-101.1c27.2-29.2,66.1-50.6,89.4-50.6c97.2,0,155.6,153.6,81.7,219.7C9063.9,3899.9,8986.1,3903.8,8941.4,3870.7z"/><path d="M9207.8,3670.5l-40.8-87.5l278-159.4l280-161.4l-5.8-416.1l-3.9-414.2l-262.5-153.6c-143.9-83.6-268.3-155.6-276.1-157.5c-7.8-3.9,3.9-46.7,29.2-95.3l42.8-91.4l326.7,165.3l324.7,165.3l-3.9,558.1l-5.8,556.1l-311.1,188.6c-171.1,105-315,188.6-320.8,188.6S9231.1,3717.1,9207.8,3670.5z"/><path d="M8916.1,1998.2c-40.8-60.3-23.3-134.2,40.8-176.9c79.7-52.5,184.7,7.8,184.7,106.9C9141.7,2043,8978.3,2093.5,8916.1,1998.2z"/><path d="M8713.9,1486.9l-320.8-190.6l-5.8-392.8l-3.9-390.8L8712,316.3L9042.5,118l330.6,198.3l332.5,200.3v385v385L9376.9,1483c-180.8,106.9-332.5,194.4-336.4,194.4C9038.6,1677.4,8890.8,1591.9,8713.9,1486.9z M9394.4,1288.5l145.8-89.4V899.6V600.2l-248.9-149.7l-250.8-149.7l-250.8,149.7l-248.9,147.8l-1.9,301.4V1201l248.9,147.8l247,147.8l106.9-58.3C9200,1405.2,9314.7,1339.1,9394.4,1288.5z"/><path d="M901.1-992.3c-23.3-25.3-42.8-64.2-42.8-87.5c0-107,163.3-163.3,221.7-77.8c42.8,60.3,38.9,124.4-11.7,171.1C1011.9-935.9,953.6-937.9,901.1-992.3z"/><path d="M424.7-1284L100-1482.3v-515.3v-515.3l418.1-248.9l418.1-246.9v-243.1v-243.1h68.1h68.1v241.1v241.1l268.3,157.5c145.8,85.5,280,165.3,295.6,175c23.3,17.5,21.4,27.2-15.6,66.1c-23.3,25.3-42.8,54.4-42.8,68.1c0,52.5-52.5,33.1-301.4-112.8c-145.8-85.6-272.2-155.6-281.9-155.6c-7.8,0-167.2,89.4-353.9,200.3l-336.4,200.3v414.2v416.1l276.1,165.3l278.1,163.3l-38.9,48.6c-21.4,27.2-38.9,62.2-38.9,75.8c0,13.6-7.8,29.2-15.6,35C755.3-1089.5,601.7-1175.1,424.7-1284z"/><path d="M675.6-1511.5c-128.3-73.9-239.2-141.9-248.9-151.7c-19.4-19.4,0-81.7,25.3-81.7c9.7,0,130.3,64.2,266.4,143.9c173.1,101.1,246.9,155.6,246.9,178.9C965.3-1357.9,910.8-1373.4,675.6-1511.5z"/><path d="M1500-1997.6v-311.1h48.6h48.6v311.1v311.1h-48.6H1500V-1997.6z"/><path d="M467.5-2271.8c-11.7-21.4-17.5-42.8-13.6-46.7c3.9-3.9,122.5-70,264.4-147.8c210-112.8,264.4-134.2,278.1-112.8c31.1,48.6,19.4,68.1-64.2,108.9c-46.7,23.3-165.3,87.5-262.5,140C494.7-2234.8,488.9-2232.9,467.5-2271.8z"/><path d="M2316.7-2479.8l-320.8-188.6l-5.8-388.9l-3.9-388.9l332.5-200.3l332.5-198.3l328.6,196.4l328.6,198.3v390.8v390.8l-315,184.7c-171.1,101.1-322.8,186.7-334.4,190.5C2647.2-2291.2,2493.6-2374.8,2316.7-2479.8z M2901.9-2612.1l250.8-147.8l-3.9-303.3l-5.8-303.3l-233.3-141.9c-128.3-77.8-243.1-140-256.7-141.9c-13.6,0-132.2,66.1-266.4,147.8l-245,145.8v297.5v295.5l248.9,147.8c136.1,81.7,248.9,149.7,252.8,149.7C2647.2-2464.3,2761.9-2530.4,2901.9-2612.1z"/><path d="M1698.3-2378.7c-89.4-62.2-35-221.7,75.8-221.7c58.3,0,83.6,17.5,112.8,72c31.1,60.3,27.2,79.7-27.2,132.2C1805.3-2339.8,1760.6-2335.9,1698.3-2378.7z"/></g></g>
</svg>