<?xml version="1.0" encoding="utf-8"?>
<!-- Svg Vector Icons : http://www.onlinewebfonts.com/icon -->
<!DOCTYPE svg PUBLIC "-//W3C//DTD SVG 1.1//EN" "http://www.w3.org/Graphics/SVG/1.1/DTD/svg11.dtd">
<svg version="1.1" xmlns="http://www.w3.org/2000/svg" xmlns:xlink="http://www.w3.org/1999/xlink" x="0px" y="0px" viewBox="0 0 1000 1000" enable-background="new 0 0 1000 1000" xml:space="preserve">
<metadata> Svg Vector Icons : http://www.onlinewebfonts.com/icon </metadata>
<g><g transform="translate(0.000000,511.000000) scale(0.100000,-0.100000)"><path d="M2640.1,4980.4c-252-46-580-158-817.9-280c-879.9-448-1407.9-1315.9-1571.9-2587.8c-68-536-60-1411.9,22-2049.8C476.3-1537.1,1112.2-2925,2078.1-3887c895.9-889.9,1807.9-1123.9,2325.8-594c170,174,270,492,236,753.9c-8,60-30,222-50,360c-42,302-32,955.9,20,1259.9c58,352,164,690,258,823.9c30,42,32,40,90-86c238-510,354-1587.9,240-2229.8c-64-370-32-594,124-825.9c200-302,603.9-434,1005.9-330c845.9,218,2037.8,1473.9,2709.8,2857.8c397.9,817.9,630,1619.9,722,2499.8c36,358,48,1019.9,22,1339.9c-102,1247.9-566,2149.8-1395.9,2705.8c-190,128-435.9,238-661.9,298c-154,40-258,54-510,60c-392,14-561.9-8-1215.9-144c-865.9-182-993.9-186-1621.9-38c-681.9,158-759.9,170-1175.9,178C2904.1,5008.4,2768.1,5004.4,2640.1,4980.4z M3790,4256.4c154-34,380-84,500-112c681.9-160,893.9-152,1979.9,78c380,80,482,94,749.9,104c332,10,480-8,703.9-94c254-96,628-398,834-678c266-357.9,430-797.9,513.9-1373.9c68-460,46-1375.9-48-1937.8l-34-200l-270-10c-328-12-382-36-464-198c-32-60-56-128-56-152c0-32-38-60-170-126c-94-46-184-84-202-84c-18,0-98,54-178,120c-80,66-158,120-170,120c-48,0-282-184-360-282c-44-56-84-130-92-170c-14-80-62-118-278-222c-172-82-166-84-262,80c-90,154-194,202-464,210l-208,8l-148-146c-80-80-150-142-154-136c-4,4-36,50-70,100c-262,388-678,438-997.9,120c-54-56-132-158-174-230c-42-72-82-132-90-132c-6,0-88,104-178,230c-92,126-178,230-192,230c-14,0-104-18-202-40c-100-20-184-32-192-24c-6,8-26,68-46,134c-24,74-60,140-96,174c-56,52-634,358-670,354c-8,0-78-78-156-170c-156-190-176-202-394-274l-154-50l-166,100c-218,132-410,228-490,244c-46,10-86,2-146-28c-46-24-86-40-90-36c-4,4-20,100-38,216c-114,780-118,1647.9-10,2277.8c158,925.9,564,1553.9,1203.9,1859.9c200,96,314,134,534,184C2960.1,4352.4,3416,4336.4,3790,4256.4z M8911.6-297.2c-6-18-24-84-42-148c-44-172-182-566-274-781.9C8199.7-2161.1,7565.7-3059,6907.8-3623c-574-492-999.9-624-1059.9-330c-6,34,4,132,22,218c24,108,38,288,44,569.9c16,636-42,1151.9-186,1663.9l-74,258l138,138c136,136,138,138,244,138c134,0,168-18,232-126c28-50,82-116,120-150c130-112,250-104,543.9,36c206,98,330,218,376,356c36,108,138,216,178,190c14-8,86-62,160-122l136-110l354,172l354,172l4,94c8,194,0,188,228,188C8895.6-267.2,8921.6-271.2,8911.6-297.2z M3106.1-705.2c18-62,44-168,56-238c20-96,32-122,58-114c16,4,132,30,256,58l224,48l136-182c74-102,156-212,180-246l44-62l-50-194c-96-378-120-617.9-120-1201.9c2-418,10-584,36-734c50-288,46-366-22-436c-78-76-176-92-336-54c-490,122-1131.9,675.9-1623.9,1405.9c-208,308-476,843.9-622,1243.9c-86,236-242,765.9-242,823.9c0,18,32,50,70,70c66,36,72,36,142,4c40-20,182-102,316-184l244-148l210,62c304,88,400,138,518,278l104,118l196-102l196-102L3106.1-705.2z"/><path d="M3130.1,3582.5c-64-62-66-148-4-206c96-90,554-240,933.9-306c789.9-136,1617.9-72,2549.8,194c252,74,330,124,330,214c0,62-50,128-106,142c-30,6-152-20-308-68c-562-168-1061.9-242-1623.9-242c-580,0-1093.9,86-1491.9,252c-94,38-184,70-202,70C3192.1,3632.5,3156.1,3610.5,3130.1,3582.5z"/><path d="M7415.7-1607.1c-66-96-66-100-16-198c44-86,70-102,180-102c70,0,84,10,136,86l60,84l-48,96c-30,56-62,94-84,94c-18,0-66,6-104,10C7475.7-1527.1,7465.7-1533.1,7415.7-1607.1z"/><path d="M6883.8-2297.1l-88-128l66-142c70-152,66-150,268-168l120-12l92,132l94,132l-66,142l-66,144l-98,14C6983.8-2153.1,6977.8-2155.1,6883.8-2297.1z"/><path d="M2122.1-1045.2l-250-74l-64-268l-66-270l196-198l196-196l268,76c148,40,272,76,274,80c4,2,38,124,76,272l66,266l-194,196c-106,106-206,194-224,192C2384.1-969.2,2258.1-1003.2,2122.1-1045.2z M2418.1-1375.2c66-68,66-68,42-172c-26-108-54-132-190-154c-50-8-72,4-128,62l-68,70l24,110c22,102,28,110,98,128C2320.1-1299.2,2350.1-1305.2,2418.1-1375.2z"/><path d="M3106.1-1741.1c-100-30-104-32-128-130l-24-100l78-76l78-76l102,30c100,28,102,32,126,132l24,102l-76,74l-76,74L3106.1-1741.1z"/><path d="M2780.1-2555.1l-150-42l-40-156l-38-154l112-114l114-112l136,36c74,18,146,46,158,58c12,12,38,84,56,160l34,140l-116,114l-116,114L2780.1-2555.1z"/></g></g>
</svg>