<?xml version="1.0" encoding="utf-8"?>
<!-- Svg Vector Icons : http://www.onlinewebfonts.com/icon -->
<!DOCTYPE svg PUBLIC "-//W3C//DTD SVG 1.1//EN" "http://www.w3.org/Graphics/SVG/1.1/DTD/svg11.dtd">
<svg version="1.1" xmlns="http://www.w3.org/2000/svg" xmlns:xlink="http://www.w3.org/1999/xlink" x="0px" y="0px" viewBox="0 0 1000 1000" enable-background="new 0 0 1000 1000" xml:space="preserve">
<metadata> Svg Vector Icons : http://www.onlinewebfonts.com/icon </metadata>
<g><g transform="translate(0.000000,511.000000) scale(0.100000,-0.100000)"><path d="M1119.4,3212.5c68.7-92.2,455.1-421.8,1079-922.1l347.2-278.6l-76.5-123.6c-72.6-113.8-76.5-121.6-37.3-127.5c23.5-3.9,206,2,408.1,13.7c202.1,11.8,394.3,21.6,429.6,21.6s62.8,9.8,62.8,19.6c0,37.3-359,824-374.7,824c-9.8,0-47.1-49-86.3-107.9c-37.3-58.9-74.5-107.9-80.4-107.9s-190.3,94.2-408.1,208c-215.8,115.7-465,247.2-551.3,292.3c-239.3,127.5-669,323.7-706.3,323.7C1097.8,3247.8,1097.8,3241.9,1119.4,3212.5z"/><path d="M8952.9,2890.8c-296.2-100-645.4-229.5-1080.9-400.2c-259-102-480.7-184.4-490.5-184.4c-11.8,0-45.1,53-76.5,117.7c-31.4,64.7-64.7,115.7-74.5,111.8c-19.6-5.9-425.7-776.9-425.7-810.2c0-19.6,329.6-62.8,771-100.1l155-11.8l-60.8,119.7c-33.3,66.7-60.8,127.5-60.8,137.3s160.9,117.7,359,239.3c490.5,306,1092.7,710.2,1149.6,773l47.1,51l-47.1-2C9092.2,2932,9017.6,2912.3,8952.9,2890.8z"/><path d="M4001.3,1862.8c-311.9-84.4-565-290.3-706.2-576.8c-127.5-260.9-160.9-423.8-172.6-822c-11.8-400.2,11.8-659.2,94.2-978.9c131.4-517.9,368.8-935.8,712.1-1253.6c364.9-341.3,757.3-398.2,927.9-139.3c51,74.6,54.9,94.2,47.1,229.5c-15.7,306-7.8,700.4,15.7,786.7c31.4,115.8,82.4,235.4,102,235.4c23.5,0,92.2-231.5,117.7-392.4c15.7-96.1,17.7-259,9.8-468.9c-11.8-317.8-11.8-321.7,37.3-404.1c56.9-98.1,178.5-166.8,290.4-166.8c355.1,0,912.2,537.5,1230.1,1186.9c172.6,355.1,260.9,682.7,296.2,1102.5c47.1,598.4-74.6,1067.2-361,1371.3c-300.2,321.7-594.4,386.5-1192.8,262.9c-155-31.4-315.8-58.9-357-58.9c-39.2,0-192.3,27.5-337.4,58.9C4454.5,1902,4183.7,1911.8,4001.3,1862.8z M4729.1,1558.7c323.7-68.7,410-68.7,794.5,11.8c145.2,29.4,304.1,49,404.1,49c143.2,0,178.5-7.8,284.5-58.9c149.1-76.5,313.9-251.1,394.3-417.9c109.9-235.4,151-557.2,119.7-935.8c-35.3-406.1-125.6-718-311.9-1073.1C6275-1129,6120-1335,5914-1535.1c-196.2-188.3-366.9-292.3-445.3-272.7l-47.1,11.8v398.3c0,349.2-5.9,419.8-43.2,570.9c-72.6,278.6-162.8,423.8-294.3,466.9c-139.3,45.1-292.3-72.6-376.7-290.3c-90.2-235.4-125.5-659.2-80.4-943.6c27.5-158.9,5.9-200.1-94.2-200.1c-235.4,0-637.6,384.5-853.4,814.2C3489.2-601.3,3410.8-256,3397,256c-7.8,325.7-3.9,398.2,31.4,567c84.4,410,272.7,647.4,600.3,761.2C4181.8,1637.2,4403.5,1629.3,4729.1,1558.7z"/><path d="M4303.4,1317.4c-82.4-60.8,74.5-145.2,372.7-202.1c229.5-45.1,641.5-25.5,910.3,43.2c113.8,27.5,217.8,58.9,231.5,72.6c31.4,25.5,33.3,88.3,2,98.1c-11.8,3.9-119.7-17.7-239.3-49c-388.4-100.1-822-94.2-1124.1,15.7C4360.3,1329.2,4326.9,1335,4303.4,1317.4z"/><path d="M3838.4,1199.7c-72.6-70.6-102-121.6-133.4-221.7c-21.6-70.6-39.2-151.1-39.2-180.5c0-27.5-7.9-80.4-17.7-113.8c-23.5-80.4-9.8-88.3,115.7-72.6c82.4,11.8,100.1,19.6,109.9,60.8c9.8,33.3,0,66.7-29.4,104c-51,70.6-53,143.2-3.9,211.9c49,72.6,105.9,227.6,96.1,270.7C3932.6,1286,3913,1274.2,3838.4,1199.7z"/><path d="M6222.1,1076.1c-15.7-43.2,27.5-202.1,68.7-247.2c25.5-29.4,27.5-41.2,7.9-68.7c-56.9-78.5-66.7-121.6-54.9-209.9c7.8-49,21.6-88.3,31.4-84.4c9.8,3.9,60.8,56.9,115.8,119.7c90.2,102,100,123.6,100,206c0,107.9-45.1,192.3-143.2,266.8C6271.1,1117.3,6239.7,1123.2,6222.1,1076.1z"/><path d="M3805.1,483.6c-105.9-13.7-149.1-66.7-92.2-111.8c60.8-43.2,135.4-33.3,194.2,27.5c29.4,29.4,53,64.7,53,78.5C3960.1,503.2,3946.3,503.2,3805.1,483.6z"/><path d="M5910.1,373.8c-17.6-49-35.3-88.3-39.2-88.3c-2,0-29.4,9.8-58.9,19.6c-60.8,23.5-380.6-13.7-380.6-43.2c0-37.3,68.7-133.4,94.2-133.4c13.7,0,51,19.6,82.4,41.2l56.9,43.2l84.4-49c88.3-53,294.3-88.3,368.8-64.7c39.2,11.8,115.8,143.2,117.7,200.1c0,13.7-29.4,37.3-62.8,51c-35.3,15.7-82.4,47.1-102,70.6C6006.2,491.5,5949.3,475.8,5910.1,373.8z"/><path d="M6479.1,334.5c-5.9-15.7-27.5-33.4-47.1-39.2c-19.6-5.9-68.7-88.3-119.7-198.1c-104-231.5-170.7-294.3-292.3-272.7c-43.2,7.9-117.7,33.3-166.8,58.8l-86.3,47.1l-41.2-51c-21.6-27.5-45.1-74.5-53-102c-5.9-27.5-15.7-56.9-19.6-66.7c-15.7-25.5-82.4,25.5-145.2,113.8l-62.8,88.3h-182.5c-100,0-206-9.8-237.4-21.6l-54.9-23.5l88.3-23.6c200.1-53,266.8-115.8,351.2-325.6C5525.6-772,5578.6-1078,5557-1344.8c-25.5-294.3,27.5-325.7,217.8-129.5c221.7,227.6,519.9,735.7,688.6,1175.1c62.8,160.9,66.7,184.4,66.7,417.9c0,155-7.9,245.2-19.6,245.2S6484.9,350.2,6479.1,334.5z"/><path d="M3595.2,177.6c-51-351.2,56.9-761.2,331.6-1263.4c147.1-268.8,349.2-470.8,519.9-521.8c39.2-11.8,43.2-5.9,43.2,68.7c0,45.1-13.7,137.3-31.4,204c-66.7,247.2-33.3,439.4,151.1,878.9c53,125.5,96.1,247.2,96.1,270.7c0,39.2-5.9,43.2-62.8,27.5c-35.3-7.9-100-17.7-143.2-19.6c-43.2-2-88.3-3.9-102-5.9c-11.8-2-33.3-33.3-45.1-72.6c-13.7-37.3-35.3-74.6-49-78.5c-41.2-17.7-137.3,43.1-221.7,139.3c-74.6,84.4-121.6,111.8-121.6,68.7c0-9.8-21.6-23.5-49-31.4c-66.7-17.7-141.3,35.3-156.9,111.8c-7.9,33.3-43.2,123.6-78.5,200.1l-64.7,141.3L3595.2,177.6z"/><path d="M1953.1,601.3c13.7-162.8,84.4-135.4-563-217.8C852.6,316.9,218.9,216.8,138.5,185.4c-45.1-17.7-49-23.5-19.6-39.2C181.6,110.9,691.7,65.8,1753-0.9c123.6-7.9,221.7-21.6,229.5-35.3c7.8-11.8,15.7-76.5,15.7-145.2c0-76.5,7.8-121.6,19.6-117.7c47.1,15.7,723.9,557.1,718,574.8c-5.9,23.5-737.6,461-771,461C1947.3,736.7,1945.3,699.4,1953.1,601.3z"/><path d="M7614.9,242.3c-196.2-155-355.1-288.4-351.2-300.2c5.9-23.5,737.6-461,769-461c15.7,0,19.6,43.2,11.8,135.4c-9.8,160.8-47.1,141.2,349.2,188.3c649.4,78.5,1438,204,1498.8,241.3c78.5,45.1-468.9,104-1636.2,172.6c-131.4,7.8-231.5,21.6-239.3,35.3c-7.8,11.8-15.7,76.5-15.7,145.2c0,66.7-5.9,121.6-15.7,121.6C7977.9,520.9,7811.1,395.3,7614.9,242.3z"/><path d="M2331.8-1521.3c33.4-64.8,58.9-125.6,54.9-135.4c-3.9-9.8-176.6-123.6-386.5-255C1501.9-2223.7,940.8-2600.4,882-2665.1c-45.1-47.1-45.1-51-9.8-51c80.4,0,804.3,260.9,1465.5,527.7l290.4,117.7l62.8-127.5c33.4-68.7,68.7-123.6,78.5-119.7c23.5,7.9,437.5,812.2,425.7,824c-9.8,11.8-778.8,92.2-869.1,92.2h-53L2331.8-1521.3z"/><path d="M7089.2-1558.6c-117.7-7.9-262.9-15.7-317.8-17.7c-56.9,0-104-11.8-104-21.6c0-37.3,359-824,374.7-824c9.8,0,47.1,49.1,86.3,107.9c37.3,58.8,74.6,107.9,80.4,107.9c7.9,0,176.6-86.3,378.7-194.2c747.4-396.3,1281.1-651.3,1308.5-625.8c25.5,25.5-370.8,370.8-1053.5,920.1l-392.4,313.9l37.3,53c19.6,29.4,56.9,86.3,80.4,127.5l45.1,72.6l-155-3.9C7373.6-1544.9,7208.8-1552.7,7089.2-1558.6z"/></g></g>
</svg>