<?xml version="1.0" encoding="utf-8"?>
<!-- Svg Vector Icons : http://www.onlinewebfonts.com/icon -->
<!DOCTYPE svg PUBLIC "-//W3C//DTD SVG 1.1//EN" "http://www.w3.org/Graphics/SVG/1.1/DTD/svg11.dtd">
<svg version="1.1" xmlns="http://www.w3.org/2000/svg" xmlns:xlink="http://www.w3.org/1999/xlink" x="0px" y="0px" viewBox="0 0 1000 1000" enable-background="new 0 0 1000 1000" xml:space="preserve">
<metadata> Svg Vector Icons : http://www.onlinewebfonts.com/icon </metadata>
<g><g transform="translate(0.000000,511.000000) scale(0.100000,-0.100000)"><path d="M8339.1,4171.4l-92.4-281.1l-259.5-84.5c-143.5-47.2-267.4-90.4-275.2-98.3c-7.8-7.9,102.2-51.1,245.7-98.3c141.6-47.2,269.4-94.4,281.1-108.1c13.7-11.8,60.9-137.6,108.1-281.1c47.2-143.5,90.4-255.6,96.3-249.7c5.9,5.9,51.1,131.7,100.3,279.2l90.4,269.3l283.1,90.4c190.7,62.9,271.3,96.3,249.7,106.2c-19.7,7.9-147.5,51.1-285.1,94.4l-251.6,82.6l-90.4,269.3c-49.1,149.4-94.4,275.2-98.3,279.1C8435.4,4446.7,8390.2,4324.8,8339.1,4171.4z"/><path d="M3214,3200.3c-1887.3-570.1-1755.5-519-1849.9-709.7c-39.3-78.6-43.2-123.9-53.1-599.6c-27.5-1421.4,206.4-2752.3,619.3-3532.7c157.3-296.9,395.1-674.3,560.3-886.6c171-224.1,593.7-648.7,821.7-831.6c452.2-357.8,939.7-627.1,1435.1-792.2l204.5-68.8l173,51.1c511.1,153.3,1097,479.7,1568.8,872.8c233.9,194.6,623.2,595.7,778.5,802.1c155.3,208.4,397.1,587.8,528.8,837.5c387.3,733.3,613.3,1877.4,625.1,3161.2c7.9,825.7-7.8,967.2-127.8,1106.8l-64.9,74.7l-1737.9,519c-957.4,287-1743.8,519-1749.6,519C4940,3721.3,4159.6,3487.3,3214,3200.3z M6424.3,2594.8c1026.2-308.7,1403.7-428.6,1439.1-462c116-108.1,117.9-125.8,117.9-865c-2-591.7-7.9-721.5-47.2-1012.4c-98.3-731.3-241.8-1256.2-458.1-1661.2c-151.4-287-446.3-717.5-631.1-924c-458-513.1-1081.2-933.8-1676.9-1132.3l-204.5-68.8l-204.4,68.8C4252-3293.1,3742.8-2972.6,3304.4-2546c-247.7,239.8-403,428.6-572.1,688.1c-344,530.8-493.4,898.4-629.1,1533.4c-112.1,534.7-176.9,1344.7-155.3,1946.2c9.8,267.4,17.7,316.5,59,405c27.5,57,60.9,112.1,76.7,125.8c45.2,37.3,2866.3,882.7,2909.5,870.9C5014.7,3017.5,5659.6,2822.8,6424.3,2594.8z"/><path d="M4020,1847.8c-214.3-39.3-448.2-163.2-601.6-314.5c-139.6-139.6-275.2-393.2-330.3-619.3c-60.9-239.8-80.6-597.6-55-918.1c64.9-780.5,324.4-1395.8,782.4-1847.9c346-342.1,703.8-450.2,922-277.2c86.5,68.8,131.7,180.8,125.8,318.5c-3.9,64.9-7.9,261.5-7.9,434.5c0,273.2,5.9,334.2,45.2,456.1c23.6,78.6,53.1,147.4,62.9,153.3c33.4,19.7,94.4-145.5,127.8-344c23.6-133.7,31.4-275.2,25.5-538.7l-5.9-357.8l55-72.7c29.5-39.3,82.6-88.5,118-106.2c76.7-41.3,253.6-45.2,348-7.9c141.5,57,349.9,210.4,511.1,375.5c440.4,450.2,739.2,1043.9,847.3,1690.7c39.3,232,33.4,782.4-7.9,983c-117.9,548.5-471.8,931.8-925.9,1002.6c-161.2,25.6-285,13.8-650.7-61c-151.4-31.4-308.7-57-351.9-57c-41.3,0-192.7,25.6-334.2,57C4391.6,1869.4,4208.7,1883.1,4020,1847.8z M4698.2,1515.5c281.1-66.8,418.7-64.9,782.4,9.8c495.4,100.3,678.2,72.7,904.3-135.6c208.4-194.6,316.5-448.2,346-804.1c62.9-819.8-212.3-1600.3-774.6-2186.1c-198.6-206.4-389.3-336.2-495.4-336.2c-82.5,0-90.4,33.4-64.9,247.7c45.2,359.8-45.2,896.5-184.8,1100.9c-161.2,239.9-405,180.9-538.6-131.7c-98.3-228-137.6-642.8-96.3-1010.5c17.7-167.1,3.9-196.6-98.3-194.6c-320.4,9.8-796.2,556.3-1006.5,1154c-121.9,349.9-147.4,524.9-149.4,1026.2c0,412.8,3.9,465.9,45.2,605.5c23.6,84.5,66.9,198.5,94.4,253.6c102.2,202.5,314.5,375.5,536.7,440.4C4132.1,1594.1,4438.7,1576.5,4698.2,1515.5z"/><path d="M4238.2,1259.9c-53.1-62.9,19.7-108.1,292.9-182.8c194.6-53.1,715.6-47.2,953.5,7.9c279.2,66.8,334.2,88.5,340.1,139.6c4,23.6-5.9,47.2-19.7,53.1c-15.7,5.9-112-11.8-214.3-39.3c-412.8-110.1-845.3-110.1-1163.8,0C4257.9,1295.3,4267.7,1295.3,4238.2,1259.9z"/><path d="M9353.5,2396.2l-57-173l-165.1-55c-88.5-29.5-167.1-57-171.1-62.9c-3.9-3.9,68.8-33.4,163.2-64.9l173-57l59-182.8l60.9-180.9l59,180.9l60.9,182.8l182.8,61l180.8,59l-180.8,60.9l-180.9,59l-57,163.2c-29.5,90.4-57,169.1-62.9,173C9414.4,2563.3,9385,2490.6,9353.5,2396.2z"/><path d="M778.2-1293.7c-47.2-141.6-94.4-269.3-108.1-283.1c-11.8-11.8-145.5-60.9-296.9-108.1L100-1771.5l292.9-96.3l292.9-98.3l90.4-285l90.4-285.1l96.3,287l94.4,287l287,94.4l287,94.4l-285.1,96.3l-287,94.4l-84.5,261.5c-47.2,141.5-90.4,265.4-98.3,273.3C868.7-1040.2,825.4-1150.2,778.2-1293.7z"/><path d="M1851.6-2831.1l-55-165.1l-165.1-55c-92.4-29.5-167.1-59-167.1-64.9c0-5.9,74.7-35.4,167.1-64.9l165.1-55l55-165.1c29.5-92.4,59-167.1,64.9-167.1c5.9,0,35.4,74.7,64.9,167.1l55.1,165.1l165.1,55c92.4,29.5,167.1,59,167.1,64.9c0,5.9-76.7,37.4-171,68.8l-171,59l-49.2,163.2c-25.6,88.5-53.1,161.2-59,161.2C1910.6-2664,1881.1-2738.7,1851.6-2831.1z"/></g></g>
</svg>