<?xml version="1.0" encoding="utf-8"?>
<!-- Svg Vector Icons : http://www.onlinewebfonts.com/icon -->
<!DOCTYPE svg PUBLIC "-//W3C//DTD SVG 1.1//EN" "http://www.w3.org/Graphics/SVG/1.1/DTD/svg11.dtd">
<svg version="1.1" xmlns="http://www.w3.org/2000/svg" xmlns:xlink="http://www.w3.org/1999/xlink" x="0px" y="0px" viewBox="0 0 1000 1000" enable-background="new 0 0 1000 1000" xml:space="preserve">
<metadata> Svg Vector Icons : http://www.onlinewebfonts.com/icon </metadata>
<g><g transform="translate(0.000000,511.000000) scale(0.100000,-0.100000)"><path d="M4619.1,4663c-1201.7-83.6-2381.5-696.3-3151.4-1639.4c-306.4-376-594.9-885.4-748.1-1325c-97.5-282.5-189-646.6-189-758c0-224.8,240.7-366.1,437.7-254.7c99.5,57.7,125.3,107.4,197,399.9c378,1559.8,1641.4,2711.7,3235,2950.5c262.6,39.8,801.8,37.8,1086.3-2c1299.2-181.1,2415.3-998.8,2984.3-2186.5c53.7-109.4,89.5-204.9,81.6-210.9c-11.9-11.9-384-131.3-646.6-210.9c-61.7-17.9-93.5-37.8-89.5-55.7c6-27.8,1484.2-1203.7,1514-1203.7c21.9,0,15.9-19.9,314.3,964.9c155.2,509.3,264.6,903.3,254.7,913.2c-9.9,11.9-157.2-25.9-372-93.5c-195-61.7-362.1-113.4-372.1-113.4c-11.9,2-87.5,141.3-171.1,314.3c-710.3,1458.3-2091,2385.5-3738.4,2510.8C4955.3,4684.9,4945.4,4684.9,4619.1,4663z"/><path d="M5842.7,2474.5c-71.6-9.9-268.6-45.8-437.7-79.6c-356.1-73.6-407.9-71.6-815.7,19.9c-598.9,133.3-1050.5,43.8-1398.6-278.5c-230.8-210.9-370.1-481.5-455.6-881.4c-57.7-270.6-61.7-881.4-9.9-1227.6c41.8-274.6,131.3-620.7,214.9-831.6c356.1-901.3,1084.3-1553.8,1585.7-1418.6c111.4,31.8,230.8,141.3,274.6,250.7c23.9,65.6,29.8,121.4,19.9,222.8c-45.8,505.4-31.8,781.9,49.7,1030.6c61.7,185,85.5,195,133.3,63.7c99.5-266.6,137.3-694.4,95.5-1082.3c-21.9-200.9,10-306.4,127.3-411.8c179.1-161.2,417.8-143.3,720.2,57.7c565,374,1084.3,1181.8,1279.3,1981.6c109.4,451.6,119.4,1146,23.9,1514c-137.3,519.3-489.4,921.2-909.2,1036.5C6194.8,2480.5,6001.9,2494.4,5842.7,2474.5z M4559.4,2086.5c348.2-85.5,551.1-87.5,925.1-7.9c399.9,85.5,692.4,93.5,843.6,21.9c220.8-101.5,429.7-318.3,529.2-553.1c210.9-489.4,173.1-1356.9-89.5-2019.4c-187-475.5-543.1-980.8-881.4-1253.4c-179.1-143.2-278.5-197-370.1-197c-97.5,0-119.4,45.7-91.5,193c73.6,405.9-31.8,1120.1-204.9,1370.8c-179.1,258.6-441.7,212.9-600.9-105.5c-143.3-286.5-195-847.5-119.4-1291.2c11.9-69.6,8-89.5-29.8-127.3c-37.8-37.8-57.7-41.8-125.3-31.8c-133.3,21.9-310.4,131.3-493.4,306.4c-336.2,320.3-584.9,766-722.2,1297.2c-87.5,342.2-101.5,465.6-101.5,945c0,409.9,6,475.5,45.8,636.7c117.4,465.6,366.1,744.1,766,855.5C3990.4,2170.1,4288.8,2152.2,4559.4,2086.5z"/><path d="M4103.8,1792.1c-63.7-45.8-23.9-105.4,103.4-155.2c411.8-155.2,1022.6-159.2,1541.9-8c151.2,45.8,193,69.6,193,123.3c0,57.7-71.6,61.7-238.7,13.9c-93.5-27.9-258.6-63.7-366.1-81.6c-368.1-57.7-911.2-7.9-1128.1,105.5C4141.6,1823.9,4147.6,1823.9,4103.8,1792.1z"/><path d="M661.9,29.4c-6-9.9-133.3-419.8-280.5-909.2c-149.2-491.4-274.6-905.2-278.5-919.1c-19.9-55.7,59.7-41.8,388,63.6c189,61.7,354.1,111.4,366.1,111.4s57.7-79.6,99.5-175.1c899.3-1999.5,3097.7-3059.9,5226.5-2520.8c298.4,75.6,519.3,159.2,843.6,318.3c1144,557.1,1963.7,1514.1,2335.7,2725.7c127.3,417.8,147.2,600.8,75.6,708.3c-87.5,131.3-254.7,173.1-391.9,95.5c-99.5-57.7-125.3-107.4-197-399.9c-358.1-1482.2-1508.1-2590.4-3020.1-2914.7c-240.7-51.7-282.5-55.7-762-53.7c-475.5,0-523.3,2-758,53.7C3071.2-3524,2078.5-2750,1543.3-1633.9c-53.7,109.4-89.5,204.9-81.6,210.9c11.9,10,471.5,159.2,696.3,226.8c25.9,7.9,43.8,25.9,39.8,39.8c-6,27.8-1484.2,1203.7-1512.1,1203.7C677.8,47.3,667.9,39.3,661.9,29.4z"/></g></g>
</svg>