<?xml version="1.0" encoding="utf-8"?>
<!-- Svg Vector Icons : http://www.onlinewebfonts.com/icon -->
<!DOCTYPE svg PUBLIC "-//W3C//DTD SVG 1.1//EN" "http://www.w3.org/Graphics/SVG/1.1/DTD/svg11.dtd">
<svg version="1.1" xmlns="http://www.w3.org/2000/svg" xmlns:xlink="http://www.w3.org/1999/xlink" x="0px" y="0px" viewBox="0 0 1000 1000" enable-background="new 0 0 1000 1000" xml:space="preserve">
<metadata> Svg Vector Icons : http://www.onlinewebfonts.com/icon </metadata>
<g><g transform="translate(0.000000,511.000000) scale(0.100000,-0.100000)"><path d="M8329.7,3092c-309.7-39-997.2-192.8-1038.1-231.8c-9.7-9.7,13.6-33.1,48.7-54.5l66.2-39l212.3,52.6c453.8,114.9,882.3,153.9,1075.1,99.3c105.2-29.2,192.8-103.2,220.1-187c70.1-210.4-229.8-633-781-1102.4c-1509.5-1291.3-4364.9-2756-6084.7-3126.1c-210.4-44.8-301.9-54.5-545.4-54.5c-266.8-1.9-300,2-374,42.9c-107.1,56.5-146.1,116.9-146.1,225.9c0,101.3,48.7,218.1,157.8,377.9l79.9,118.8l-72.1,23.4c-68.2,21.4-72.1,21.4-126.6-42.9C912.8-934,751.1-1191.1,700.4-1313.8c-95.4-233.7-60.4-434.3,95.4-543.4c601.8-428.5,2902.1,235.7,5147.8,1488.1C7129.9,291.2,8078.4,969,8719.2,1609.8c753.8,755.7,882.3,1277.7,356.4,1443.3C8921.8,3101.7,8563.4,3119.2,8329.7,3092z"/><path d="M3801.2,2817.3c-446-66.2-841.4-307.7-1096.6-672c-142.2-204.5-270.7-559-325.3-894c-60.4-372-54.5-1061.5,11.7-1425.7c11.7-58.4,17.5-111,13.6-114.9c-9.7-7.8-498.6,66.2-541.5,81.8c-21.4,7.8-7.8,29.2,52.6,83.8c70.1,60.4,85.7,85.7,95.4,167.5l13.6,97.4l-46.7-39C1952.8,78.8,1871,10.7,1797-53.6l-132.5-114.9l-120.8,25.3c-198.7,40.9-539.5,157.8-697.3,239.6c-85.7,44.8-183.1,113-229.8,163.6c-70.1,76-77.9,95.4-77.9,187c0,97.4,3.9,105.2,114.9,212.3c188.9,185,605.7,360.3,1176.4,494.7l227.9,54.5v64.3c0,37-5.8,66.2-15.6,66.2c-46.8,0-594.1-150-820-224c-315.5-105.2-730.4-305.8-872.6-424.6C145.4,522.9,67.4,357.4,112.2,191.8c39-144.1,233.7-321.4,486.9-446C1146.5-521,2036.6-711.9,3160.4-803.5l255.2-19.5l383.7,198.7L4183-423.7l-298,15.6c-498.6,25.3-1045.9,64.3-1055.7,74c-23.4,23.4-72.1,379.8-89.6,658.3c-66.2,1051.8,185,1712,755.7,1988.6c292.2,142.2,580.4,155.8,1053.7,48.7c584.3-130.5,619.4-130.5,1238.8-5.8c346.7,68.2,414.9,76,615.5,70.1c214.2-5.8,231.8-9.7,372-79.8c259-128.6,492.8-393.4,611.6-697.3c29.2-74,62.3-132.4,74-126.6c11.7,5.8,93.5,39,181.1,74c183.1,74,179.2,52.6,64.3,299.9c-292.2,633-841.4,981.7-1460.8,934.9c-91.6-7.8-337-48.7-549.3-91.5c-483-95.4-586.3-97.4-975.8-9.7C4260.9,2834.9,4054.4,2854.4,3801.2,2817.3z"/><path d="M4021.3,1970.1c-21.4-44.8-17.5-56.5,25.3-93.5c134.4-114.9,596-210.4,1020.6-210.4c327.2,0,557.1,31.2,909.6,122.7c255.1,68.2,307.7,103.2,272.7,183.1c-27.3,60.4-37,60.4-284.4-7.8c-607.7-171.4-1297.2-167.5-1731.5,7.8C4083.7,2034.4,4048.6,2032.4,4021.3,1970.1z"/><path d="M8760.1,1243.6l-62.3-52.6l142.2-44.8c323.3-103.2,586.3-284.4,611.6-422.7c19.5-105.2-7.8-165.6-118.8-274.6C9132.2,254.1,8580.9,41.8,7922.6-92.5l-66.2-13.6L7870-3c29.2,210.4,50.6,438.2,50.6,539.5v101.3L7720,505.4L7521.4,371l-35-235.7c-17.5-130.5-40.9-257.1-50.7-282.4c-19.5-52.6,17.5-44.8-568.7-118.8l-342.8-44.8l-348.6-239.6c-190.9-132.4-352.5-243.5-358.4-249.3c-13.6-11.7,323.3,11.7,652.5,46.7C8154.4-571.7,9457.4-168.5,9798.3,279.5c124.6,163.6,134.4,299.9,31.2,461.6c-118.8,188.9-451.9,381.8-897.9,520l-109.1,33.1L8760.1,1243.6z"/><path d="M7568.1-813.2c-5.9-3.9-91.6-29.2-192.8-54.5l-185-44.8l-56.5-107.1c-235.7-440.2-469.4-767.4-751.8-1049.8c-364.2-364.2-707-520-751.8-340.8c-5.8,25.3-2,103.2,9.7,171.4c25.3,150,27.3,631.1,1.9,831.7c-27.3,208.4-79.9,448-101.3,448c-9.7,0-87.7-40.9-177.2-91.5c-87.6-50.6-161.7-93.5-163.6-93.5c-3.9-2,9.7-72.1,27.3-157.8c29.2-148,37-453.8,19.5-1071.3c-3.9-165.6,0-181.1,54.5-272.7c70.1-113,224-214.2,354.5-233.7c512.2-76,1351.7,705.1,1834.8,1708.1c163.6,340.8,173.3,368.1,122.7,368.1C7593.4-803.5,7572-807.4,7568.1-813.2z"/><path d="M4669.9-1409.2l-202.6-95.4l11.7-288.3c3.9-157.8,19.5-348.7,33.1-426.6c21.4-122.7,21.4-146.1-5.8-188.9c-44.8-68.2-124.7-79.9-253.2-35.1c-177.2,58.4-323.3,159.7-537.6,366.2L3513-1878.6l-200.6-60.4l-200.6-58.4l114.9-140.2c249.3-303.9,559-549.3,835.6-658.3c122.7-50.6,177.2-60.4,313.6-60.4c144.1-1.9,179.2,5.9,264.9,50.7c122.7,64.3,210.3,167.5,253.2,296c33.1,99.3,33.1,163.6-11.7,537.6c-19.5,169.5-15.6,405.1,11.7,590.2c5.8,39,3.9,72.1-5.8,70.1C4880.3-1311.8,4780.9-1356.6,4669.9-1409.2z"/></g></g>
</svg>