<?xml version="1.0" encoding="utf-8"?>
<!-- Svg Vector Icons : http://www.onlinewebfonts.com/icon -->
<!DOCTYPE svg PUBLIC "-//W3C//DTD SVG 1.1//EN" "http://www.w3.org/Graphics/SVG/1.1/DTD/svg11.dtd">
<svg version="1.1" xmlns="http://www.w3.org/2000/svg" xmlns:xlink="http://www.w3.org/1999/xlink" x="0px" y="0px" viewBox="0 0 1000 1000" enable-background="new 0 0 1000 1000" xml:space="preserve">
<metadata> Svg Vector Icons : http://www.onlinewebfonts.com/icon </metadata>
<g><g transform="translate(0.000000,511.000000) scale(0.100000,-0.100000)"><path d="M1146.2,3940.8c-461.9-64-813.3-351.3-986-809.4c-54.4-145.6-60.2-176.6-60.2-399.8c0-219.3,5.8-256.2,54.3-388.2c69.9-182.5,182.4-361,293.1-463.9l85.4-77.6l31.1-281.4C692,346.1,1022-707.8,1480-1412.4c62.1-95.1,130-217.4,149.5-271.7c67.9-186.3,250.4-512.4,384.3-692.9c663.8-889,1688.7-1354.8,2985.2-1354.8c714.3,0,1286.9,126.2,1853.6,407.6c689,341.6,1263.6,962.7,1515.9,1640.1c19.4,54.3,87.3,176.6,149.4,271.7c458.1,702.6,788.1,1760.5,916.2,2928.9l31,277.6l110.6,114.5c114.5,118.4,225.2,306.7,287.3,493c27.2,79.6,36.9,163,36.9,330c-1.9,194.1-7.8,244.6-56.3,378.5c-234.8,673.5-828.8,960.8-1628.5,786.1c-390.1-85.4-456.1-104.8-599.8-178.6c-339.7-174.7-559-506.6-764.7-1156.8c-302.8-955-351.3-1075.3-551.2-1341.2c-349.4-463.9-922-714.3-1475.2-646.4C4218.7,647,3735.4,1029.3,3438.5,1666c-46.6,100.9-155.3,366.8-240.7,590.1c-196,510.5-201.9,526-308.6,735.6C2697,3374,2487.4,3607,2221.5,3738.9C1891.5,3900,1450.9,3983.5,1146.2,3940.8z M1647,3525.4c77.6-19.4,106.8-38.8,161.1-112.6c102.9-141.7,130-248.4,120.3-465.8c-13.6-238.7-64-374.6-192.2-514.4c-52.4-58.2-95.1-112.6-95.1-122.3c0-11.6,54.3-34.9,122.3-54.3c498.8-147.5,679.3-388.2,617.2-826.9c-27.2-201.9-87.3-349.4-188.3-475.5c-46.6-56.3-85.4-114.5-85.4-128.1c0-13.6,40.8-77.6,89.3-141.7c217.4-289.2,273.7-541.5,174.7-788c-27.2-69.9-50.5-143.6-50.5-165c0-48.5,73.8-116.5,215.5-199.9c114.5-67.9,172.7-141.7,172.7-219.3c0-23.3-23.3-93.2-50.5-151.4c-58.2-128.1-64-231-15.5-308.6c21.4-31.1,93.2-102.9,159.2-159.2c151.4-126.2,209.6-223.2,227.1-376.5c7.8-64.1,25.2-145.6,40.8-182.5c102.9-248.4,481.4-491.1,953-613.3c328-85.4,607.5-112.6,1083.1-100.9c605.6,13.6,939.4,79.6,1319.9,265.9c335.8,163,524.1,374.6,547.3,619.2c15.5,155.3,62.1,231,236.8,390.1c209.6,188.3,232.9,260.1,147.5,444.5c-97.1,205.8-66,289.2,157.2,421.2c182.5,106.7,199.9,145.6,130,302.8c-44.6,100.9-52.4,149.4-52.4,277.6c0,186.3,42.7,295,196,508.5c56.3,79.6,102.9,161.1,102.9,182.5c0,19.4-31,69.9-67.9,112.6c-81.5,91.2-157.2,250.4-184.4,390.1c-25.2,137.8-25.2,386.3,3.9,467.8c66,198,227.1,330,520.2,425.1c100.9,34.9,192.2,69.9,203.8,79.6c11.6,11.6-15.5,50.5-73.8,104.8c-108.7,104.8-159.1,198-198,363c-62.1,264-21.3,491.1,118.4,652.2c79.6,93.2,141.7,116.5,376.6,132c283.4,21.4,524.1-66,694.8-254.3c236.8-258.1,297-601.7,159.2-896.7c-69.9-149.4-133.9-231-238.8-300.8c-42.7-29.1-87.3-67.9-99-87.3c-9.7-19.4-35-186.3-54.4-372.7c-120.3-1185.9-446.4-2239.9-896.7-2894c-54.4-79.6-120.3-201.9-145.6-271.7c-207.7-578.4-696.8-1125.8-1288.8-1438.3c-493-258.2-1003.5-370.7-1702.2-372.7c-541.5-2-885.1,46.6-1314,190.2c-790,264-1424.7,857.9-1710,1603.2c-31.1,79.6-99,211.6-153.3,291.2c-456.1,677.4-774.4,1706.1-896.7,2895.9c-17.5,182.5-42.7,349.4-52.4,368.8c-11.6,19.4-56.3,58.2-99,87.3C565.8,2258,433.8,2603.5,494,2884.9c69.9,324.2,318.3,586.2,623.1,656.1C1239.3,3568.1,1507.2,3562.3,1647,3525.4z"/></g></g>
</svg>