<?xml version="1.0" encoding="utf-8"?>
<!-- Svg Vector Icons : http://www.onlinewebfonts.com/icon -->
<!DOCTYPE svg PUBLIC "-//W3C//DTD SVG 1.1//EN" "http://www.w3.org/Graphics/SVG/1.1/DTD/svg11.dtd">
<svg version="1.1" xmlns="http://www.w3.org/2000/svg" xmlns:xlink="http://www.w3.org/1999/xlink" x="0px" y="0px" viewBox="0 0 1000 1000" enable-background="new 0 0 1000 1000" xml:space="preserve">
<metadata> Svg Vector Icons : http://www.onlinewebfonts.com/icon </metadata>
<g><g transform="translate(0.000000,511.000000) scale(0.100000,-0.100000)"><path d="M4054.3,4984.6c-335.2-64.2-826.9-258.9-1033.7-409.5c-100.4-72.2-114.4-142.5-38.1-192.7c44.2-30.1,62.2-24.1,327.2,90.3c154.5,66.2,351.2,138.5,435.5,160.6c200.7,50.2,640.3,88.3,851,70.2c873.1-68.2,1696-806.9,1808.4-1623.8c46.2-333.2,14-776.7-76.3-1041.7c-102.4-295.1-273-531.9-483.7-674.4c-158.6-104.4-299.1-154.6-592.1-214.8c-427.5-84.3-672.4-248.9-820.9-554c-122.4-246.9-136.5-349.2-146.5-1063.8l-10-638.3h-48.2c-118.4,0-287-256.9-409.4-616.2c-84.3-256.9-84.3-260.9,56.2-281c150.5-22.1,1148.1-20.1,1374.9,0c206.7,20.1,202.7,8,112.4,289c-116.4,367.3-275,608.2-399.4,608.2h-60.2v592.1c0,359.3,8,632.2,22.1,696.5c50.2,230.8,162.6,359.3,353.3,397.4c602.1,124.4,859,236.8,1156.1,501.8c305.1,271,525.9,732.6,608.1,1274.5c44.2,281,28.1,780.8-30.1,1003.6c-206.7,782.8-895.2,1368.8-1878.7,1597.7C4893.3,5012.7,4285.1,5028.8,4054.3,4984.6z"/><path d="M5312.8-2335.3c-146.5-26.1-1154.1-32.1-1409-10l-186.7,16.1V-3385c0-1009.6,2-1057.8,40.1-1132c50.2-102.4,164.6-192.7,291-236.8c84.3-30.1,172.6-36.1,562-36.1c439.6,0,465.7,2,562,46.2c120.4,56.2,200.7,128.5,252.9,228.8c36.1,70.2,38.1,130.5,38.1,1140c0,584.1-6,1061.7-14.1,1061.7C5439.2-2315.2,5379-2325.3,5312.8-2335.3z"/></g></g>
</svg>