<?xml version="1.0" encoding="utf-8"?>
<!-- Svg Vector Icons : http://www.onlinewebfonts.com/icon -->
<!DOCTYPE svg PUBLIC "-//W3C//DTD SVG 1.1//EN" "http://www.w3.org/Graphics/SVG/1.1/DTD/svg11.dtd">
<svg version="1.1" xmlns="http://www.w3.org/2000/svg" xmlns:xlink="http://www.w3.org/1999/xlink" x="0px" y="0px" viewBox="0 0 1000 1000" enable-background="new 0 0 1000 1000" xml:space="preserve">
<metadata> Svg Vector Icons : http://www.onlinewebfonts.com/icon </metadata>
<g><g transform="translate(0.000000,511.000000) scale(0.100000,-0.100000)"><path d="M1107,2248.4c-291.2-15.8-618.2-51.5-715.2-77.3c-49.5-11.9-15.8-29.7,275.4-136.7c182.3-67.4,342.8-122.8,352.7-122.8c11.9,0,15.8-11.9,9.9-23.8c-59.4-144.6-79.3-263.5-81.2-461.6c0-180.3,7.9-233.8,41.6-309.1c55.5-118.9,164.4-221.9,291.2-273.4c85.2-33.7,112.9-59.4,150.6-130.8c75.3-142.7,239.7-227.8,447.8-227.8c93.1,0,103-5.9,152.6-77.3c73.3-103,212-192.2,344.7-221.9c91.1-19.8,124.8-19.8,227.8,9.9l120.9,33.7l57.5-49.5c142.6-120.8,441.8-210,701.4-210c136.7,0,156.5-5.9,223.9-59.4c176.3-138.7,410.1-190.2,796.5-170.4c136.7,6,303.1,25.8,372.5,41.6c109,25.8,136.7,25.8,247.7,0c67.4-15.8,233.8-35.7,370.5-41.6c386.3-19.8,620.1,31.7,796.5,170.4C6359.2-36,6379.1-30,6515.8-30c259.5,0,558.7,89.2,701.4,210l57.4,49.5l120.9-33.7c103-29.7,136.7-29.7,227.8-9.9c132.7,29.7,271.4,118.9,344.7,221.9c49.5,71.3,59.4,77.3,154.5,77.3c214,0,400.2,103,461.7,253.6c19.8,45.6,51.5,71.3,130.8,103c128.8,53.5,239.7,154.5,295.2,275.4c69.3,152.6,51.5,550.8-35.7,754.9c-9.9,23.8,45.6,51.5,261.5,126.8c148.6,53.5,307.1,112.9,350.7,130.8l79.2,33.7l-138.7,23.8c-604.3,97.1-1874.3,103-3417.7,9.9l-505.2-29.7l-291.3-116.9c-160.5-65.4-303.1-118.9-317-118.9c-13.9,0-150.6,53.5-305.1,116.9l-279.4,116.9l-533,31.7C2755.4,2264.2,1762.8,2282.1,1107,2248.4z M1410.1,1614.4l134.7-136.7l21.8,57.5c35.7,93.1,87.2,75.3,271.4-101l170.4-160.5v81.2c0,105,53.5,160.5,148.6,160.5c134.7,0,311.1-128.8,503.2-368.5l118.9-146.6l59.4,85.2c138.7,202.1,366.5,299.2,515.1,221.9c81.2-41.6,206-190.2,281.3-336.8l65.4-124.8l57.5,116.9c61.4,126.8,158.5,216,285.3,257.6c116.9,37.6,372.5,13.9,507.2-47.5c136.7-61.4,326.9-237.7,392.3-360.6c25.8-49.5,51.5-89.2,57.5-89.2c5.9,0,31.7,39.6,57.4,89.2c65.4,122.8,255.6,299.2,392.3,360.6c134.7,61.4,390.3,85.2,507.2,47.5c126.8-41.6,223.9-130.8,285.3-257.6l57.4-116.9l65.4,124.8c75.3,146.6,200.1,295.2,281.3,336.8c148.6,77.3,376.4-19.8,515.1-221.9l59.4-85.2l118.9,148.6c202.1,249.6,364.6,366.5,509.2,366.5c95.1,0,124.8-31.7,138.7-148.6l9.9-89.2l166.4,158.5c182.3,174.3,233.8,192.2,269.4,99.1l21.8-57.5l134.7,138.7c85.2,87.2,148.6,136.7,170.4,132.7c65.4-11.9,107-336.8,61.4-495.3c-29.7-112.9-91.1-166.4-263.5-237.8c-138.7-57.5-156.5-71.3-162.5-120.8c-13.9-144.6-124.8-202.1-354.6-188.2l-142.7,9.9l-45.6-87.2c-57.5-109-156.5-196.1-257.6-225.9c-65.4-19.8-91.1-17.8-168.4,9.9c-49.5,19.8-114.9,55.5-144.6,81.2l-55.5,45.6l-41.6-73.3c-51.5-91.1-160.5-166.4-315-223.9c-156.5-57.5-487.4-63.4-568.6-9.9c-67.4,43.6-73.3,43.6-73.3-13.9c0-112.9-146.6-212-368.5-251.6c-168.4-29.7-546.8-11.9-711.3,33.7c-146.6,41.6-150.6,41.6-297.2,0c-164.4-45.6-542.9-63.4-711.3-33.7c-229.8,39.6-368.5,138.7-368.5,263.5v57.5l-61.4-45.6c-53.5-39.6-83.2-45.6-251.6-45.6c-305.1,0-546.8,101-643.9,267.5l-41.6,75.3l-55.5-45.6c-29.7-25.8-95.1-61.4-144.6-81.2c-77.3-27.7-103-29.7-168.4-9.9c-101,29.7-200.1,116.9-257.6,225.9l-45.6,87.2l-130.8-9.9c-233.8-15.9-352.7,45.6-366.5,188.2c-5.9,49.5-23.8,63.4-162.5,120.8c-172.4,71.3-233.8,124.8-263.5,237.8c-33.7,120.9-21.8,334.8,27.7,475.5C1223.9,1778.8,1277.4,1749.1,1410.1,1614.4z"/><path d="M100.5,1461.8c5.9-19.8,55.5-126.8,107-239.7C572,439.5,1152.5-309.4,1830.1-876c588.4-493.3,1333.4-905.4,1888.1-1046.1c562.7-142.7,1646.4-164.4,2328-47.6c616.2,105,1351.2,473.5,2044.6,1026.3c253.6,202.1,731.1,679.6,929.2,931.2c299.2,376.4,590.4,844,774.7,1240.3c51.5,109,99.1,214,105,231.8c5.9,19.8-93.1-53.5-223.9-160.5c-816.3-681.5-1632.6-1190.7-2328-1454.2c-394.3-148.6-955-275.4-1585-354.6c-311.1-37.7-1266-31.7-1604.8,11.9C3341.8-392.6,2795-242,2216.5,37.3c-606.3,293.2-1279.9,743-1925.8,1287.8C179.8,1418.2,92.6,1479.7,100.5,1461.8z"/></g></g>
</svg>