<?xml version="1.0" encoding="utf-8"?>
<!-- Svg Vector Icons : http://www.onlinewebfonts.com/icon -->
<!DOCTYPE svg PUBLIC "-//W3C//DTD SVG 1.1//EN" "http://www.w3.org/Graphics/SVG/1.1/DTD/svg11.dtd">
<svg version="1.1" xmlns="http://www.w3.org/2000/svg" xmlns:xlink="http://www.w3.org/1999/xlink" x="0px" y="0px" viewBox="0 0 1000 1000" enable-background="new 0 0 1000 1000" xml:space="preserve">
<metadata> Svg Vector Icons : http://www.onlinewebfonts.com/icon </metadata>
<g><g transform="translate(0.000000,511.000000) scale(0.100000,-0.100000)"><path d="M5987.7,3301.9c-63.6-21.8-137.1-81.4-260.2-204.6c-200.6-204.6-327.8-292-544.3-379.4c-381.4-151-788.6-216.5-1446.1-230.4c-542.3-11.9-860.1,8-1390.5,85.4c-631.7,91.4-1054.8,55.6-1414.3-117.2c-399.3-192.7-655.5-516.5-778.7-985.2c-43.7-158.9-51.6-238.4-53.6-478.7C98.1,662,131.9,509,231.2,387.9c101.3-123.2,307.9-137.1,405.2-29.8c19.9,21.9,53.6,49.7,71.5,59.6c33.8,17.9,35.7-25.8,35.7-824.3v-842.2l-87.4-51.6C555-1358.2,463.6-1457.5,402-1576.7c-43.7-79.5-45.7-103.3-45.7-570.1v-486.7l55.6-105.3c73.5-139,192.7-254.2,329.7-319.8l111.3-51.6h2641.9h2641.9l111.2,51.6c133.1,63.6,254.3,166.9,305.9,264.2l39.7,71.5h1485.8c1605,0,1563.3-2,1678.5,105.3c93.4,85.4,129.1,188.7,139,397.3c13.9,274.1-15.9,393.3-125.1,502.6c-49.7,47.7-117.2,93.3-160.9,105.3c-51.7,13.9-566.1,21.8-1549.4,21.8H6589.5l-57.6,91.4c-73.5,115.2-206.6,214.5-351.6,260.2l-113.2,35.8v899.8c0,744.9,4,897.9,27.8,897.9c13.9,0,89.4,31.8,166.9,71.5c164.9,81.4,337.7,244.3,439,413.2c395.3,661.5,234.4,1883.1-290,2191C6299.5,3335.6,6116.8,3349.5,5987.7,3301.9z M6234,2682.1c234.4-458.9,174.8-1199.8-115.2-1467.9c-164.9-153-7.9-145-2663.7-143c-2405.5,2-2536.6,0-2737.2-71.5c-43.7-15.9-83.4-23.8-89.4-19.9c-4,6,2,87.4,15.9,182.7c65.5,494.6,327.7,798.5,770.7,893.9c196.7,39.7,490.6,33.8,860.1-19.9c178.8-25.8,456.9-59.6,617.8-71.5c377.4-31.8,1317-15.9,1595,27.8c756.8,115.2,1253.4,325.8,1551.3,655.5c65.6,71.5,123.2,129.1,131.1,131.1C6178.3,2779.4,6208.1,2735.7,6234,2682.1z M1862,443.5c17.9-6,33.8-29.8,33.8-53.6c-2-85.4,125.1-1086.6,137.1-1086.6c7.9,0,37.7,252.3,69.5,562.1c29.8,307.9,59.6,566.1,63.6,572.1c4,6,145,11.9,313.8,11.9l307.9-2l9.9-69.5c6-39.7,39.7-311.9,75.5-607.8c35.8-294,67.5-522.4,69.5-506.5c4,15.9,31.8,282.1,63.5,591.9c29.8,307.9,63.6,568.1,69.5,576.1c8,7.9,151,13.9,315.8,13.9h301.9l73.5-586c39.7-321.8,75.5-590,77.5-595.9c2-5.9,29.8,258.2,65.5,586l61.6,595.9l311.9,4c307.9,4,313.8,2,321.8-39.7c4-23.8,37.7-292,73.5-593.9c35.8-303.9,67.5-548.2,71.5-544.2c6,4,35.8,264.2,65.5,578c31.8,311.9,63.6,576.1,67.5,584c11.9,17.9,421.1,25.8,554.2,9.9l93.4-11.9l-4-816.4l-6-818.4l-2109.5-6l-2111.5-4v830.3v832.3l264.2,2C1707.1,453.4,1842.1,449.4,1862,443.5z"/></g></g>
</svg>