<?xml version="1.0" encoding="utf-8"?>
<!-- Svg Vector Icons : http://www.onlinewebfonts.com/icon -->
<!DOCTYPE svg PUBLIC "-//W3C//DTD SVG 1.1//EN" "http://www.w3.org/Graphics/SVG/1.1/DTD/svg11.dtd">
<svg version="1.1" xmlns="http://www.w3.org/2000/svg" xmlns:xlink="http://www.w3.org/1999/xlink" x="0px" y="0px" viewBox="0 0 1000 1000" enable-background="new 0 0 1000 1000" xml:space="preserve">
<metadata> Svg Vector Icons : http://www.onlinewebfonts.com/icon </metadata>
<g><g transform="translate(0.000000,511.000000) scale(0.100000,-0.100000)"><path d="M2870.9,4740.1v-269.9H5000h2129.1v269.9V5010H5000H2870.9V4740.1z"/><path d="M3024.8,3910.5c137.9-551.8,345.8-2592.9,455.8-4478.1c50-869.6,84-1133.5,173.9-1375.4c50-135.9,147.9-243.9,401.8-447.8l195.9-155.9H5014h761.7l181.9,147.9c257.9,207.9,319.9,269.9,365.8,361.8c117.9,233.9,155.9,479.8,207.9,1309.4c134,2237.1,351.9,4330.2,487.8,4720c16,46,30,86,30,90c0,4-915.6,8-2035.1,8H2978.9L3024.8,3910.5z M6181.5,1427.5c-14-193.9-72-1239.5-72-1319.4v-56H5024H3936.4l-14,315.9c-14,325.9-62,991.6-82,1139.5l-12,84H5012h1181.5L6181.5,1427.5z"/><path d="M4030.4-2910.6c0-36,32-433.8,68-883.6c50-587.7,78-823.6,96-835.6c42-26,257.9-90,429.8-125.9c185.9-40,545.8-46,723.7-12c165.9,32,467.8,120,489.8,141.9c10,10,52,415.8,92,899.6l72,879.6H5016h-985.6V-2910.6z"/></g></g>
</svg>