<?xml version="1.0" encoding="utf-8"?>
<!-- Svg Vector Icons : http://www.onlinewebfonts.com/icon -->
<!DOCTYPE svg PUBLIC "-//W3C//DTD SVG 1.1//EN" "http://www.w3.org/Graphics/SVG/1.1/DTD/svg11.dtd">
<svg version="1.1" xmlns="http://www.w3.org/2000/svg" xmlns:xlink="http://www.w3.org/1999/xlink" x="0px" y="0px" viewBox="0 0 1000 1000" enable-background="new 0 0 1000 1000" xml:space="preserve">
<metadata> Svg Vector Icons : http://www.onlinewebfonts.com/icon </metadata>
<g><g transform="translate(0.000000,511.000000) scale(0.100000,-0.100000)"><path d="M6226.7,2936.5c-346.8-34.9-618.1-164.7-870-414.6c-145.3-145.3-189.9-205.4-265.4-356.5c-50.4-98.8-108.5-242.2-131.8-319.7c-62-213.1-56.2-201.5-79.4-156.9c-54.2,100.8-222.8,288.7-331.3,370.1c-428.2,323.6-990.1,397.2-1755.4,228.6C1648.3,2033.6,681.4,1361.3,272.6,532C49.8,78.6,42-262.4,253.2-473.6C402.4-624.7,611.7-646,871.3-539.5c232.5,96.9,474.7,147.3,757.6,158.9c172.4,7.8,290.6,1.9,344.9-11.6c81.4-23.3,83.3-25.2,52.3-60.1c-44.6-50.4-333.3-195.7-509.6-259.6c-213.1-75.6-432.1-127.9-598.7-139.5c-215.1-15.5-325.5-56.2-422.4-153.1c-100.8-98.8-131.7-189.9-122.1-344.9c9.7-172.4,73.6-286.7,255.8-470.8c583.2-583.2,1745.7-966.9,2716.4-899c916.5,65.9,1615.9,366.2,1955,840.9c85.2,120.1,222.8,385.6,222.8,432.1c0,46.5,31,25.2,100.8-65.9c116.3-153.1,383.6-401.1,544.4-505.7c372-242.2,744-242.2,922.3-1.9c89.1,122.1,108.5,238.3,77.5,451.4c-36.8,234.4-31,620,9.7,821.5c34.9,174.4,98.8,364.3,129.8,383.6c42.6,25.2,139.5-306.1,174.4-600.6c21.3-176.3,15.5-480.5-13.5-744c-15.5-137.6,19.4-253.8,104.6-354.6c91.1-106.6,195.7-153.1,346.8-153.1c151.1,0,286.7,48.4,478.6,174.4c639.4,416.6,1253.6,1404.7,1424.1,2290.2c108.5,563.8,102.7,1156.7-17.4,1584.9c-116.3,414.6-391.4,778.9-736.3,974.6c-279,156.9-616.1,176.3-1150.9,63.9c-453.4-96.9-525.1-100.8-751.8-52.3C6571.6,2948.1,6465,2961.7,6226.7,2936.5z M6889.3,2512.2c158.9-36.8,327.5-63.9,455.3-71.7c186-9.7,234.4-3.9,552.2,63.9c290.6,62,387.5,73.6,583.2,75.6c230.6,0,234.5,0,377.8-71.7c151.1-75.6,350.7-253.8,437.9-395.3c193.8-311.9,269.3-728.5,236.4-1296.2c-29.1-492.1-133.7-901-346.8-1336.9c-273.2-561.9-738.2-1110.2-1092.8-1288.5c-141.4-71.7-213.1-75.5-255.7-11.6c-27.1,42.6-27.1,62-5.8,160.8c31,139.5,31,602.6,0,809.9c-69.7,463.1-199.6,755.6-372,844.8c-385.6,195.7-707.2-422.4-668.5-1280.7c5.8-143.4,15.5-311.9,23.2-373.9c9.7-91.1,5.8-118.2-21.3-149.2c-56.2-62-158.9-48.4-339.1,40.7c-319.7,160.8-683.9,587.1-908.7,1067.6c-368.1,780.8-453.4,1896.9-197.6,2575c127.9,341,416.6,594.8,769.2,685.9C6292.6,2605.2,6585.1,2585.8,6889.3,2512.2z M3930.7,1967.7c209.3-52.3,352.6-137.6,503.8-296.4c251.9-265.4,308.1-453.4,333.3-1094.7c17.4-507.6,19.4-511.5,222.8-961c199.6-441.8,213.1-486.3,213.1-728.5c0-203.4,0-205.4-85.3-375.9c-186-375.9-554.1-627.8-1121.8-767.3c-868-211.2-1720.5-120.1-2503.3,273.2c-434,217-775,511.5-775,670.4c0,67.8,48.4,91,244.1,106.6c331.3,29.1,815.7,182.1,1100.5,350.7c331.3,195.7,451.5,410.8,339.1,596.8c-52.3,83.3-79.4,106.6-201.5,164.7C1907.9,47.6,1253-2.8,741.5-202.3c-131.8-52.3-166.6-58.1-207.3-40.7c-158.9,71.7-52.3,507.7,218.9,885.5c372,523.1,966.8,935.8,1687.6,1172.2C3053,2016.2,3545.1,2066.5,3930.7,1967.7z"/><path d="M6385.6,2190.5c-75.6-77.5,32.9-155,333.3-234.4c176.3-48.4,218.9-52.3,596.8-52.3c377.8,0,422.4,1.9,633.6,52.3c354.6,83.3,430.1,114.3,437.9,174.4c9.7,85.3-42.6,95-228.6,40.7c-554.1-160.8-1143.2-162.8-1577.2-5.8c-85.2,31-156.9,56.2-158.9,56.2C6418.5,2221.5,6403,2208,6385.6,2190.5z"/><path d="M4248.4,1061c-42.6-27.1-62-153.1-62-418.5c-1.9-383.6,79.4-744,255.8-1133.5c81.4-182.1,211.2-403,242.2-414.6c36.8-15.5,102.7,21.3,102.7,56.2c0,17.5-50.4,127.9-114.3,248c-131.8,250-193.8,410.8-267.4,682c-46.5,176.3-52.3,226.7-54.2,573.5c-1.9,207.3-9.7,387.5-17.4,401.1C4318.2,1082.3,4285.3,1084.2,4248.4,1061z"/></g></g>
</svg>