<svg id="t17" xmlns="http://www.w3.org/2000/svg" width="50" height="50" viewBox="0 0 50 50">
  <metadata><?xpacket begin="﻿" id="W5M0MpCehiHzreSzNTczkc9d"?>
<x:xmpmeta xmlns:x="adobe:ns:meta/" x:xmptk="Adobe XMP Core 5.6-c138 79.159824, 2016/09/14-01:09:01        ">
   <rdf:RDF xmlns:rdf="http://www.w3.org/1999/02/22-rdf-syntax-ns#">
      <rdf:Description rdf:about=""/>
   </rdf:RDF>
</x:xmpmeta>
                                                                                                    
                                                                                                    
                                                                                                    
                                                                                                    
                                                                                                    
                                                                                                    
                                                                                                    
                                                                                                    
                                                                                                    
                                                                                                    
                                                                                                    
                                                                                                    
                                                                                                    
                                                                                                    
                                                                                                    
                                                                                                    
                                                                                                    
                                                                                                    
                                                                                                    
                                                                                                    
                           
<?xpacket end="w"?></metadata>
<defs>
    <style>
      .cls-1 {
        fill: none;
        stroke: red;
        stroke-linecap: round;
        stroke-linejoin: round;
        stroke-width: 1px;
        fill-rule: evenodd;
      }
    </style>
  </defs>
  <path id="t17-b" class="cls-1" d="M14,2h0l1,1s-0.587,1.746,0,2a11.1,11.1,0,0,1,2,2s1.224,1.543,1,2,0.736,2.653,1,3,2,3,2,3l1,3a30.717,30.717,0,0,0,1,3c0.293,0.541,1,2,1,2l2,2,1-1,1-6s-0.432-6.709,0-8c0.3-.9-0.8-1.692-1-3-0.095-.6,0-4,0-4l1-1,3,1,1,4a28.262,28.262,0,0,1,1,3c0.127,0.909.818,3.965,1,6,0.071,0.794,1,4,1,4l1,3s1.547,2.634,1,4c-0.3.742-5,2-5,2s4.662-.8,6,0c2.132,1.28,4,7,4,7v3l-1,4s-4.434,4.5-5,4-5,1-5,1H26l-3-2-2-4,2,4a8.523,8.523,0,0,0-2,2c-0.239.677-4,0-4,0l-4-1-3-3L9,40s2.162-3.766,2-4,1-2,1-2l2-2,4-2-3,1s-1.306-2.046-1-2-0.306-4,0-4-0.861-3.665-1-4-1-3-1-3V12L11,9,10,7a10.3,10.3,0,0,1,0-2,24.715,24.715,0,0,0,0-3l2-2a16.912,16.912,0,0,1,2,2h0Z"/>
  <path id="t17-t" class="cls-1" d="M18.586,9.534s-0.86-5.984-.324-6.074a16.221,16.221,0,0,0,2.1-.77l3.752,2.434s2.729,5.349,2.423,5.3,0.435,5.08.435,5.08l0.212,7.068-0.447,3.975s-4.376.354-5.08,0.435S18.9,24.664,18.9,24.664s-0.325-1.941.223-1.988,0.178-3.158.447-3.975-0.982-9.167-.982-9.167h0Z"/>
</svg>
