<svg id="t18" xmlns="http://www.w3.org/2000/svg" width="50" height="50" viewBox="0 0 50 50">
  <metadata><?xpacket begin="﻿" id="W5M0MpCehiHzreSzNTczkc9d"?>
<x:xmpmeta xmlns:x="adobe:ns:meta/" x:xmptk="Adobe XMP Core 5.6-c138 79.159824, 2016/09/14-01:09:01        ">
   <rdf:RDF xmlns:rdf="http://www.w3.org/1999/02/22-rdf-syntax-ns#">
      <rdf:Description rdf:about=""/>
   </rdf:RDF>
</x:xmpmeta>
                                                                                                    
                                                                                                    
                                                                                                    
                                                                                                    
                                                                                                    
                                                                                                    
                                                                                                    
                                                                                                    
                                                                                                    
                                                                                                    
                                                                                                    
                                                                                                    
                                                                                                    
                                                                                                    
                                                                                                    
                                                                                                    
                                                                                                    
                                                                                                    
                                                                                                    
                                                                                                    
                           
<?xpacket end="w"?></metadata>
<defs>
    <style>
      .cls-1, .cls-2 {
        fill: none;
        stroke: red;
        stroke-width: 1px;
        fill-rule: evenodd;
      }

      .cls-1 {
        stroke-linecap: round;
        stroke-linejoin: round;
      }
    </style>
  </defs>
  <path id="t18-bottom" class="cls-1" d="M11,3L10,4,9,8l1,5,4,12,1,3,1,4v2l2-3-3,6-1,2v5l1,2,3,2h7V47l4-1,1-1-2,2h1l3,1h4l3-2,1-2V37l-2-3-3-3-2-1H30c4.166-.491,4.569-1.495,5-3,1.055-3.681,0-13,0-13L34,9,32,5,30,3,28,2H25V4l2,2,1,4V21l-1,4s-2-1.444-2-2-3-2-3-2l-2-4-3-3-2-4s0.661-2.234,0-3-3-4-3-4H11Z"/>
  <path id="t18-top" class="cls-2" d="M29.42,20.132L22.657,5.038,22.085,2.419l-2.066-.393L18.525,4.252,17.031,6.479s1.1,2.36.572,2.619,1.144,5.239,1.144,5.239l0.342,3.831,1.605,2.816s1.364,3.938,1.375,4.027,2.408,4.224,2.408,4.224l2.3-.819a3.385,3.385,0,0,0,1.494-2.227,31.724,31.724,0,0,1,.921-4.846A3.462,3.462,0,0,0,29.42,20.132Z"/>
</svg>
