<svg id="t-1-3-source" xmlns="http://www.w3.org/2000/svg" width="300" height="300" viewBox="0 0 300 300" stroke="#000" stroke-width="8" fill="none" stroke-linecap="round" stroke-linejoin="bevel">

  <path id="t-1-3-r1" data-name="t-1-3-r1" d="M149.5,10c-3.506,0-7.5-.516-7.5,4,0,29.589-4.5,65.821-4.5,99,0,4.906-.572,29.5-4.5,29.5L123.5,175c0,13.129-3.842,36.158,4.5,44.5h5c8.344-8.344,8.493-19.493,17-28l2-1.5c10.521,0,12.63.13,19,6.5,0,3.038,2.792,16.5,6.5,16.5q0.25-.5.5-1c0-12.591-1.633-59.633-8.5-66.5,0-27.177,2-53,2-79.5C155.3,66,162.555,6.5,148,6.5L142.5,15l2.5-1.5v-3h4.5V10Z" fill="#fff"></path>

  <path id="t-1-3-b" d="M148.5,187.5c-38.214,50.953-37.5,64.5,5,107L169,283l10-9c9.644-9.644,14-15.608,14-31-15.829-15.829-13-58.5-42.5-58.5l-3,4.5Z" fill="#fff"></path>
</svg>