<svg id="t-3-2-source" xmlns="http://www.w3.org/2000/svg" width="300" height="300" viewBox="0 0 300 300" stroke="#000" stroke-width="8" fill="none" stroke-linecap="round" stroke-linejoin="bevel" transform="scale(1,-1) translate(0,-75)">

  <path id="t-3-2-r1" d="M151,11c-8.174-11.562-14.734,68.5-13,72,0.915,1.847-8,87.344-8,105.5,1.167,0.667,1.833,6.833,3,7.5,6.045-10.331,32.684-20.026,50.648-3.15-4.467-13.6-1.719-47.178-1.648-60.85-1.024-4.894-.044-14.43-2-18-2.333-8.166-3.667-13.334-6-21.5L167,60c0-10-9.859-54.141-16-48C153.71,9.037,144.422,10.89,151,11Z" fill="#fff"></path>

  <path id="t-3-2-b" class="cls-1" d="M137.5,186c-8.6,17.194-15.5,32.983-15.5,54.5l-4,18c0,31.559,46.24,26,70,26,28.833-28.833,6.5-36.933,6.5-66.5l-12-25-8-9.5c-5.9,0-38.5-11.833-38.5,3.5Z" fill="#fff"></path>

</svg>