<svg xmlns="http://www.w3.org/2000/svg" width="300" height="300" viewBox="0 0 300 300" stroke="#000" stroke-width="8" fill="none" stroke-linecap="round" stroke-linejoin="bevel" id="t-3-6-source" transform="scale(1,-1) translate(0,-75)">

  <path id="t-3-6-r1" d="M149,9.5c-7.606,30.425-10.5,74.3-10.5,106,10.488,10.488,17.765,12,33.5,12,0-.918,10.5-13.617,10.5-24Q179.251,92.751,176,82c-8.5-8.5-6.155-76.5-16.5-76.5V5H152l-3,5V9.5Z" fill="#fff"></path>
  <path id="t-3-6-r2" class="cls-1" d="M124,14c-12.274,6.137-9,31.859-9,46q1,14,2,28c6.752,6.752,4.049,55.951-1.5,61.5q0.75,17.248,1.5,34.5c9.963,0,76,7.787,76-2.5,5.4-5.4,3-25.352,3-33q1.75-9.249,3.5-18.5c17.186-17.186-2-83.791-2-106l-12-2.5c-16.183,16.183,2.275,85-32.5,85-8.41-8.409-8.994-21.994-16.5-29.5,0-15.108,4.61-62.5-12.5-62.5V14Z" fill="#fff"></path>

  <path id="t-3-6-b" d="M111.5,186.5c-23.41,17.557-12,54.521-12,80.5L113,284l12.5,6,18.5-1.5,4-6q0.75-17,1.5-34l-19.5-16c6.263,6.263,22.756,17.5,28.5,17.5l9-10.5c-11.954,0-18,28.217-18,39H150c0,12.161,23.056,11.5,31.5,11.5l3-1.5L187,286c5.751-5.751,9.824-11.324,15.5-17l3-2,2.5-2c0-10.449,13.458-56-8-56,0-7.137-4.85-15.85-10-21l-40.5-5c-14.8,0-26.358,5-38.5,5Q111.251,187.25,111.5,186.5Z" fill="#fff"></path>
</svg>