<svg xmlns="http://www.w3.org/2000/svg" width="300" height="300" viewBox="0 0 300 300" stroke="#000" stroke-width="8" fill="none" stroke-linecap="round" stroke-linejoin="bevel" id="t-3-8-source" transform="scale(1,-1) translate(0,-75)">

  <path id="t-3-8-r2" d="M93,212c6-12.675,8.636-26.636,15-40,1-28-3-61-2-89l-5.5-22.5Q99.75,37.752,99,15l1.5-4.5C100.5-4.477,132,11.563,132,33q1,3,2,6c0,49.57,15.5,94.626,15.5,145-24.825,0-42.831,9.831-58.5,25.5C90.833,209.833,93.167,211.667,93,212Z" fill="#fff"></path>

  <path id="t-3-8-r1" d="M92.5,213l11-34c6.574-6.574,18.464-18.356,21-28.5q-1.249-16.749-2.5-33.5c0-37.438,1-70.418,1-107.5C125.854,3.792,133.484,4,139,4c4.4,2.2,10.5,14.365,10.5,19.5,7.65,0,15,23.8,15,31q9.5,49.5,19,99c5.688,17.065,14,36.915,14,51l-27-18-36.5-3c-11.493,11.493-41.5,8.459-41.5,28V213Z" fill="#fff"></path>

  <path id="t-3-8-b" d="M140.611,187.524C100.792,187.524,84,213.757,84,251.993l7.2,21.828,11.837,11.167c13.924,9.157,36.609.439,45.8-8.629l1.029-28.427q-1.8,14.72-3.6,29.442c6.413,6.325,24.643,17.956,37.569,13.706L193.619,286,207,265.7c0-56.15-3.268-79.7-65.36-79.7Z" fill="#fff"></path>
</svg>