<svg id="t-4-1-source" xmlns="http://www.w3.org/2000/svg" x='0' y='0' viewBox="0 0 300 300" stroke="#000" stroke-width="8" fill="none" stroke-linecap="round" stroke-linejoin="bevel" transform="scale(1,-1) translate(0,-75)">

  <path id="t-4-1-r1" d="M146,21c0,33.614-5,27.542-5,61-8.992,8.992-9.4,95.67-9.4,110.4l1.2,0.6c14.531,0,35.517-14.883,48-2.4,0-31.894-9.8-64.25-9.8-95.6-7.8-28-2.2-49.8-11.536-84.687C153.391-.85,149.527,4.592,146.25,13.09,146.25,13.09,146.083,18.364,146,21Z" fill="#fff"></path>

  <path id="t-4-1-b" d="M137.5,186c-8.6,17.194-15.5,32.983-15.5,54.5l-4,18c0,31.559,46.24,26,70,26,28.833-28.833,6.5-36.933,6.5-66.5l-12-25-8-9.5c-5.9,0-38.5-11.833-38.5,3.5Z" fill="#fff"></path>
</svg>