<svg id="t-4-4-source" xmlns="http://www.w3.org/2000/svg" width="300" height="300" viewBox="0 0 300 300" stroke="#000" stroke-width="8" fill="none" stroke-linecap="round" stroke-linejoin="bevel" transform="scale(1,-1) translate(0,-75)">

  <path id="t-4-4-r1" d="M121.837,13.453c0,17.254-1.653,38.784-1.653,56.961l0.551,0.532L130.1,112.47l6.061,4.791c29.006,0,27.524-42.615,12.123-57.494Q144.43,46.46,140.571,33.15C140.571,26,133.38,6,125.143,6l-2.755,7.985Z" fill="#fff"></path>

  <path id="t-4-4-r2" d="M142.224,11.856c-5.316,20.545-3.306,43.674-3.306,67.076-6.676,6.45-5.51,23.12-5.51,33.005-16.682,16.117-14.877,69.755-14.877,92.629l8.816,3.726c0-6.965,41.98-10.115,52.347-10.115l12.673,6.389,7.715-12.244c0-31.425-.211-59.3-22.041-80.385,0-30,8.3-59.588-14.327-81.449,0-9.036-3.34-16.536-8.816-21.826L144.429,7.6q-0.552,1.065-1.1,2.129-0.552,1.863-1.1,3.726v-1.6Z" fill="#fff"></path>

  <path id="t-4-4-b" d="M160.408,188.6C108.617,201.1,102,219.761,102,270.044c5.051,4.88,15.875,20.23,24.8,20.23L130.1,292.4l31.959,1.6,28.653-7.453C192.1,285.207,210,272.706,210,272.706c0-39.6-1.095-83.578-50.143-83.578Z" fill="#fff"></path>
</svg>