<svg xmlns="http://www.w3.org/2000/svg" width="300" height="300" viewBox="0 0 300 300" stroke="#000" stroke-width="8" fill="none" stroke-linecap="round" stroke-linejoin="bevel" id="t-4-7-source" transform="scale(1,-1) translate(0,-75)">

  <path id="t-4-7-r2" class="" d="M125.051,118.087C107.063,94.058,143.117,34.6,143.117,7l3.738,1.872c21.716,21.756,13.339,67.659,29.9,84.251,0,8.641-1.665,28.708-13.705,28.708l-5.606,5.617s-15.772-14.978-28.656-14.978Z" fill="#fff"></path>
  <path id="t-4-7-r1" d="M100.756,190.48c31.808,0,59.151-3.634,92.165-3.634,0,0-.077-54.912,2.42-67.421,0,0,19.3-105.253-12.588-105.253h-2.9c-9.187,9.2-15.977,72.523-15.977,89.247l-4.357,3.395-1.937.97c0-7.664-24.217-10.68-29.05-15.521C122.921,71.145,116.964,18.234,102,9.5c0,4.892-8.721,16.5-8.721,24.963,6.132,22.795,11.2,46.165,17.333,68.959,0,30.007-11.136,56.5-11.136,87.307" fill="#fff"></path>

  <path id="t-4-7-b" d="M145.96,187.188c-12.639,3.168-36.794,1.94-46.919,1.94l-13.06,42.679c0,59.526,20.7,58.684,70.137,58.684,0-7.273,4.353-12.806,4.353-22.31-16.022-16.065-20.315-29.1-20.315-29.1,7.547,7.567,6.755,22.794,20.8,22.794q0.726-.484,1.451-0.97,0.485-2.181.968-4.364h-1.451q-0.485.969-.968,1.94-0.242,14.063-.484,28.129c17.968,18.015,40.193-1.015,52.24-13.095,0-4.621,3.043-22.794,6.289-22.794,0-61.242-19.547-62.564-72.072-62.564Z" fill="#fff"></path>
</svg>