<svg xmlns="http://www.w3.org/2000/svg"  class="svg-item" version="1.1">
    <g id="transform-wrapper" transform="scale(.12 .12)">
            <g>
                <g class="tooth tooth-17" data-num="17">
                    <path id="path5171" fill="none" stroke="#000000" stroke-width="20" d="
                M170.964,1801.977c-20.159-27.624-17.522-67.834-3.927-114.096c51.879-118.83,145.082-144.44,290.279-52.761
                c45.544,18.384,81.649,53.735,105.401,89.009c23.364,34.697,45.057,51.4,33.508,112.764
                c-26.666,103.367-72.725,184.452-203.259,168.482c-51.865-6.309-97.667,7.272-163.266-44.089
                C204.308,1919.255,155.376,1922.055,170.964,1801.977L170.964,1801.977z"></path>
    
                    <path id="path5175" fill="none" stroke="#000000" stroke-width="15" d="
                M440.234,1704.09c-21.49,11.678-38.438,8.3-57.988,28.655c-18.035,18.777-31.666,43.558-41.826,67.365
                c-6.017,14.101-13.634,44.699-13.103,59.699c0.9,25.415,19.304,42.286,24.423,66.321"></path>
    
                    <path id="path5179" fill="none" stroke="#000000" stroke-width="15" d="
                M253.025,1659.938c28.016-0.619,51.795,18.245,72.442,34.848c18.166,14.608,28.642,39.646,44.276,51.326"></path>
    
                    <path id="path5181" fill="none" stroke="#000000" stroke-width="15" d="
                M217.479,1788.014c36.532,4.78,90.926,25.549,125.329,8.779"></path>
                </g>
                                                                      
</g></g></svg>