<svg fill="#FFFFFF" height="50" width="50" xmlns="http://www.w3.org/2000/svg">
  <path class="tooth-11 tooth-11-parent" d="m 10.894,25.723601 c 0.0561,0.43476 3.08165,4.91178 3.84449,6.93412 1.03137,2.18327 2.67371,4.15697 7.0469,5.19412 3.57083,-0.36803 7.19248,-0.4467 10.19825,-4.03315 l 7.38989,-9.40518 1.34756,-2.99193 c 0.97308,-2.16029 -1.13419,-4.14679 -3.10702,-4.99829 l -5.34936,-1.19716 c -3.12438,-0.16807 -5.19809,-0.93656 -11.30278,0.59905 l -5.72815,1.04816 c -2.08382,0.77109 -4.86648,0.46927 -4.92056,4.35665 0.10953,1.48595 -0.58405,2.8577 0.58078,4.49361 z" style="fill: none; stroke: rgb(0, 0, 0); stroke-width: 1; stroke-linecap: round; stroke-linejoin: miter; stroke-miterlimit: 4; stroke-opacity: 1; stroke-dasharray: none;"></path>
<path class="tooth-11" d="m 11.37781, 26.475811 -1.30961,-9.17465 c 0.71031,0 -0.79931,-1.85218 1.86701,-2.67885 9.73684,-3.18201 15.36382,-0.84956 16.95192,-0.1499 1.58809,0.69959 2.96678,2.61285 2.6621,4.62294 -0.30463,2.01002 -0.97137,2.49278 -1.42348,3.49091" style="fill:none;stroke:#000000;stroke-width:1;stroke-linecap:round;stroke-linejoin:miter;stroke-miterlimit:4;stroke-opacity:1;stroke-dasharray:none"></path>
</svg>
