<svg xmlns="http://www.w3.org/2000/svg" width="300" height="300" viewBox="0 0 300 300" stroke="#000" stroke-width="8" fill="none">
  
  <path id="" data-name="" d="M86.722,228.134l16.952-56.153,1.7-30.629s1.13-19.853,0-34.033-3.956-31.2-3.391-47.645-5.651-50.482,1.7-52.75,18.648,6.807,18.648,6.807,10.172-15.882,18.648-3.4,23.734,17.016,32.211,93.59c6.216,27.226,3.955,10.21,8.476,35.734s8.9,40.13,10.172,51.049c1.206,10.357,29.406,53.863,0,83.379-14.5,14.551-38.334,7.219-45.773-5.1,1.207-13.179,1.7-28.927,1.7-28.927l-1.7,28.927s-51.988,31.2-59.334-20.419c-5.275-37.064,14.692-51.049,22.038-56.154s20.909-11.911,28.82-11.911,24.864-8.508,35.6-1.7,22.038,20.42,22.038,20.42h0L176.571,119.23s-9.041-75.438-16.953-83.379-16.952-23.823-16.952-23.823-10.737-20.42-20.344,3.4c-1.7,25.524,0,37.436,0,37.436s-1.13,18.718-1.7,23.823-0.565,34.6,0,42.54,5.651,23.823,0,35.735-14.015,10.258-16.953,17.016C100.284,179.78,86.722,228.134,86.722,228.134Z"/>
</svg>