
			<svg xmlns="http://www.w3.org/2000/svg" version="1.1" width="340" height="550" class="svg-card">
<g class="tooth tooth-16 status-1" data-num="16">
				<path id="path5187" fill="none" stroke="#000000" stroke-width="20" d="
			M306.277,1224.864c99.024-85.947,172.028-36.305,245.036,13.317c19.716,24.465,39.003,48.929,66.006,73.412
			c82.688,79.468,67.135,133.398,19.25,178.925c-29.846,33.11-58.43,65.595-73.479,91.356
			c-17.249,17.761-33.108,31.386-46.578,37.907c-63.743,28.622-88.08-11.298-123.862-31.311
			c-128.558-67.759-174.596-162.145-141.515-282.062C254.778,1260.178,276.522,1237.344,306.277,1224.864L306.277,1224.864z"></path>

				<path id="path5191" fill="none" stroke="#000000" stroke-width="15" d="
			M465.752,1278.065c-17.085,26.345-13.331,49.989-15.128,78.728c-1.52,24.305-10.14,46.233-14.167,70.446
			c-7.615,45.791,6.9,77.07,50.297,96.852"></path>

				<path id="path5193" fill="none" stroke="#000000" stroke-width="15" d="
			M339.774,1341.854c12.074,13.086,21.09,28.199,54.859,26.904c19.255-2.464,38.507-3.707,57.724,8.602"></path>
				<path id="path5195" fill="none" stroke="#000000" stroke-width="15" d="
			M552.42,1353.678c-36.9,6.344-91.442,3.81-101.471,23.678"></path>
				<path id="path5197" fill="none" stroke="#000000" stroke-width="15" d="
			M360.491,1498.246c37.577,17.006,53.496-0.844,73.272-12.484"></path>
			</g>
</svg>