
<svg xmlns="http://www.w3.org/2000/svg" width="300" height="300" viewBox="0 0 300 300" stroke="#000" stroke-width="8" fill="none" stroke-linecap="round" stroke-linejoin="bevel">
  
  <path id="t-1-8" data-name="" d="M86.722,228.134l16.952-56.153,1.7-30.629s1.13-19.853,0-34.033-3.956-31.2-3.391-47.645-5.651-50.482,1.7-52.75,18.648,6.807,18.648,6.807,10.172-15.882,18.648-3.4,23.734,17.016,32.211,93.59c6.216,27.226,3.955,10.21,8.476,35.734s8.9,40.13,10.172,51.049c1.206,10.357,29.406,53.863,0,83.379-14.5,14.551-38.334,7.219-45.773-5.1,1.207-13.179,1.7-28.927,1.7-28.927l-1.7,28.927s-51.988,31.2-59.334-20.419c-5.275-37.064,14.692-51.049,22.038-56.154s20.909-11.911,28.82-11.911,24.864-8.508,35.6-1.7,22.038,20.42,22.038,20.42h0L176.571,119.23s-9.041-75.438-16.953-83.379-16.952-23.823-16.952-23.823-10.737-20.42-20.344,3.4c-1.7,25.524,0,37.436,0,37.436s-1.13,18.718-1.7,23.823-0.565,34.6,0,42.54,5.651,23.823,0,35.735-14.015,10.258-16.953,17.016C100.284,179.78,86.722,228.134,86.722,228.134Z"></path>
</svg><svg xmlns="http://www.w3.org/2000/svg" width="300" height="300" viewBox="0 0 300 300" stroke="#000" stroke-width="8" fill="none" stroke-linecap="round" stroke-linejoin="bevel">

  <path id="t-3-8" class="cls-1" d="M146.761,176.235c-8.553,34.271-30.032,98.857-68.627,98.857L77,273.956c0-12.768,20.84-106.1,26.657-111.924q3.686-20.736,7.373-41.475c0-26.58-17.015-47.788-17.015-80.676,15.028-15.054,46.833-48.534,70.9-24.43,0,10.3-2.268,22.919-2.268,31.248-6.416,0-28.926,19-28.926,24.43q0.284,1.136.568,2.273c0-11.3,19.883-24.43,28.925-24.43,3.025,5.492,7.752,15.53,10.776,21.021L163.776,51.812c-0.567-8.332,1.134-19.507.567-27.839,0-12.356,31.966-13.067,44.239-13.067l10.209,5.113S228.273,34.608,229,35.336c0,21.523-19.986,96.016-36.3,96.016l-10.776-7.386c-21.153,0-70.7-8.522-68.059-8.522L115,116.012c20.71,6.916,44.661,11.363,66.358,11.363,0.446,0.447,12.478,7.954,12.478,7.954L194.4,135.9c0,26.226-14.507,117.037-44.239,117.037q-4.252,3.978-8.507,7.954C131.752,270.811,119.921,291,104.791,291l-5.672-2.273-4.537-14.771c1.134-.758-1.7.757-0.567,0"></path>
</svg><svg xmlns="http://www.w3.org/2000/svg" width="300" height="300" viewBox="0 0 300 300" stroke="#000" stroke-width="8" fill="none" stroke-linecap="round" stroke-linejoin="bevel">

<path id="t-1-8-r2" class="cls-1" d="M93,212c6-12.675,8.636-26.636,15-40,1-28-3-61-2-89l-5.5-22.5Q99.75,37.752,99,15l1.5-4.5C100.5-4.477,132,11.563,132,33q1,3,2,6c0,49.57,15.5,94.626,15.5,145-24.825,0-42.831,9.831-58.5,25.5C90.833,209.833,93.167,211.667,93,212Z" fill="#ff0"></path>
  <path id="t-1-8-r1" class="cls-1" d="M92.5,213l11-34c6.574-6.574,18.464-18.356,21-28.5q-1.249-16.749-2.5-33.5c0-37.438,1-70.418,1-107.5C125.854,3.792,133.484,4,139,4c4.4,2.2,10.5,14.365,10.5,19.5,7.65,0,15,23.8,15,31q9.5,49.5,19,99c5.688,17.065,14,36.915,14,51l-27-18-36.5-3c-11.493,11.493-41.5,8.459-41.5,28V213Z" fill="#f0f"></path>
  <path id="t-1-8-b" class="cls-1" d="M140.611,187.524C100.792,187.524,84,213.757,84,251.993l7.2,21.828,11.837,11.167c13.924,9.157,36.609.439,45.8-8.629l1.029-28.427q-1.8,14.72-3.6,29.442c6.413,6.325,24.643,17.956,37.569,13.706L193.619,286,207,265.7c0-56.15-3.268-79.7-65.36-79.7Z" fill="#0ff"></path>
</svg>